<svg width="22" height="26" viewBox="0 0 22 26" fill="none" xmlns="http://www.w3.org/2000/svg">
<path fill-rule="evenodd" clip-rule="evenodd" d="M13.8867 21.8821C13.7043 21.8435 13.4833 21.8596 13.2234 21.9112C12.7087 22.024 12.1793 22.2722 11.742 22.564C11.7856 22.7107 11.8872 22.8348 12.0518 22.9154C12.2181 22.9993 12.4375 23.0315 12.7167 23.0025C12.8539 22.9864 12.9943 22.9509 13.1379 22.9058C13.2799 22.859 13.4187 22.7929 13.5575 22.7204C13.6947 22.6446 13.8222 22.5543 13.948 22.4592C14.0691 22.3609 14.1804 22.2513 14.2837 22.1401C14.2078 22.0063 14.0707 21.9192 13.8883 21.8821H13.8867Z" fill="url(#paint0_linear_1_25)"/>
<path fill-rule="evenodd" clip-rule="evenodd" d="M16.409 16.4787C16.2686 16.5561 16.1185 16.6883 15.983 16.8704C15.8474 17.0461 15.7312 17.246 15.6312 17.4556C15.7248 17.0542 15.7861 16.6512 15.8151 16.2579C15.9249 16.2805 16.0411 16.2659 16.1589 16.1999C16.2944 16.1257 16.4219 15.9903 16.5333 15.7904C16.7527 15.3906 16.8237 14.8216 16.714 14.338C16.5865 14.3219 16.459 14.3702 16.3445 14.4718C16.2283 14.5734 16.1298 14.7265 16.0362 14.9264C15.9475 15.1327 15.8813 15.3616 15.8361 15.5937C15.8329 15.3165 15.8168 15.0457 15.7893 14.7861C15.7651 14.6217 15.7425 14.4605 15.7151 14.3041C15.9507 14.309 16.175 14.1188 16.2944 13.7109C16.4009 13.295 16.3477 12.7534 16.1379 12.3311C16.0169 12.344 15.9087 12.4165 15.8248 12.5358C15.7829 12.5954 15.7458 12.6664 15.7151 12.7486C15.7006 12.7889 15.686 12.8324 15.6747 12.8775C15.6618 12.9243 15.6489 12.9726 15.6392 13.0242C15.6183 13.1274 15.607 13.2322 15.6021 13.3402C15.5973 13.4466 15.5924 13.5578 15.5989 13.6658C15.6005 13.7125 15.6054 13.7577 15.6102 13.8028C15.5892 13.7206 15.5682 13.64 15.5473 13.561C15.3391 12.8147 15.0486 12.2343 14.8291 11.841C14.7146 11.6476 14.6258 11.4944 14.5548 11.3961C14.487 11.2962 14.4515 11.243 14.4515 11.243L14.4434 11.2494C14.4386 11.2027 14.4305 11.1527 14.4176 11.1027C14.395 11.0189 14.3644 10.9302 14.3224 10.84C14.2804 10.7497 14.2224 10.6627 14.1594 10.5724C14.1271 10.5273 14.0933 10.4821 14.0561 10.4386C14.0174 10.3967 13.9771 10.3548 13.9351 10.3129C13.8931 10.2709 13.8496 10.2323 13.806 10.1952C13.7834 10.1774 13.7624 10.1581 13.7398 10.142C13.7172 10.1259 13.6947 10.1097 13.6704 10.0952C13.5785 10.034 13.4865 9.9824 13.3977 9.93887C13.2154 9.85827 13.0411 9.8212 12.8958 9.8212C12.933 9.96628 13.012 10.1178 13.1185 10.2726C13.1702 10.3515 13.2299 10.4305 13.2977 10.5079C13.3138 10.5272 13.3316 10.5466 13.3493 10.5659C13.3671 10.5853 13.3832 10.6062 13.4009 10.6256C13.4364 10.6643 13.4736 10.7046 13.5139 10.7416C13.5526 10.7803 13.593 10.8158 13.6333 10.8496C13.6721 10.8851 13.7108 10.9206 13.7511 10.9528C13.8302 11.0189 13.9125 11.0737 13.9916 11.1253C14.069 11.1785 14.1465 11.222 14.224 11.2575C14.2917 11.2881 14.3579 11.3123 14.4192 11.33C14.4354 11.3558 14.458 11.3913 14.4886 11.438C14.5564 11.5364 14.6419 11.6895 14.7533 11.8829C14.842 12.0474 14.9421 12.2456 15.0421 12.4745C15.0325 12.4552 15.0244 12.4342 15.0131 12.4149C14.9647 12.3327 14.9082 12.2537 14.8485 12.1795C14.8178 12.1425 14.7872 12.107 14.7533 12.0732C14.7178 12.0409 14.6823 12.0103 14.6452 11.9813C14.5725 11.9232 14.4951 11.8733 14.4176 11.833C14.09 11.6798 13.8189 11.7266 13.6591 11.8926C13.7334 12.0377 13.8447 12.1683 13.9577 12.2924C14.0158 12.3536 14.0836 12.4101 14.1497 12.4633C14.2159 12.5181 14.2853 12.5664 14.3611 12.6083C14.3983 12.6293 14.4354 12.6486 14.4725 12.6648C14.5096 12.6809 14.5435 12.697 14.579 12.7083C14.6484 12.7325 14.7178 12.7486 14.7823 12.755C14.913 12.7663 15.0309 12.7405 15.1244 12.6728C15.1212 12.6615 15.1164 12.6502 15.1115 12.639C15.2261 12.9178 15.3391 13.2354 15.4311 13.5916C15.4537 13.6835 15.4763 13.7786 15.5005 13.8754C15.5037 13.8899 15.5069 13.9044 15.5101 13.9189C15.4198 13.7045 15.2874 13.5078 15.118 13.3724C15.0825 13.3418 15.047 13.316 15.0115 13.2918C14.9744 13.2692 14.9373 13.2499 14.9001 13.2338C14.8275 13.2015 14.7565 13.1806 14.6887 13.1725C14.5532 13.1548 14.4289 13.1838 14.3272 13.2483C14.3498 13.3305 14.3789 13.4111 14.4176 13.4901C14.4515 13.5707 14.4902 13.6513 14.537 13.7271C14.5596 13.7657 14.5871 13.8028 14.6113 13.8399C14.6355 13.877 14.6613 13.914 14.6887 13.9495C14.7436 14.0204 14.8049 14.0865 14.8727 14.1478C15.1115 14.3831 15.3843 14.4831 15.6021 14.417C15.6199 14.5427 15.6344 14.6701 15.6522 14.8006C15.6731 15.0457 15.6844 15.2987 15.6844 15.5567C15.6376 15.3616 15.5569 15.1762 15.4407 15.0279C15.3262 14.87 15.1842 14.77 15.0502 14.7184C14.9147 14.6685 14.7823 14.6668 14.6613 14.7088C14.6823 15.0618 14.7872 15.4438 14.9937 15.7598C15.0954 15.9178 15.2148 16.0403 15.3326 16.1176C15.4359 16.1853 15.5473 16.2176 15.6554 16.216C15.6263 16.5674 15.5682 16.9252 15.4843 17.2831C15.4843 17.0816 15.4407 16.8817 15.3697 16.7109C15.281 16.5206 15.1729 16.3868 15.0454 16.303C14.9179 16.2192 14.7807 16.187 14.65 16.1999C14.5822 16.5625 14.6032 16.9704 14.7339 17.3428C14.8517 17.6845 15.0502 17.9166 15.2907 17.973C15.1777 18.3067 15.0405 18.6356 14.8808 18.9515C14.8905 18.9096 14.9018 18.8677 14.9098 18.8274C14.9179 18.7694 14.9227 18.7129 14.926 18.6565C14.9324 18.5437 14.9292 18.4341 14.9082 18.3261C14.8888 18.2197 14.8582 18.1246 14.8211 18.044C14.7807 17.9618 14.7323 17.8908 14.6774 17.8328C14.5693 17.7167 14.4386 17.6523 14.2998 17.6329C14.1449 17.9827 14.0658 18.4002 14.1062 18.8097C14.1417 19.1885 14.2853 19.477 14.5209 19.5915C14.3224 19.9058 14.1029 20.2024 13.8673 20.4781C13.8722 20.47 13.877 20.4636 13.8802 20.4571C13.9093 20.4039 13.9367 20.3507 13.9609 20.2943C13.9835 20.2379 14.0029 20.1815 14.0206 20.1251C14.0384 20.0686 14.0513 20.0122 14.0626 19.9558C14.0723 19.8978 14.0787 19.8413 14.082 19.7849C14.0868 19.6721 14.082 19.5705 14.061 19.477C14.04 19.3835 14.0077 19.2997 13.9674 19.2288C13.8851 19.0853 13.7689 18.9886 13.6333 18.9354C13.3929 19.2514 13.2121 19.6544 13.1508 20.0783C13.0927 20.4813 13.1718 20.815 13.3929 20.9875C13.2751 21.1019 13.1557 21.2131 13.0346 21.3179C12.841 21.484 12.6409 21.6371 12.4408 21.7773C12.4876 21.7338 12.5311 21.6887 12.5731 21.6419C12.615 21.5952 12.657 21.5484 12.6941 21.4969C12.7312 21.4453 12.7651 21.3937 12.7958 21.3405C12.8264 21.2873 12.8555 21.2341 12.8797 21.1793C12.9039 21.1229 12.9233 21.0665 12.941 21.01C13.0104 20.7876 13.0056 20.5812 12.9588 20.4184C12.9104 20.254 12.8151 20.1267 12.6893 20.0412C12.3714 20.3024 12.0922 20.6635 11.9276 21.0761C11.7646 21.4823 11.763 21.8547 11.9663 22.0836C11.955 22.0901 11.9421 22.0981 11.9308 22.1062C11.558 22.3254 11.1852 22.4963 10.8351 22.6317C10.1331 22.9057 9.51015 23.0202 9.07605 23.0766C8.96631 23.0895 8.86949 23.0992 8.78557 23.1089C8.70004 23.1137 8.62903 23.1185 8.56933 23.1234C8.45152 23.1314 8.3902 23.1346 8.3902 23.1346L8.40634 23.4909C8.40634 23.4909 8.47089 23.4861 8.59353 23.4764C8.65486 23.4715 8.7307 23.4651 8.81946 23.4587C8.90822 23.4474 9.00988 23.4345 9.12285 23.4184C9.5747 23.3523 10.2234 23.2217 10.9496 22.9235C11.3127 22.7752 11.6968 22.5914 12.0793 22.3561C12.4617 22.1223 12.8458 21.8418 13.2105 21.5178C13.2476 21.4856 13.2831 21.4501 13.3203 21.4163C13.4703 21.6581 13.8254 21.7661 14.3176 21.5887C14.4418 21.542 14.5645 21.4791 14.6871 21.405C14.8098 21.3308 14.9227 21.2373 15.0341 21.139C15.1454 21.0407 15.2439 20.9262 15.3375 20.8101C15.4311 20.6941 15.5069 20.5651 15.5779 20.441C15.4779 20.333 15.3294 20.2814 15.1535 20.2863C15.0647 20.2895 14.9695 20.3056 14.8679 20.3346C14.7678 20.3652 14.6548 20.4039 14.5419 20.4587C14.2788 20.5861 14.0206 20.7586 13.785 20.952C14.0723 20.6377 14.3402 20.2943 14.579 19.9284C14.7775 20.1041 15.1228 20.1154 15.5263 19.8478C15.6312 19.7769 15.7296 19.6898 15.8264 19.5947C15.8749 19.5463 15.92 19.4948 15.9636 19.44C16.0072 19.3851 16.0491 19.3287 16.0895 19.2707C16.1718 19.1546 16.2363 19.0273 16.2977 18.8983C16.3606 18.7694 16.4026 18.6356 16.4381 18.5018C16.3203 18.4228 16.1718 18.4083 16.0088 18.4518C15.9265 18.4744 15.8426 18.5098 15.7554 18.5598C15.6651 18.6082 15.5731 18.671 15.4795 18.7484C15.2907 18.9016 15.1148 19.0853 14.9566 19.2836C14.9873 19.2239 15.0212 19.1643 15.0502 19.103C15.1987 18.8016 15.3246 18.4889 15.4327 18.1713C15.657 18.2793 15.9733 18.2084 16.2815 17.8747C16.3638 17.7861 16.4348 17.6829 16.5026 17.5717C16.572 17.4604 16.6253 17.3395 16.6721 17.2138C16.6963 17.1509 16.7172 17.0864 16.7366 17.022C16.7544 16.9559 16.7689 16.8898 16.7802 16.8237C16.806 16.6915 16.8237 16.5577 16.8237 16.4271C16.6963 16.3804 16.5559 16.3997 16.4155 16.4755L16.409 16.4787Z" fill="url(#paint1_linear_1_25)"/>
<path fill-rule="evenodd" clip-rule="evenodd" d="M14.8453 11.5734C14.855 11.6234 14.8663 11.6734 14.8792 11.7233C14.8921 11.7733 14.9034 11.8249 14.9179 11.8749C14.9453 11.9748 14.9808 12.0715 15.0212 12.1666C15.0567 12.2634 15.0986 12.3552 15.1454 12.4423C15.26 12.4229 15.3601 12.3552 15.4343 12.2408C15.4714 12.1828 15.5021 12.1151 15.5263 12.0328C15.5376 11.9925 15.5473 11.949 15.5537 11.9023C15.5586 11.8571 15.5618 11.8088 15.5634 11.7572C15.5634 11.6556 15.557 11.5476 15.5392 11.4396C15.5214 11.3316 15.4876 11.2236 15.4488 11.1172C15.3746 10.9012 15.2503 10.7013 15.118 10.5256C14.9001 10.6046 14.7856 10.8851 14.8114 11.2736C14.8146 11.3735 14.8259 11.4735 14.8453 11.5734Z" fill="url(#paint2_linear_1_25)"/>
<path fill-rule="evenodd" clip-rule="evenodd" d="M11.9631 25.0433C7.18474 25.0433 3.04704 21.1213 3.04704 16.274C3.04704 14.3171 3.9443 12.5036 5.011 11.0447L5.01422 11.0399C5.20626 10.7771 10.2331 4.80469 11.6161 3.16529C11.9841 2.72844 11.6888 2.43022 11.6888 2.43022L10.3574 0.861755L10.2574 0.74408C10.2574 0.74408 10.2267 0.779543 10.1702 0.845635C9.32298 1.83701 4.2493 7.93034 3.20358 9.36502C1.54624 11.6411 0.498901 13.9866 0.498901 16.1983C0.498901 21.679 4.77055 25.946 10.2574 25.946C12.6005 25.946 14.7501 25.1303 16.4478 23.773C15.139 24.579 13.6043 25.0433 11.9631 25.0433Z" fill="#0095CF"/>
<path fill-rule="evenodd" clip-rule="evenodd" d="M20.9211 16.029C21.0325 15.8807 21.1277 15.7147 21.2116 15.5373C21.2552 15.4487 21.2907 15.3568 21.3213 15.2617C21.352 15.1682 21.381 15.0715 21.4052 14.9731C21.4585 14.7765 21.4779 14.575 21.4924 14.3735C21.5085 14.172 21.4924 13.9721 21.4682 13.7771C21.2503 13.7351 21.026 13.7932 20.813 13.9366C20.7065 14.0076 20.6048 14.1011 20.5048 14.2123C20.4015 14.3235 20.303 14.4557 20.2127 14.604C19.9754 14.9893 19.7947 15.4293 19.6721 15.8743C19.6898 15.734 19.7059 15.5922 19.7189 15.4487C19.7124 15.4842 19.7043 15.518 19.6979 15.5535C19.7221 15.3713 19.7431 15.1875 19.756 15.0054C19.785 14.6427 19.7947 14.28 19.785 13.9173C20.1965 13.985 20.6565 13.7271 20.9276 13.0871C20.997 12.9275 21.0389 12.755 21.0728 12.5729C21.1099 12.3907 21.1164 12.2037 21.1115 12.0119C21.1099 11.9168 21.1035 11.8201 21.0938 11.725C21.0809 11.6299 21.0631 11.5348 21.0438 11.4413C21.0034 11.2527 20.9518 11.0673 20.8759 10.8964C20.6629 10.9013 20.4693 10.9996 20.3079 11.1737C20.1481 11.3478 20.0061 11.6009 19.9141 11.9136C19.7931 12.3005 19.7366 12.7228 19.7302 13.1419C19.7221 13.0581 19.7156 12.9743 19.7043 12.8905C19.6301 12.3069 19.5026 11.7395 19.338 11.1979C19.522 11.1769 19.693 11.0931 19.8334 10.9383C19.99 10.7691 20.0965 10.5257 20.1417 10.2033C20.2288 9.56169 20.0029 8.77504 19.5607 8.19633C19.3654 8.24308 19.2073 8.37204 19.0992 8.56548C18.9894 8.76053 18.9346 9.01361 18.9136 9.32634C18.9055 9.62134 18.9346 9.93245 18.9943 10.2387C18.8329 9.85185 18.6554 9.4827 18.4682 9.13613C18.3665 8.96848 18.2713 8.80083 18.1713 8.64124C18.4666 8.49455 18.6409 8.13991 18.5828 7.59184C18.4972 6.98895 18.1019 6.30224 17.5516 5.85733C17.3821 5.93793 17.2675 6.08946 17.2143 6.29096C17.1869 6.3909 17.1756 6.50374 17.1788 6.62787C17.1804 6.68912 17.1869 6.7536 17.1965 6.81969C17.2046 6.8874 17.2143 6.95832 17.2304 7.03086C17.2611 7.17594 17.3047 7.32263 17.3611 7.4661C17.3757 7.50157 17.3902 7.53703 17.4031 7.5741C17.0255 7.11146 16.6462 6.72781 16.3009 6.41508C16.3832 6.33448 16.4429 6.23132 16.472 6.10236C16.4929 6.00725 16.4978 5.89924 16.4849 5.78157C16.4784 5.72193 16.4671 5.65906 16.4494 5.59619C16.4316 5.53332 16.4074 5.46884 16.3784 5.40114C16.3219 5.26573 16.246 5.13032 16.1573 4.99653C16.0685 4.86273 15.9556 4.74022 15.8377 4.61932C15.6038 4.37269 15.3068 4.17441 15.0099 4.01321C14.7372 4.23083 14.7339 4.65962 14.9986 5.15773C15.0615 5.28669 15.1358 5.41404 15.2229 5.53493C15.2342 5.55105 15.2471 5.56717 15.26 5.58329C15.1874 5.53171 15.1212 5.48496 15.0648 5.45111C14.9244 5.35762 14.8485 5.30764 14.8485 5.30764L14.8404 5.31893C14.8082 5.25928 14.7727 5.19964 14.7291 5.14C14.6565 5.04167 14.5677 4.94172 14.466 4.84339C14.3628 4.74667 14.2417 4.66123 14.111 4.5758C14.0448 4.53389 13.9771 4.49198 13.9061 4.45329C13.8334 4.41782 13.7576 4.38397 13.6801 4.35173C13.6027 4.31949 13.5252 4.29048 13.4478 4.26468C13.409 4.25179 13.3719 4.23889 13.3332 4.22761C13.2944 4.21794 13.2557 4.20988 13.217 4.20182C13.0637 4.16958 12.9168 4.14862 12.7764 4.13895C12.494 4.12767 12.2439 4.17119 12.0551 4.24695C12.1809 4.41782 12.3649 4.57741 12.586 4.7241C12.6957 4.80148 12.8152 4.87402 12.9443 4.94011C12.9765 4.95623 13.0088 4.97235 13.0427 4.98847C13.075 5.0062 13.1089 5.02232 13.1428 5.04005C13.2105 5.0739 13.2799 5.10453 13.3525 5.13516C13.4235 5.16418 13.4962 5.19158 13.5672 5.21576C13.6366 5.24316 13.706 5.26734 13.7753 5.28991C13.9125 5.33505 14.0513 5.36406 14.182 5.39147C14.3111 5.42048 14.437 5.43822 14.558 5.44305C14.6662 5.44789 14.7662 5.44305 14.8598 5.4366C14.8953 5.46078 14.9405 5.49302 15.0018 5.53332C15.1341 5.61876 15.3149 5.759 15.5408 5.9331C15.6296 6.03304 15.7232 6.12976 15.8232 6.22003C15.8765 6.27323 15.9313 6.3232 15.9862 6.37156C15.9636 6.35866 15.941 6.34254 15.9168 6.32965C15.8571 6.29741 15.799 6.26517 15.7361 6.23938C15.6731 6.2152 15.6102 6.19263 15.5457 6.17328C15.4182 6.1346 15.2923 6.1088 15.168 6.09752C14.6565 6.0685 14.324 6.27162 14.1998 6.57306C14.3741 6.72459 14.5887 6.83904 14.8049 6.94382C14.9147 6.9954 15.0325 7.03248 15.1487 7.06794C15.2632 7.10502 15.3827 7.13242 15.5037 7.14854C15.5634 7.1566 15.6231 7.16143 15.6812 7.16305C15.7377 7.16627 15.7909 7.16788 15.8442 7.16627C15.9491 7.16305 16.0475 7.14693 16.1363 7.12114C16.3138 7.06794 16.4558 6.97122 16.543 6.8342C16.8141 7.11146 17.0981 7.42741 17.3757 7.79495C17.4531 7.90134 17.5338 8.00934 17.6145 8.12057C17.6565 8.17538 17.6952 8.23341 17.7323 8.29144C17.7468 8.3124 17.7597 8.33497 17.7743 8.35592C17.5225 8.05609 17.1949 7.81107 16.8447 7.70306C16.7818 7.68211 16.7221 7.66599 16.6624 7.65309C16.6011 7.64342 16.543 7.63697 16.4849 7.63375C16.3719 7.62891 16.267 7.6402 16.1734 7.66438C15.9862 7.71274 15.8377 7.81429 15.7377 7.95454C15.8103 8.05125 15.8926 8.14153 15.983 8.22696C16.0701 8.31562 16.1621 8.40106 16.2638 8.47682C16.3138 8.51551 16.3687 8.55097 16.4203 8.58644C16.472 8.62351 16.5252 8.65736 16.5801 8.6896C16.6898 8.75408 16.806 8.8105 16.927 8.85564C17.3805 9.04747 17.8098 9.02973 18.0583 8.80567C18.1374 8.94107 18.2148 9.08132 18.2955 9.22156C18.5263 9.66647 18.7409 10.1468 18.92 10.6546C18.7393 10.2887 18.4666 9.96308 18.1341 9.77125C17.9001 9.62295 17.6613 9.56492 17.458 9.56975C17.253 9.57459 17.0771 9.6439 16.9399 9.75997C17.153 10.2129 17.4919 10.6611 17.9292 10.9706C18.1454 11.1253 18.3665 11.2237 18.565 11.264C18.7587 11.3026 18.941 11.2833 19.0943 11.2011C19.2493 11.7314 19.3638 12.286 19.43 12.8566C19.4235 12.8356 19.4171 12.8147 19.409 12.7953C19.3025 12.4987 19.1282 12.2328 18.9249 12.0264C18.7086 11.8217 18.4956 11.7024 18.2826 11.6589C18.0712 11.6154 17.8743 11.6444 17.7065 11.7314C17.8082 12.244 18.0502 12.7712 18.4165 13.1935C18.7554 13.5836 19.1411 13.7867 19.4897 13.7303C19.501 14.1462 19.4897 14.5637 19.4477 14.9812C19.4445 15.0215 19.4364 15.0618 19.4332 15.1021C19.43 15.0876 19.43 15.0731 19.4268 15.0586C19.4074 14.978 19.3848 14.9006 19.359 14.8248C19.3073 14.6733 19.246 14.5299 19.1605 14.3993C19.0782 14.2687 18.9894 14.1607 18.8975 14.0737C18.8022 13.985 18.699 13.9189 18.5989 13.8705C18.3956 13.7754 18.189 13.7577 17.997 13.8045C17.976 14.3445 18.0922 14.9377 18.3585 15.4567C18.586 15.9033 18.8975 16.1999 19.2363 16.2627C19.154 16.6158 19.0556 16.9623 18.9378 17.3009C18.9378 17.2799 18.9378 17.2573 18.9346 17.2364C18.9281 17.1526 18.9168 17.0704 18.9023 16.9914C18.8845 16.9108 18.8619 16.8318 18.8377 16.756C18.7861 16.6045 18.7264 16.4739 18.6489 16.3611C18.5715 16.2482 18.4859 16.1564 18.3956 16.0838C18.2132 15.9387 18.0083 15.871 17.8001 15.8726C17.6484 16.4143 17.6226 17.0397 17.7646 17.6297C17.8759 18.0956 18.089 18.4486 18.3778 18.6195C18.3391 18.6952 18.302 18.771 18.2616 18.8452C18.1713 19.0128 18.0744 19.174 17.9776 19.3336C17.9808 19.2981 17.9841 19.261 17.9857 19.2256C17.9857 19.1402 17.9857 19.0547 17.9776 18.9725C17.9534 18.6437 17.8372 18.3745 17.6904 18.1859C17.5419 17.9956 17.3482 17.878 17.1368 17.8296C16.8544 18.339 16.6769 18.9612 16.6769 19.5915C16.6769 20.0493 16.7834 20.433 16.9932 20.6812C16.6866 21.0359 16.3671 21.3518 16.0556 21.6323C15.8119 21.8515 15.5699 22.0466 15.3359 22.2207C14.2127 22.9122 12.9297 23.3136 11.5596 23.3313C8.59193 23.37 5.97117 21.6081 4.50909 18.9419C5.89532 22.2045 8.65325 24.413 11.7985 24.3711C13.8754 24.3437 15.7554 23.3394 17.1675 21.7129C17.3111 21.8402 17.5032 21.9208 17.7452 21.9402C18.0357 21.9644 18.3762 21.8902 18.7667 21.7081C18.9588 21.6146 19.1427 21.4953 19.3251 21.3599C19.5058 21.2245 19.6688 21.0633 19.8286 20.8956C19.9835 20.7247 20.1191 20.5377 20.2449 20.3459C20.3644 20.1525 20.4644 19.9494 20.5483 19.7495C20.3595 19.6125 20.1078 19.5706 19.8205 19.6173C19.5317 19.6624 19.2186 19.7978 18.87 20.0026C18.5311 20.2105 18.2051 20.462 17.9066 20.7392C18.2035 20.2911 18.4714 19.8107 18.7054 19.303C19.0653 19.5512 19.6527 19.5093 20.2724 19.0144C20.4273 18.8887 20.5677 18.7404 20.7033 18.5792C20.8388 18.418 20.9485 18.2358 21.0551 18.0472C21.1616 17.8586 21.2358 17.6571 21.3068 17.454C21.3762 17.2509 21.4133 17.0429 21.4424 16.8414C21.2326 16.7512 20.9873 16.7625 20.7323 16.8608C20.6048 16.9108 20.4741 16.9817 20.3434 17.0736C20.2143 17.1655 20.0739 17.2767 19.9399 17.4089C19.5188 17.8232 19.1605 18.3374 18.891 18.8629C19.1766 18.1617 19.3977 17.4121 19.5462 16.6287C19.9432 16.7737 20.4676 16.6109 20.913 16.0338L20.9211 16.029ZM16.1992 6.49891C16.2154 6.51341 16.2299 6.52953 16.246 6.54404C16.2283 6.53115 16.2089 6.51825 16.1912 6.50535C16.1944 6.50374 16.196 6.50052 16.1992 6.49891Z" fill="url(#paint3_linear_1_25)"/>
<path fill-rule="evenodd" clip-rule="evenodd" d="M12.6328 14.9457C12.5441 14.6314 12.2762 13.6771 10.5672 11.3462L8.91471 9.09259L7.26221 11.3462C5.55323 13.6771 5.28535 14.6314 5.19659 14.9457C4.74796 16.5432 5.19659 17.6797 5.65167 18.3519C6.37626 19.4206 7.59626 20.0606 8.91471 20.0606C10.2332 20.0606 11.4532 19.4222 12.1778 18.3535C12.6328 17.6813 13.0815 16.5448 12.6328 14.9473V14.9457Z" fill="#0095CF"/>
<defs>
<linearGradient id="paint0_linear_1_25" x1="14.0336" y1="5.75577" x2="12.9901" y2="22.7366" gradientUnits="userSpaceOnUse">
<stop stop-color="#F5A200"/>
<stop offset="0.07" stop-color="#F5A200"/>
<stop offset="0.54" stop-color="#00AA3A"/>
<stop offset="1" stop-color="#00683B"/>
</linearGradient>
<linearGradient id="paint1_linear_1_25" x1="13.4687" y1="5.7219" x2="12.4253" y2="22.7012" gradientUnits="userSpaceOnUse">
<stop stop-color="#F5A200"/>
<stop offset="0.07" stop-color="#F5A200"/>
<stop offset="0.54" stop-color="#00AA3A"/>
<stop offset="1" stop-color="#00683B"/>
</linearGradient>
<linearGradient id="paint2_linear_1_25" x1="15.5311" y1="5.84763" x2="14.4861" y2="22.8285" gradientUnits="userSpaceOnUse">
<stop stop-color="#F5A200"/>
<stop offset="0.07" stop-color="#F5A200"/>
<stop offset="0.54" stop-color="#00AA3A"/>
<stop offset="1" stop-color="#00683B"/>
</linearGradient>
<linearGradient id="paint3_linear_1_25" x1="13.7302" y1="5.73643" x2="12.6851" y2="22.7189" gradientUnits="userSpaceOnUse">
<stop stop-color="#F5A200"/>
<stop offset="0.07" stop-color="#F5A200"/>
<stop offset="0.54" stop-color="#00AA3A"/>
<stop offset="1" stop-color="#00683B"/>
</linearGradient>
</defs>
</svg>
