<?xml version="1.0" encoding="UTF-8" standalone="no"?>
<svg width="124" height="39" viewBox="0 0 124 39" fill="none" xmlns="http://www.w3.org/2000/svg">
<path fill-rule="evenodd" clip-rule="evenodd" d="M20.7885 32.6633C20.5088 32.6029 20.1688 32.6249 19.7684 32.7071C18.9731 32.8826 18.1614 33.2611 17.4868 33.7108C17.5526 33.9357 17.7117 34.1276 17.964 34.2538C18.2163 34.3854 18.5618 34.4293 18.9896 34.3909C19.2035 34.3635 19.4174 34.3141 19.6368 34.2428C19.8562 34.1715 20.0701 34.0673 20.284 33.9576C20.4924 33.8424 20.6898 33.6998 20.8818 33.5518C21.0683 33.3982 21.2383 33.2282 21.3973 33.0581C21.2822 32.8497 21.0683 32.7181 20.7885 32.6578V32.6633Z" fill="url(#paint0_linear_143_4131)"/>
<path fill-rule="evenodd" clip-rule="evenodd" d="M24.6715 24.3324C24.4576 24.453 24.2218 24.6559 24.0134 24.9357C23.8049 25.2044 23.6239 25.5115 23.4704 25.8351C23.613 25.2154 23.7062 24.5956 23.7556 23.9868C23.9256 24.0252 24.1066 23.9978 24.2876 23.8991C24.496 23.7839 24.6934 23.5755 24.8635 23.2683C25.2035 22.6541 25.3132 21.7765 25.1432 21.0306C24.9457 21.0032 24.7538 21.08 24.5728 21.239C24.3918 21.3981 24.2437 21.6339 24.0956 21.9411C23.9585 22.2592 23.8543 22.6102 23.7885 22.9722C23.7885 22.5444 23.7611 22.1276 23.7172 21.7272C23.6788 21.4749 23.6459 21.2281 23.602 20.9813C23.964 20.9868 24.3095 20.6961 24.496 20.0653C24.6605 19.4236 24.5783 18.59 24.2547 17.9373C24.0682 17.9593 23.9037 18.069 23.772 18.2499C23.7062 18.3432 23.6514 18.4529 23.602 18.579C23.5801 18.6448 23.5581 18.7107 23.5417 18.7765C23.5197 18.8478 23.5033 18.9246 23.4868 19.0013C23.4539 19.1604 23.4375 19.3249 23.432 19.4895C23.4265 19.654 23.4155 19.824 23.4265 19.994C23.4265 20.0653 23.4375 20.1366 23.443 20.2079C23.41 20.0818 23.3771 19.9557 23.3442 19.835C23.0261 18.6832 22.5764 17.7892 22.2363 17.1859C22.0608 16.8843 21.9237 16.6484 21.814 16.5004C21.7098 16.3468 21.655 16.2645 21.655 16.2645L21.644 16.2755C21.6385 16.2042 21.6221 16.1274 21.6001 16.0506C21.5672 15.9245 21.5179 15.7874 21.452 15.6448C21.3862 15.5076 21.2985 15.3705 21.1998 15.2334C21.1504 15.1621 21.0956 15.0963 21.0407 15.025C20.9804 14.9592 20.92 14.8934 20.8542 14.833C20.7884 14.7672 20.7226 14.7069 20.6568 14.6521C20.6239 14.6246 20.591 14.5972 20.5581 14.5698C20.5197 14.5424 20.4868 14.5204 20.4539 14.4985C20.3113 14.4052 20.1687 14.323 20.037 14.2572C19.7573 14.131 19.4886 14.0762 19.2637 14.0762C19.324 14.301 19.4447 14.5314 19.6092 14.7727C19.686 14.8934 19.7792 15.0195 19.8835 15.1347C19.9109 15.1621 19.9328 15.195 19.9657 15.2225C19.9931 15.2554 20.0206 15.2828 20.048 15.3157C20.1028 15.376 20.1577 15.4363 20.2235 15.4967C20.2838 15.557 20.3442 15.6119 20.41 15.6667C20.4703 15.7215 20.5306 15.7764 20.591 15.8258C20.7116 15.9245 20.8378 16.0122 20.9639 16.089C21.0846 16.1713 21.2052 16.2371 21.3204 16.2919C21.4246 16.3413 21.5288 16.3742 21.6221 16.4071C21.6495 16.4455 21.6824 16.5004 21.7318 16.5717C21.836 16.7252 21.9676 16.9611 22.1376 17.2572C22.2747 17.5095 22.4283 17.8167 22.5819 18.1677C22.5654 18.1348 22.5545 18.1073 22.538 18.0744C22.4612 17.9483 22.3789 17.8276 22.2857 17.7125C22.2363 17.6576 22.1925 17.6028 22.1376 17.5479C22.0828 17.4986 22.0279 17.4492 21.9731 17.4053C21.8579 17.3176 21.7427 17.2408 21.6221 17.175C21.1175 16.9391 20.7007 17.0104 20.4539 17.2682C20.569 17.4931 20.7391 17.6905 20.9146 17.888C21.0023 17.9812 21.1065 18.069 21.2107 18.1512C21.3094 18.2335 21.4191 18.3103 21.5343 18.3761C21.5892 18.409 21.6495 18.4364 21.7043 18.4638C21.7592 18.4913 21.814 18.5132 21.8689 18.5297C21.9786 18.5681 22.0828 18.59 22.1815 18.601C22.3844 18.6174 22.5654 18.579 22.708 18.4748C22.7025 18.4584 22.6971 18.4419 22.6861 18.4255C22.8616 18.8533 23.0371 19.3469 23.1797 19.8953C23.2126 20.0379 23.251 20.186 23.2839 20.3341C23.2894 20.356 23.2949 20.378 23.3004 20.3999C23.1632 20.0708 22.9548 19.7637 22.6971 19.5553C22.6422 19.5114 22.5874 19.4675 22.5325 19.4346C22.4722 19.4017 22.4173 19.3688 22.3625 19.3414C22.2528 19.292 22.1431 19.2591 22.0389 19.2481C21.8305 19.2207 21.6385 19.2646 21.4795 19.3688C21.5124 19.4949 21.5617 19.6211 21.6166 19.7418C21.6659 19.8679 21.7263 19.9886 21.7976 20.1092C21.8305 20.1696 21.8744 20.2244 21.9128 20.2847C21.9511 20.3396 21.9895 20.3999 22.0334 20.4548C22.1157 20.5644 22.2144 20.6687 22.3186 20.7619C22.6861 21.1239 23.1084 21.2774 23.443 21.1787C23.4704 21.3707 23.4923 21.5681 23.5197 21.7711C23.5526 22.1495 23.5691 22.5389 23.5691 22.9393C23.4978 22.6376 23.3717 22.3524 23.1907 22.1221C23.0152 21.8807 22.7958 21.7217 22.5874 21.6449C22.3789 21.5681 22.176 21.5626 21.9895 21.6285C22.0224 22.1714 22.1815 22.7583 22.4996 23.2464C22.6532 23.4877 22.8396 23.6797 23.0206 23.8004C23.1797 23.9046 23.3497 23.9539 23.5197 23.9539C23.4759 24.4969 23.3881 25.0508 23.2565 25.5993C23.2565 25.2867 23.1907 24.9795 23.081 24.7163C22.9439 24.4256 22.7793 24.2172 22.5819 24.0856C22.3844 23.9539 22.176 23.91 21.9731 23.9265C21.8689 24.4859 21.9018 25.1167 22.1047 25.6871C22.2857 26.2136 22.5928 26.5701 22.9603 26.6578C22.7848 27.1734 22.5764 27.678 22.3296 28.1661C22.346 28.1003 22.3625 28.0399 22.3735 27.9741C22.3844 27.8864 22.3954 27.7986 22.4009 27.7109C22.4119 27.5354 22.4009 27.3653 22.3735 27.2008C22.3406 27.0363 22.2967 26.8882 22.2363 26.762C22.176 26.6359 22.0992 26.5262 22.017 26.4384C21.8524 26.2629 21.6495 26.1587 21.4356 26.1313C21.1998 26.6688 21.0736 27.316 21.1394 27.9467C21.1943 28.5281 21.4137 28.9723 21.7756 29.1533C21.4685 29.636 21.1339 30.0967 20.7665 30.519C20.772 30.508 20.7829 30.497 20.7884 30.4861C20.8323 30.4038 20.8762 30.3215 20.9091 30.2338C20.942 30.146 20.9749 30.0583 21.0023 29.9705C21.0297 29.8828 21.0517 29.795 21.0681 29.7127C21.0846 29.625 21.0901 29.5372 21.0955 29.4495C21.1065 29.274 21.0955 29.1204 21.0626 28.9723C21.0297 28.8297 20.9804 28.6981 20.92 28.5884C20.7939 28.369 20.6129 28.2154 20.4045 28.1332C20.037 28.6213 19.7573 29.2411 19.6641 29.8937C19.5763 30.5135 19.697 31.029 20.037 31.2978C19.856 31.4733 19.675 31.6433 19.4831 31.8079C19.1814 32.0656 18.8743 32.3015 18.5672 32.5154C18.6385 32.4496 18.7043 32.3783 18.7701 32.307C18.8359 32.2357 18.9017 32.1644 18.9566 32.0876C19.0114 32.0053 19.0662 31.9285 19.1156 31.8463C19.165 31.764 19.2088 31.6817 19.2472 31.5994C19.2856 31.5117 19.3131 31.4239 19.3405 31.3362C19.4502 30.9907 19.4392 30.678 19.3679 30.4257C19.2966 30.1734 19.143 29.976 18.9511 29.8444C18.4629 30.2448 18.0297 30.8042 17.7774 31.4404C17.5251 32.0656 17.5251 32.6415 17.8377 32.9925C17.8212 33.0035 17.7993 33.0145 17.7829 33.0254C17.2125 33.3655 16.6366 33.6233 16.0936 33.8372C15.0131 34.2595 14.0533 34.435 13.3842 34.5227C13.2142 34.5392 13.0661 34.5611 12.9345 34.5721C12.8028 34.5831 12.6932 34.5885 12.5999 34.594C12.4189 34.605 12.3257 34.6105 12.3257 34.6105L12.3476 35.1589C12.3476 35.1589 12.4463 35.148 12.6383 35.137C12.7315 35.1315 12.8467 35.1206 12.9838 35.1096C13.121 35.0931 13.2745 35.0712 13.45 35.0493C14.1466 34.945 15.1448 34.7421 16.2636 34.2869C16.8231 34.0565 17.4154 33.7768 18.0022 33.4148C18.5891 33.0529 19.1814 32.6196 19.7463 32.1205C19.8012 32.0711 19.856 32.0163 19.9164 31.9669C20.1467 32.3399 20.6952 32.5044 21.452 32.2357C21.644 32.1644 21.8305 32.0656 22.0224 31.9505C22.2089 31.8353 22.3844 31.6927 22.5599 31.5391C22.73 31.3855 22.8835 31.21 23.0261 31.0345C23.1687 30.8535 23.2894 30.6561 23.3936 30.4641C23.24 30.2941 23.0097 30.2173 22.7409 30.2283C22.6038 30.2283 22.4557 30.2557 22.3022 30.3051C22.1486 30.349 21.9731 30.4148 21.8031 30.497C21.3972 30.6945 21.0023 30.9577 20.6348 31.2594C21.0791 30.7768 21.4904 30.2448 21.8579 29.6798C22.165 29.9486 22.6971 29.9705 23.3168 29.5537C23.4759 29.444 23.6294 29.3124 23.7775 29.1643C23.8543 29.093 23.9201 29.0107 23.9859 28.9284C24.0517 28.8462 24.1176 28.7584 24.1779 28.6652C24.304 28.4842 24.4028 28.2922 24.496 28.0893C24.5947 27.8919 24.6605 27.6834 24.7154 27.4805C24.5344 27.3599 24.304 27.3379 24.0572 27.4037C23.9311 27.4366 23.7995 27.4915 23.6678 27.5683C23.5307 27.6451 23.3881 27.7383 23.2455 27.859C22.9548 28.0948 22.6861 28.38 22.4393 28.6871C22.4886 28.5939 22.538 28.5006 22.5819 28.4074C22.8122 27.9412 23.0042 27.4586 23.1687 26.9704C23.5143 27.1405 24.0024 27.0253 24.4741 26.5097C24.6002 26.3726 24.7099 26.2136 24.8141 26.0436C24.9183 25.8735 25.0006 25.6871 25.0774 25.4896C25.1103 25.3909 25.1487 25.2922 25.1761 25.1934C25.2035 25.0947 25.2254 24.9905 25.2419 24.8863C25.2803 24.6834 25.3077 24.475 25.3077 24.2775C25.1103 24.2062 24.8964 24.2336 24.677 24.3543L24.6715 24.3324Z" fill="url(#paint1_linear_143_4131)"/>
<path fill-rule="evenodd" clip-rule="evenodd" d="M22.264 16.7693C22.2805 16.8461 22.297 16.9229 22.3134 16.9997C22.3299 17.0765 22.3518 17.1532 22.3737 17.23C22.4176 17.3836 22.4725 17.5317 22.5328 17.6798C22.5876 17.8278 22.6534 17.9704 22.7247 18.1076C22.9003 18.0747 23.0538 17.9759 23.169 17.7949C23.2238 17.7072 23.2732 17.5975 23.3116 17.4768C23.3281 17.4165 23.3445 17.3507 23.3555 17.2739C23.3664 17.2026 23.3664 17.1313 23.3719 17.049C23.3719 16.8955 23.361 16.7254 23.3335 16.5609C23.3061 16.3909 23.2513 16.2263 23.1964 16.0618C23.0812 15.7272 22.8893 15.4201 22.6864 15.1514C22.3518 15.272 22.1763 15.7053 22.2147 16.3031C22.2147 16.4567 22.2366 16.6103 22.264 16.7638V16.7693Z" fill="url(#paint2_linear_143_4131)"/>
<path fill-rule="evenodd" clip-rule="evenodd" d="M17.8269 37.5391C10.4666 37.5391 4.09347 31.4896 4.09347 24.0196C4.09347 21.003 5.47559 18.2059 7.12097 15.9572H7.12645C7.42262 15.5459 15.1669 6.33725 17.2949 3.80885C17.8598 3.13425 17.4046 2.67354 17.4046 2.67354L15.3533 0.249351L15.1998 0.0683594C15.1998 0.0683594 15.1559 0.123205 15.0681 0.221928C13.7628 1.75213 5.94726 11.1472 4.33479 13.3575C1.77897 16.8731 0.166504 20.4875 0.166504 23.8989C0.166504 32.3507 6.74801 38.9322 15.1998 38.9322C18.8086 38.9322 22.1213 37.6762 24.7375 35.5811C22.7246 36.8261 20.3608 37.5391 17.8269 37.5391Z" fill="#0095CF"/>
<path fill-rule="evenodd" clip-rule="evenodd" d="M31.6262 23.6356C31.7962 23.4107 31.9443 23.1529 32.0759 22.8787C32.1418 22.7416 32.1966 22.599 32.246 22.4564C32.2953 22.3138 32.3392 22.1657 32.3776 22.0121C32.4599 21.7105 32.4873 21.3979 32.5092 21.0852C32.5312 20.7726 32.5092 20.4655 32.4708 20.1638C32.1363 20.098 31.7908 20.1913 31.4617 20.4106C31.2971 20.5203 31.1381 20.6629 30.9845 20.833C30.8255 21.003 30.6719 21.2059 30.5348 21.4363C30.1673 22.0286 29.8931 22.7087 29.7011 23.3943C29.7285 23.1749 29.7505 22.9555 29.7724 22.7361C29.7614 22.791 29.7505 22.8458 29.7395 22.8952C29.7779 22.6154 29.8108 22.3302 29.8273 22.0505C29.8711 21.4911 29.8876 20.9317 29.8711 20.3722C30.5074 20.4765 31.2149 20.0761 31.6317 19.0943C31.7359 18.8475 31.8017 18.5788 31.8566 18.2991C31.9114 18.0194 31.9224 17.7287 31.9169 17.4325C31.9169 17.2844 31.9059 17.1363 31.8895 16.9883C31.8675 16.8402 31.8456 16.6976 31.8127 16.5495C31.7469 16.2588 31.6701 15.9736 31.5549 15.7103C31.2258 15.7158 30.9297 15.8694 30.6774 16.1381C30.4306 16.4069 30.2112 16.7963 30.0741 17.2789C29.8876 17.8768 29.7998 18.5294 29.7944 19.1711C29.7834 19.045 29.7724 18.9133 29.756 18.7872C29.6408 17.8877 29.4433 17.0157 29.191 16.1765C29.4762 16.1436 29.7395 16.012 29.9534 15.7762C30.1947 15.5184 30.3593 15.1399 30.4306 14.6408C30.5677 13.6536 30.2167 12.4415 29.5366 11.5475C29.2349 11.6188 28.9936 11.8163 28.8236 12.1179C28.6536 12.4196 28.5713 12.809 28.5384 13.2916C28.5274 13.7469 28.5713 14.224 28.6645 14.7012C28.4177 14.1034 28.1435 13.5384 27.8528 13.001C27.6938 12.7432 27.5512 12.4854 27.3976 12.2386C27.8528 12.0137 28.1216 11.4653 28.0283 10.6206C27.8967 9.68826 27.2879 8.63522 26.4433 7.94416C26.18 8.07031 26.0045 8.30066 25.9222 8.61328C25.8783 8.76685 25.8619 8.94236 25.8674 9.13432C25.8674 9.22755 25.8784 9.32628 25.8948 9.43048C25.9058 9.53469 25.9222 9.64438 25.9442 9.75956C25.988 9.98443 26.0593 10.2093 26.1471 10.4287C26.169 10.4835 26.191 10.5384 26.2129 10.5932C25.6315 9.88022 25.0447 9.28788 24.5127 8.80524C24.6388 8.6791 24.7321 8.52004 24.7759 8.3226C24.8089 8.17451 24.8143 8.00997 24.7979 7.82898C24.7869 7.73574 24.7705 7.64251 24.743 7.54378C24.7156 7.44506 24.6772 7.34634 24.6333 7.24213C24.5456 7.03372 24.4304 6.8253 24.2933 6.61689C24.1562 6.40847 23.9807 6.222 23.7997 6.03552C23.4377 5.65708 22.9825 5.34995 22.5273 5.09766C22.1104 5.43222 22.0995 6.09585 22.5108 6.8637C22.604 7.06114 22.7247 7.25859 22.8563 7.44506C22.8728 7.47248 22.8947 7.49442 22.9112 7.52185C22.8015 7.44506 22.6973 7.37376 22.6095 7.31892C22.3901 7.17632 22.275 7.09953 22.275 7.09953L22.264 7.11599C22.2146 7.02275 22.1598 6.93499 22.094 6.84176C21.9843 6.68819 21.8472 6.53462 21.6881 6.38654C21.5291 6.23845 21.3426 6.10682 21.1397 5.97519C21.0409 5.90938 20.9367 5.84905 20.827 5.78872C20.7119 5.73387 20.5967 5.68451 20.476 5.63515C20.3554 5.58578 20.2402 5.54191 20.1195 5.49803C20.0592 5.47609 20.0043 5.45964 19.944 5.44319C19.8837 5.42673 19.8234 5.41576 19.7685 5.40479C19.5327 5.35543 19.3078 5.32252 19.0884 5.30607C18.6551 5.28962 18.2712 5.35543 17.975 5.47061C18.167 5.73387 18.4522 5.98068 18.7922 6.20554C18.9623 6.3262 19.1433 6.4359 19.3462 6.5401C19.3956 6.56753 19.4449 6.58947 19.4998 6.61689C19.5491 6.64431 19.5985 6.67173 19.6533 6.69367C19.7575 6.74303 19.8617 6.7924 19.9769 6.84176C20.0866 6.88563 20.1963 6.92951 20.306 6.96242C20.4157 7.00629 20.5199 7.04469 20.6296 7.07759C20.8435 7.14889 21.0519 7.19277 21.2548 7.23116C21.4523 7.27504 21.6497 7.30246 21.8307 7.31343C21.9953 7.3244 22.1543 7.31343 22.2969 7.30246C22.3518 7.34085 22.4231 7.39022 22.5163 7.45055C22.7192 7.58218 22.9989 7.79608 23.3445 8.06482C23.4816 8.21839 23.6242 8.36647 23.7777 8.50907C23.86 8.59134 23.9423 8.66813 24.03 8.74491C23.9971 8.72297 23.9587 8.70103 23.9258 8.67909C23.8326 8.62973 23.7448 8.58037 23.6461 8.54198C23.5474 8.50359 23.4542 8.47068 23.3554 8.43777C23.158 8.37744 22.966 8.33905 22.7741 8.3226C21.9843 8.27872 21.4742 8.59134 21.2823 9.05753C21.551 9.29337 21.8801 9.46888 22.2146 9.62793C22.3847 9.70471 22.5657 9.76504 22.7412 9.81989C22.9167 9.87474 23.0977 9.91861 23.2841 9.94055C23.3774 9.95152 23.4651 9.96249 23.5584 9.96249C23.6461 9.96249 23.7284 9.96797 23.8107 9.96249C23.9697 9.96249 24.1233 9.93507 24.2604 9.89119C24.5346 9.80892 24.754 9.66084 24.8856 9.45242C25.3025 9.88022 25.7412 10.3683 26.169 10.9333C26.2897 11.0978 26.4104 11.2623 26.5365 11.4378C26.6023 11.5201 26.6626 11.6079 26.7175 11.7011C26.7394 11.734 26.7614 11.7669 26.7833 11.7998C26.3939 11.3391 25.8948 10.9607 25.3518 10.7961C25.2531 10.7632 25.1599 10.7358 25.0721 10.7194C24.9789 10.7029 24.8856 10.6919 24.7979 10.6919C24.6224 10.6865 24.4633 10.7029 24.3207 10.7413C24.03 10.8181 23.8052 10.9717 23.6461 11.1856C23.7558 11.3336 23.882 11.4762 24.0246 11.6079C24.1562 11.745 24.2988 11.8766 24.4578 11.9918C24.5346 12.0521 24.6169 12.107 24.6992 12.1618C24.7759 12.2167 24.8582 12.2715 24.946 12.3209C25.116 12.4196 25.2915 12.5073 25.478 12.5786C26.1745 12.8748 26.8382 12.8474 27.2221 12.5019C27.3427 12.7103 27.4634 12.9242 27.5895 13.1436C27.946 13.8291 28.2751 14.5695 28.5548 15.3538C28.2751 14.7889 27.8528 14.2898 27.3427 13.9937C26.9808 13.7633 26.6133 13.6756 26.3007 13.681C25.9826 13.6865 25.7138 13.7962 25.5054 13.9717C25.8345 14.6683 26.3555 15.3593 27.0301 15.8365C27.3647 16.0723 27.7047 16.2259 28.0064 16.2917C28.3025 16.352 28.5877 16.3191 28.8236 16.193C29.0649 17.0102 29.2404 17.8658 29.3391 18.7433C29.3282 18.7104 29.3227 18.683 29.3062 18.6501C29.1417 18.1949 28.8729 17.7835 28.5603 17.4654C28.2258 17.1528 27.9022 16.9663 27.5731 16.9005C27.244 16.8347 26.9424 16.8786 26.6846 17.0102C26.8382 17.8 27.2111 18.6117 27.7815 19.2644C28.3025 19.8677 28.8949 20.1803 29.4324 20.0925C29.4488 20.7342 29.4324 21.3759 29.3666 22.0176C29.3611 22.078 29.3501 22.1438 29.3446 22.2041C29.3446 22.1822 29.3391 22.1602 29.3336 22.1383C29.3062 22.0176 29.2678 21.897 29.2294 21.7763C29.1527 21.5405 29.0539 21.3211 28.9223 21.1182C28.7962 20.9207 28.659 20.7507 28.5164 20.6136C28.3684 20.4765 28.2148 20.3777 28.0557 20.3009C27.7431 20.1529 27.425 20.1254 27.1288 20.1967C27.0959 21.0304 27.2769 21.9463 27.6883 22.7416C28.0393 23.4326 28.5164 23.8879 29.0375 23.9866C28.9113 24.5296 28.7578 25.0671 28.5768 25.5881C28.5768 25.5552 28.5768 25.5223 28.5768 25.4894C28.5658 25.3632 28.5494 25.2371 28.5274 25.1109C28.5 24.9848 28.4671 24.8641 28.4287 24.749C28.3464 24.5131 28.2587 24.3157 28.138 24.1402C28.0173 23.9647 27.8857 23.8221 27.7486 23.7124C27.4689 23.4875 27.1508 23.3833 26.8327 23.3833C26.6023 24.2169 26.5584 25.1822 26.7778 26.0927C26.9478 26.8112 27.2769 27.3541 27.7212 27.6174C27.6608 27.7326 27.606 27.8532 27.5457 27.9629C27.4086 28.2207 27.2605 28.473 27.1069 28.7143C27.1124 28.6595 27.1179 28.6046 27.1179 28.5443C27.1179 28.4127 27.1179 28.281 27.1069 28.1549C27.0685 27.6503 26.893 27.2335 26.6626 26.9428C26.4323 26.6521 26.1361 26.4656 25.8125 26.3943C25.3793 27.1786 25.105 28.1384 25.105 29.1092C25.105 29.8167 25.2696 30.4036 25.5932 30.793C25.1215 31.3414 24.6279 31.8296 24.1507 32.2574C23.7723 32.5974 23.4048 32.8936 23.0428 33.1623C21.3152 34.2263 19.3352 34.8461 17.2291 34.8735C12.6605 34.9338 8.6238 32.219 6.36963 28.1055C8.50862 33.1349 12.7537 36.5408 17.5966 36.475C20.7941 36.4311 23.69 34.8845 25.8674 32.378C26.0868 32.5755 26.3829 32.7016 26.7559 32.729C27.2056 32.7674 27.7267 32.6523 28.33 32.3725C28.6261 32.2299 28.9113 32.0435 29.191 31.835C29.4708 31.6266 29.7231 31.3798 29.9699 31.1166C30.2112 30.8533 30.4196 30.5626 30.6116 30.2719C30.798 29.9703 30.9516 29.6631 31.0778 29.356C30.7871 29.1476 30.4031 29.0818 29.9589 29.1531C29.5092 29.2189 29.032 29.4328 28.4945 29.7454C27.9735 30.0635 27.4689 30.4529 27.0082 30.8807C27.4689 30.1897 27.8802 29.4492 28.2367 28.6649C28.7907 29.0434 29.6956 28.9831 30.65 28.2207C30.8858 28.0287 31.1052 27.7984 31.3136 27.5461C31.522 27.2993 31.692 27.0196 31.8566 26.7289C32.0156 26.4382 32.1363 26.1256 32.2405 25.813C32.3447 25.5003 32.405 25.1822 32.4489 24.8696C32.1253 24.7325 31.7469 24.749 31.3575 24.9025C31.16 24.9793 30.9626 25.089 30.7596 25.2316C30.5622 25.3742 30.3428 25.5442 30.1399 25.7471C29.4927 26.3888 28.9388 27.1786 28.5219 27.9903C28.9607 26.9099 29.3007 25.7526 29.5311 24.546C30.1454 24.7709 30.9516 24.5186 31.6372 23.6301L31.6262 23.6356ZM24.3481 8.94236C24.3481 8.94236 24.3975 8.98623 24.4194 9.01365C24.392 8.99172 24.3646 8.97526 24.3372 8.95333C24.3372 8.95333 24.3481 8.94784 24.3481 8.94236Z" fill="url(#paint3_linear_143_4131)"/>
<path fill-rule="evenodd" clip-rule="evenodd" d="M18.8579 21.9681C18.7208 21.4854 18.3095 20.0101 15.6769 16.4177L13.132 12.9404L10.5872 16.4177C7.95455 20.0101 7.5432 21.4854 7.40609 21.9681C6.71503 24.4307 7.40609 26.1857 8.10812 27.2223C9.22697 28.8732 11.1027 29.8549 13.132 29.8549C15.1613 29.8549 17.0425 28.8732 18.1559 27.2223C18.8579 26.1857 19.549 24.4361 18.8579 21.9681Z" fill="#0095CF"/>
<path fill-rule="evenodd" clip-rule="evenodd" d="M43.3467 14.4875C43.0889 15.0414 42.7433 15.5625 42.3155 16.0506C41.8878 16.4674 41.1473 17.0872 40.1053 17.9099C39.8475 18.1073 39.5239 18.1348 39.129 18.0031C38.4654 17.7234 38.1527 17.4766 38.1911 17.2682C38.2021 17.0982 38.608 16.8514 39.4032 16.5333C40.6427 15.919 41.5696 15.1566 42.1839 14.2517C42.6117 13.5277 42.7708 12.7489 42.6611 11.9152L42.4965 11.8055C42.3485 11.5971 42.3485 11.3723 42.4965 11.1254C42.5953 10.917 42.7708 10.7689 43.0285 10.6812C43.1876 10.5825 45.727 10.5331 50.6466 10.5331C51.1019 10.5331 51.3103 10.6263 51.2719 10.8073C51.2335 10.9938 51.036 11.2077 50.685 11.449C50.4382 11.5862 50.1201 11.6136 49.7307 11.5423C48.908 11.4326 47.8276 11.3942 46.4893 11.4326C45.3266 11.4545 44.4326 11.5752 43.8183 11.7836V11.9481H48.1237C49.8788 11.9372 50.8222 12.003 50.9593 12.1511C51.047 12.2608 51.069 12.4088 51.0306 12.5953C50.9702 12.7653 50.7399 12.8531 50.3505 12.8531C48.1895 12.7544 45.9957 12.7982 43.7635 12.9847L43.7086 13.3138H46.5771L51.1403 13.2754C51.5077 13.2644 51.7765 13.3083 51.952 13.4015C52.0891 13.4728 52.1385 13.6154 52.1001 13.8239C52.0288 14.0707 51.8971 14.2571 51.7161 14.3943C51.4858 14.5423 51.1896 14.5698 50.8331 14.4875C50.3889 14.3778 49.8459 14.3175 49.1932 14.301C49.3303 14.3614 49.4071 14.5369 49.4346 14.8166L49.3632 15.1456C51.217 16.2755 52.9337 16.8184 54.5133 16.7855C55.2098 16.7855 55.3853 16.983 55.0288 17.3724C54.8698 17.5424 54.3926 17.8221 53.5919 18.2006C53.005 18.4693 52.4566 18.42 51.952 18.0525C50.0872 16.6429 48.9409 15.9354 48.5131 15.9354L48.2554 15.8422C47.3449 16.1 46.7855 16.1658 46.5606 16.0451C46.2809 15.897 46.3358 15.749 46.7252 15.6009C47.5862 15.2224 48.1402 14.8659 48.398 14.5314C48.4857 14.3723 48.6119 14.2846 48.7819 14.2736C47.9098 14.2242 46.8787 14.2133 45.6886 14.2352C45.6995 14.3339 45.6886 14.4491 45.6502 14.5862C45.5624 14.8056 45.524 15.3595 45.524 16.2426C45.4637 16.5387 45.5899 16.6868 45.908 16.6868L47.3778 16.5936C47.844 16.5552 48.0963 16.6429 48.1347 16.8514C48.1347 17.0104 47.844 17.1695 47.2681 17.3285C45.8586 17.7344 44.9536 18.0525 44.5642 18.2828C44.0761 18.5516 43.7196 18.5351 43.4947 18.228C43.2973 17.9812 43.4344 17.6576 43.9006 17.2517C44.279 16.9062 44.471 16.5497 44.471 16.1822C44.4929 15.1127 44.4326 14.504 44.2845 14.3394L43.3302 14.4656L43.3467 14.4875ZM44.8001 6.8694V6.42515C43.9664 6.44709 43.4947 6.52387 43.385 6.64453C43.3247 6.66647 43.2918 6.84198 43.2918 7.16009C43.6209 7.23138 44.1255 7.26978 44.8001 7.26978V6.86392V6.8694ZM44.8001 8.52575V8.21313C44.0871 8.21313 43.6044 8.25152 43.3467 8.32282C43.3576 8.76707 43.418 9.01936 43.5331 9.09615C43.6428 9.16745 44.0706 9.20584 44.822 9.20584V8.52575H44.8056H44.8001ZM48.4418 7.22042L50.0049 7.14912C49.983 6.80359 49.9336 6.61163 49.8569 6.56226C49.6978 6.45257 49.2426 6.39224 48.4967 6.37579L48.4418 7.22042ZM47.4162 6.3703H45.8696V7.26978C46.5058 7.22042 47.0213 7.21493 47.4162 7.25332V6.3703ZM48.3705 9.1126H48.9793C49.4236 9.12357 49.7143 9.07421 49.8623 8.96452C49.9227 8.85482 49.972 8.60802 50.0104 8.22958C49.6923 8.16925 49.1603 8.13634 48.4089 8.13634V8.32282L48.3705 9.1126ZM47.3614 8.55866V8.13634C47.0817 8.09795 46.5771 8.1144 45.8531 8.17473V9.18938L47.3065 9.13454L47.3449 8.56414H47.3614V8.55866ZM48.5735 5.52568C49.802 5.47632 50.5918 5.57504 50.9483 5.82184C51.2061 6.03026 51.3158 6.35933 51.2774 6.81456C51.1786 7.39044 51.1293 8.01568 51.1293 8.69029C51.1403 9.30456 51.0251 9.7159 50.7783 9.92432C50.4492 10.1711 50.0324 10.2479 49.5278 10.1656L46.8239 10.0724C45.535 10.0505 44.5533 10.1218 43.8787 10.2918C43.3028 10.4015 42.9243 10.4015 42.7379 10.2918C42.4307 10.1053 42.2936 9.76527 42.332 9.26068L42.2388 7.05039C42.1784 6.41418 42.2552 5.99735 42.4801 5.79991C42.5898 5.67924 42.8092 5.61343 43.1437 5.61343L44.7452 5.57504C44.6849 5.18015 44.7397 4.93334 44.9098 4.81816C45.1895 4.57136 45.4198 4.56039 45.5898 4.77977C45.7489 4.94979 45.8476 5.20209 45.886 5.53665H47.4107C47.3888 5.14176 47.4656 4.89495 47.6521 4.77977C47.9208 4.56039 48.1512 4.56039 48.3321 4.77977C48.4528 4.94979 48.5351 5.1966 48.5735 5.51471V5.52568ZM64.5665 7.80727C64.4459 8.28443 64.402 9.20584 64.4404 10.566C66.9194 10.5276 68.4277 10.4728 68.9652 10.4015H69.1297L69.0749 8.74513C69.0529 8.48736 68.9707 8.26797 68.8335 8.0815C68.5758 7.78533 67.1553 7.63724 64.5665 7.63724V7.80178V7.80727ZM63.0747 7.86211V7.64273C60.497 7.66467 59.0326 7.89502 58.6761 8.32282C58.4896 8.53123 58.4019 8.70126 58.4019 8.83837L58.3635 10.4015H58.5115C59.2849 10.5496 60.8535 10.6044 63.2228 10.566L63.0967 7.86211H63.0802H63.0747ZM64.5665 14.7837C67.0949 14.7453 68.5045 14.6685 68.8006 14.5423C68.8994 14.471 68.9652 14.2681 69.0036 13.9336L69.1133 11.8H68.8555C68.2302 11.652 66.7659 11.5916 64.4568 11.6136C64.4568 13.3193 64.4952 14.3504 64.5665 14.7069V14.7782V14.7837ZM63.1131 14.5588C63.2009 14.131 63.2393 13.1547 63.2393 11.63C60.7602 11.641 59.1971 11.7013 58.5445 11.8165H58.3799C58.4019 13.4619 58.5445 14.3504 58.8022 14.4875C59.1697 14.6959 60.5957 14.7946 63.0692 14.7837L63.1076 14.5643L63.1131 14.5588ZM57.1294 8.52575C57.1294 8.22958 57.113 7.9718 57.0746 7.75242C56.9759 7.43431 57.0362 7.12718 57.2611 6.83101C57.4475 6.56226 57.7218 6.40321 58.0892 6.35385C58.2373 6.33191 58.4402 6.38676 58.698 6.51839C58.9064 6.58969 59.1752 6.6226 59.5097 6.61163C60.9083 6.52387 63.1186 6.5129 66.1351 6.57323C67.605 6.56226 68.5264 6.53484 68.8939 6.50193C69.3217 6.45257 69.6782 6.48 69.9634 6.57323C70.2815 6.69389 70.4899 7.00103 70.5886 7.49465C70.638 7.81275 70.6051 8.2241 70.4954 8.72868C70.3747 9.07421 70.3308 9.45264 70.3692 9.86947C70.3912 13.5387 70.2595 15.5789 69.9634 15.9958C69.7659 16.1658 69.3985 16.2151 68.861 16.1438C67.7421 15.9135 65.998 15.7928 63.6177 15.7928C60.9193 15.7928 59.3342 15.897 58.868 16.1055C58.539 16.2535 58.2867 16.3029 58.1112 16.2535C57.9247 16.2042 57.7602 16.0835 57.6121 15.8861C57.475 15.6886 57.4091 15.5186 57.4091 15.3705C57.2227 13.9336 57.1349 11.652 57.1349 8.52575H57.1294ZM84.7169 8.74513C85.2051 8.22958 85.6712 8.01568 86.1155 8.10343C86.4226 8.16376 86.6311 8.34476 86.7407 8.63544C86.8011 8.93161 86.7407 9.1839 86.5543 9.39231C86.3349 9.55137 85.9894 9.69945 85.5232 9.83657L83.5377 10.3357C83.5597 10.5825 83.6803 10.9554 83.8887 11.46C84.1575 12.0743 84.6347 12.5405 85.3257 12.8586C86.4939 13.4619 87.7609 13.8732 89.1375 14.0926C89.5653 14.131 89.7079 14.2626 89.5598 14.4985C89.3733 14.7562 88.8194 15.1018 87.887 15.5296C87.3989 15.749 86.7791 15.6009 86.0277 15.0853C84.7169 14.1749 83.8449 13.3906 83.4171 12.7324C82.9015 12.0798 82.5341 11.3174 82.3147 10.4344C82.194 9.9682 82.216 9.66106 82.386 9.51297C82.556 9.34295 82.7863 9.34295 83.0661 9.51297L83.2854 9.69945L84.7224 8.76159L84.7169 8.74513ZM78.459 11.098C78.0148 12.3979 77.5979 13.2919 77.2085 13.7855C76.7314 14.3504 76.0622 14.9043 75.2012 15.4418C74.2578 16.0067 73.5832 16.2097 73.1773 16.0506C72.9305 15.9519 72.8099 15.7544 72.8099 15.4638C72.7989 15.0579 73.0402 14.7453 73.5448 14.5259C74.6253 14.0213 75.4535 13.5387 76.0293 13.0725C76.8904 12.3485 77.2798 11.5039 77.2085 10.5331C77.0495 10.3357 76.8465 10.2863 76.5997 10.385L75.6235 10.4399C74.9489 10.5496 74.4278 10.4234 74.0604 10.0559C73.8136 9.73784 73.8519 9.48007 74.1701 9.28262C74.7953 8.91515 75.3602 8.81095 75.8648 8.97C76.3036 9.12905 76.9727 9.31553 77.8722 9.52394C78.267 9.683 78.5358 9.85302 78.6839 10.0395C78.8045 10.2369 78.7936 10.4399 78.6455 10.6483L78.459 11.109V11.098ZM79.9837 6.24416C79.9234 5.66828 79.9947 5.30081 80.2031 5.14176C80.5486 4.84559 80.8393 4.8401 81.0861 5.1253C81.3549 5.42147 81.47 5.86572 81.4371 6.46903C81.2507 9.31553 81.2178 12.4966 81.3274 16.0177C81.3878 16.8623 81.2726 17.4492 80.9764 17.7673C80.7406 18.0251 80.4609 17.9757 80.1318 17.6192C79.9453 17.4218 79.8905 16.9994 79.9673 16.3468C80.0386 12.5185 80.0495 9.15099 79.9837 6.24416ZM104.22 11.5258C102.701 11.1474 101.489 11.4326 100.595 12.3924C100.227 12.7379 99.9531 12.8915 99.7666 12.8531C99.5802 12.8147 99.4156 12.7105 99.2675 12.5405C99.1085 12.354 99.0646 12.1675 99.1414 11.9701C99.1633 11.7836 99.3004 11.5971 99.5473 11.3997L99.8599 11.1035C100.227 10.5002 100.216 9.52943 99.8215 8.17473C99.6131 7.67015 99.5637 7.33011 99.6734 7.14363C99.7941 6.90779 99.9476 6.78713 100.134 6.77616C100.353 6.7268 100.595 6.80907 100.853 7.01749C101.083 7.23687 101.182 7.60982 101.149 8.14183C101.099 8.54769 101.11 9.16196 101.187 9.98465C101.247 10.4618 101.456 10.6647 101.812 10.5934L104.313 10.2095L104.242 5.70118C104.28 5.1966 104.445 4.92237 104.741 4.87301C105.059 4.81268 105.328 4.93883 105.553 5.25693C105.811 5.60246 105.866 5.99735 105.717 6.45257C105.482 7.73048 105.421 10.2698 105.531 14.0707C105.58 15.4802 105.514 16.4126 105.328 16.8678C105.048 17.334 104.642 17.674 104.116 17.8825C103.491 18.0799 102.833 18.1073 102.147 17.9757C101.582 17.8386 101.16 17.6192 100.875 17.3121C100.688 17.142 100.655 16.9994 100.765 16.8898C100.853 16.7691 101.215 16.7526 101.851 16.8514C102.147 16.8898 102.564 16.8075 103.101 16.61C103.54 16.4236 103.875 16.1438 104.094 15.7654C104.28 15.3486 104.368 14.6849 104.368 13.78L104.33 11.5368H104.22V11.5258ZM97.1944 11.2297C97.9183 11.5094 98.3516 11.7671 98.4997 12.003C98.7191 12.3595 98.7794 12.6886 98.6862 12.9957C98.5381 13.2919 98.2858 13.418 97.9293 13.3796C97.4851 13.3303 97.1999 13.056 97.0627 12.5514C96.9147 12.2059 96.6624 11.8384 96.3059 11.449C96.1852 11.301 96.1962 11.1913 96.3443 11.12C96.4814 11.0596 96.7611 11.098 97.1889 11.2297H97.1944ZM94.836 10.4179H94.8195C94.0956 11.8055 92.8835 12.9134 91.1778 13.7471C90.6403 14.0542 90.3496 14.3449 90.3112 14.6136C90.2509 14.9098 90.4099 15.1182 90.7884 15.2389C91.1065 15.3486 91.622 15.2224 92.335 14.855C93.229 14.2791 94.0462 13.4728 94.7811 12.4417C94.6331 15.5351 94.6276 17.2572 94.7647 17.6137C94.8634 17.9099 95.0389 18.0689 95.2967 18.0909C95.5435 18.0689 95.719 17.9428 95.8287 17.7234C96.0865 17.1201 96.1194 14.5643 95.9219 10.0505H97.4521C97.9567 10.0614 98.2913 9.94626 98.4668 9.69945C98.6149 9.46361 98.6149 9.24423 98.4668 9.03582C98.3187 8.83837 97.9896 8.77255 97.4741 8.83289L95.889 8.92612C95.8506 8.49833 95.9 7.88405 96.0371 7.0833V6.67744H96.1468C96.6514 6.76519 97.0737 6.73777 97.4192 6.60614C97.6386 6.50742 97.7209 6.35933 97.6606 6.16189C97.5509 5.94251 96.8379 5.71764 95.5271 5.49825L94.9018 5.33372C94.2875 5.16369 93.7007 5.22951 93.1358 5.53665C92.5983 5.79442 92.3953 6.06317 92.527 6.34837C92.6257 6.60614 92.8999 6.71583 93.3552 6.67744L94.7373 6.60614V6.90231C94.847 7.4398 94.8908 8.12537 94.8634 8.94258C93.6349 8.94258 92.6531 8.8987 91.9182 8.81095C91.4904 8.75062 91.101 8.94258 90.7609 9.38134C90.5032 9.71042 90.4538 10.0066 90.6129 10.2644C90.7993 10.5112 91.1723 10.5441 91.7372 10.3741C92.4502 10.215 93.4868 10.1108 94.847 10.0614V10.4124L94.836 10.4179ZM113.165 5.98638V5.85475L111.641 5.96444C111.405 5.98638 111.301 6.09059 111.328 6.27707L111.399 7.06685C111.41 7.17654 111.641 7.2259 112.08 7.21493H113.165L113.204 7.08879V6.53484L113.165 5.9809V5.98638ZM116.292 5.89314V5.82184H114.378V7.20396L116.275 7.16557C116.237 7.05588 116.259 6.95715 116.33 6.8694V6.39224L116.292 5.89314ZM117.487 6.46354V7.14363L118.979 7.10524C119.396 7.0833 119.621 7.02297 119.659 6.9407C119.72 6.67196 119.731 6.4087 119.698 6.15092C119.659 6.00284 119.511 5.93154 119.253 5.93154L117.526 5.86024L117.487 6.46903V6.46354ZM116.44 15.5734C115.228 15.5734 114.476 15.6064 114.197 15.6667V15.6831C114.235 16.3194 114.301 16.6759 114.4 16.7526C114.46 16.813 114.641 16.8404 114.932 16.8239L117.893 16.7307C118.162 16.7307 118.354 16.6868 118.464 16.6046C118.535 16.4949 118.59 16.1877 118.628 15.6831C118.321 15.5844 117.592 15.546 116.44 15.5734ZM114.142 14.652C114.52 14.7124 115.288 14.7398 116.44 14.7233L118.628 14.6685C118.579 14.1529 118.518 13.8513 118.442 13.769C118.283 13.6593 117.498 13.6209 116.089 13.6593C114.959 13.6813 114.345 13.7526 114.246 13.8623C114.175 13.9226 114.136 14.1858 114.136 14.652H114.142ZM120.104 5.08142C120.411 5.09239 120.657 5.19112 120.838 5.37759C121.074 5.59698 121.151 5.86024 121.08 6.16737C121.008 6.57323 120.877 7.02846 120.696 7.52755C120.597 7.69758 120.455 7.85114 120.274 7.98826C120.054 8.09795 119.725 8.14731 119.297 8.13634C118.475 8.07601 117.328 8.07053 115.858 8.11989L115.985 8.24603C116.072 8.34476 116.078 8.51478 116.001 8.76159V9.03582H116.665C117.279 9.01388 117.679 9.08518 117.86 9.2552C117.981 9.36489 118.008 9.51846 117.932 9.7159C117.844 9.90238 117.608 9.98465 117.213 9.97368H115.963V10.8183H117.526L118.206 10.0285L119.034 8.90419C119.489 8.3283 119.857 8.38863 120.136 9.09066C120.323 9.55685 120.208 9.9298 119.807 10.215L118.738 10.8402L121.349 10.9115H123.449C123.828 10.9006 123.926 11.0541 123.745 11.3723C123.477 11.8165 123.164 12.1949 122.807 12.513C122.5 12.7324 122.133 12.7708 121.705 12.6227C120.762 12.2169 119.857 11.992 119.001 11.9426C117.932 11.8549 116.769 11.8439 115.507 11.9043L115.469 11.9207L115.118 12.2169L114.421 12.7708L115.414 12.716L118.283 12.6776C118.787 12.716 119.182 12.8202 119.478 12.9902C119.687 13.1109 119.791 13.3357 119.791 13.6538L119.752 16.8733C119.714 17.3614 119.55 17.6795 119.253 17.8112C118.946 17.9702 118.628 18.0141 118.299 17.9373L116.423 17.8825C115.529 17.8715 114.849 17.9263 114.383 18.047C113.955 18.1457 113.654 18.1018 113.484 17.9209C113.253 17.7234 113.133 17.3943 113.133 16.9281L113.094 15.749L113.023 14.3668V13.8348L112.233 14.4052C111.054 15.1895 110.012 15.7709 109.107 16.1548C108.679 16.3413 108.339 16.4236 108.092 16.4126C107.813 16.4126 107.582 16.259 107.412 15.9519C107.226 15.6557 107.193 15.4473 107.302 15.3266C107.44 15.1566 107.736 15.014 108.202 14.9043C108.569 14.8166 109.293 14.5533 110.374 14.1145C111.037 13.7855 111.838 13.3248 112.787 12.7324L113.928 11.9426C112.233 12.0304 110.747 12.2333 109.458 12.5514C108.855 12.6721 108.465 12.6063 108.279 12.3485C108.109 12.0523 108.196 11.7452 108.553 11.4271C108.959 11.1309 109.447 10.9609 110.023 10.9115L111.054 10.8732L114.696 10.8183V9.95174H114.4C113.676 9.95174 113.045 10.0011 112.502 10.0998C111.948 10.1985 111.602 10.1108 111.454 9.84205C111.345 9.63364 111.394 9.43619 111.602 9.2552C111.8 9.05775 112.222 8.98097 112.875 9.01388H114.641V8.90419C114.553 8.57511 114.586 8.3283 114.734 8.16925V8.13086H114.46C112.683 8.19119 111.542 8.27346 111.037 8.37218C110.802 8.43251 110.637 8.41057 110.538 8.30088C110.379 8.1528 110.281 7.91696 110.242 7.5824C110.193 7.05588 110.116 6.58969 110.001 6.18383C109.864 5.91508 109.902 5.65182 110.111 5.39405C110.248 5.18563 110.527 5.08142 110.955 5.08142L112.409 5.04303L119.034 5.00464L120.104 5.07594V5.08142Z" fill="black"/>
<path fill-rule="evenodd" clip-rule="evenodd" d="M47.1858 27.908C47.1145 28.2644 47.0761 28.9445 47.0761 29.9482C49.259 29.8989 50.5863 29.8495 51.0525 29.8001H51.1073L51.2006 28.588C51.2609 28.3687 51.2005 28.1877 51.0141 28.056C50.7179 27.8696 49.4455 27.8092 47.1858 27.8696V27.908ZM45.7708 27.9463V27.875C43.3686 27.875 42.0961 28.0067 41.959 28.259C41.8603 28.3467 41.8329 28.8678 41.8658 29.8221C42.5897 29.9208 43.928 29.9647 45.875 29.9482L45.7818 27.9409H45.7653L45.7708 27.9463ZM47.1858 33.3541L49.6155 33.4254C50.1311 33.4364 50.4382 33.42 50.5369 33.3706C50.6247 33.2993 50.7015 33.1841 50.7782 33.0415L50.9976 31.2206C50.8386 31.0726 49.5387 31.0122 47.0981 31.0342C47.0871 32.2463 47.1145 32.9977 47.1913 33.2774V33.3487L47.1858 33.3541ZM45.8092 33.1348C45.8695 32.8386 45.9024 32.1475 45.9024 31.0561C43.8677 31.0561 42.5459 31.111 41.948 31.2206C42.0577 32.5699 42.2223 33.3103 42.4471 33.4474C42.5184 33.4967 42.7543 33.5132 43.1437 33.5022L45.7763 33.3925L45.8147 33.1348H45.8092ZM43.5221 26.8385C46.8458 26.6904 49.0835 26.6849 50.2407 26.822C51.579 26.8823 52.4291 27.1675 52.7966 27.6666C52.9172 27.8641 52.8788 28.1548 52.6704 28.5496C52.2426 29.9866 51.9739 31.5881 51.8587 33.3541C51.7106 34.0178 51.4419 34.4456 51.047 34.643C50.7782 34.7801 50.4437 34.8021 50.0543 34.7143C49.0122 34.4182 47.7014 34.2865 46.1163 34.3085C44.3722 34.3469 43.1601 34.5059 42.4746 34.7856C42.1674 34.9337 41.9206 34.9282 41.7396 34.7692C41.5093 34.5717 41.3228 34.2152 41.1857 33.6997C40.8566 30.6228 40.6043 28.8074 40.4288 28.2535C40.2423 27.875 40.2259 27.5789 40.374 27.3705C40.544 27.0907 40.9389 26.9427 41.5532 26.9262L43.5221 26.833V26.8385ZM48.8257 24.4088C48.4308 24.3375 48.0195 24.343 47.5917 24.4252C47.3229 24.4965 47.1474 24.4307 47.0761 24.2223C46.939 23.992 46.9829 23.7671 47.2023 23.5587C47.3613 23.3009 47.6246 23.2077 47.9921 23.2844L48.8038 23.3228H48.9299L48.9848 22.6811C48.9354 22.3137 49.089 22.0723 49.4455 21.9627C49.7252 21.8255 50.0159 21.8968 50.312 22.1656C50.5205 22.4124 50.5589 22.6537 50.4217 22.9005L50.2188 23.3612C51.2883 23.3722 52.4456 23.4545 53.696 23.6025C54.0032 23.6025 54.0635 23.7561 53.8825 24.0633L53.7564 24.3046C53.1421 25.1382 52.4565 25.3741 51.6942 25.0066C50.6521 24.5898 50.0378 24.4252 49.8513 24.5075C49.6045 25.3686 49.4071 25.8567 49.2645 25.9774C49.067 26.098 48.9135 26.0596 48.8038 25.8512C48.7435 25.6922 48.7489 25.215 48.8202 24.4143L48.8257 24.4088ZM42.7323 24.6666C41.2954 24.8146 40.3301 24.9627 39.8255 25.1108C39.3483 25.2315 39.0028 25.1821 38.7944 24.9627C38.597 24.7159 38.6683 24.4856 38.9973 24.2662C39.7707 23.6135 40.4288 23.3228 40.9663 23.3832L42.5294 23.4929L42.3429 22.9938C42.1729 22.6976 42.1949 22.4563 42.4142 22.2588C42.7598 21.9901 43.1821 21.9791 43.6867 22.2204C43.9444 22.3795 44.0377 22.5989 43.9609 22.8841L43.8896 23.4929L44.992 23.4545C45.4582 23.4435 45.7269 23.5916 45.8037 23.8987C45.8256 24.1455 45.6556 24.2826 45.2882 24.321L43.8512 24.524C43.8512 25.3576 43.7634 25.8622 43.5934 26.0322C43.396 26.1693 43.226 26.1364 43.0779 25.939C42.842 25.6318 42.7269 25.2095 42.7269 24.6666H42.7323ZM64.0784 30.8532V32.7673C64.1003 33.4035 64.0784 33.9191 64.0071 34.314C63.9193 34.6814 63.7877 34.8953 63.6012 34.9557C63.4147 35.016 63.2557 34.9557 63.1241 34.7692C62.9869 34.5717 62.9211 33.2006 62.9211 30.6448L62.8279 30.738C60.826 32.5644 58.9448 33.5955 57.1788 33.8313C56.6138 33.8916 56.1915 33.7984 55.9063 33.5571C55.5498 33.228 55.4401 32.9483 55.5773 32.7289C55.676 32.4986 56.1038 32.3779 56.8661 32.3779C59.038 32.1091 60.8644 31.259 62.3507 29.8385C61.8352 29.7782 60.7218 29.844 58.9996 30.0415C58.4951 30.0799 58.1879 29.9866 58.0782 29.7672C57.9685 29.5204 58.0398 29.2517 58.2976 28.9555C58.4567 28.7581 58.6651 28.6264 58.9229 28.5496L62.9156 28.6758L63.0253 28.1438C63.0966 27.875 63.2283 27.716 63.4092 27.6666C63.6067 27.6173 63.7712 27.6776 63.9083 27.8531C64.018 28.0231 64.0948 28.3028 64.1277 28.6813L67.3856 28.6264C67.753 28.6045 68.0492 28.6758 68.2686 28.8458C68.4386 29.0049 68.477 29.2078 68.3783 29.4546C68.1699 29.7124 67.8298 29.833 67.3636 29.8221H64.38C64.8352 30.1895 65.3837 30.546 66.0364 30.8916C68.1479 32.0104 69.8482 32.5863 71.1316 32.6192C71.8775 32.6686 72.053 32.888 71.6471 33.2829C71.4387 33.4693 70.9177 33.7381 70.084 34.0946C69.4588 34.3414 68.8938 34.2481 68.3893 33.8203C66.2064 32.1421 64.7694 31.1493 64.0839 30.8587H64.0674L64.0784 30.8532ZM61.5774 26.3613V24.9627C60.5957 24.9847 60.0362 25.0669 59.9046 25.204L59.943 25.939C59.954 26.2077 59.9923 26.3558 60.0527 26.3832C60.1404 26.471 60.634 26.5149 61.5445 26.5149L61.5829 26.3668L61.5774 26.3613ZM65.274 24.9079V26.4326H66.0638C66.541 26.4326 66.87 26.3723 67.04 26.2461C67.1004 26.1748 67.1333 25.9554 67.1333 25.6044C67.1113 25.3247 67.0784 25.1602 67.04 25.1273C66.8536 24.9901 66.2612 24.9188 65.2576 24.9079H65.274ZM64.1552 24.8914C63.4696 24.8421 62.976 24.8475 62.6853 24.9079L62.7566 26.471L64.1003 26.4326V26.3394L64.1552 24.8859V24.8914ZM64.1168 23.1583V23.087L62.7182 23.1254L62.6633 24.0468H64.1716L64.1332 23.1638H64.1168V23.1583ZM65.274 24.0249C65.274 23.63 65.3069 23.3228 65.3672 23.1034C65.9047 23.0815 66.4258 23.1034 66.9304 23.1747C67.3582 23.2241 67.6653 23.1309 67.8518 22.9005C67.9615 22.7031 67.9669 22.5001 67.8682 22.2917C67.7311 22.1217 67.4349 22.0449 66.9688 22.0723C64.0619 22.1711 61.8571 22.1162 60.3598 21.9078C59.9649 21.8475 59.6029 22.012 59.2739 22.4069C59.0271 22.714 58.9777 22.9828 59.1258 23.2186C59.2629 23.449 59.5975 23.4983 60.1404 23.3667C60.5079 23.268 60.9631 23.2077 61.5006 23.1802L61.5555 24.1016L59.6249 24.14C59.3068 24.14 59.0709 24.2059 58.9229 24.343C58.6651 24.5514 58.6157 25.2808 58.7748 26.5313V26.5697C58.7748 27.0853 58.9283 27.4418 59.2355 27.6392C59.4055 27.7599 59.7949 27.7599 60.3927 27.6392C61.177 27.4692 62.2739 27.3924 63.689 27.4198C65.3453 27.4198 66.349 27.4527 66.7055 27.5131C67.243 27.6008 67.6763 27.5185 67.9944 27.2717C68.2521 27.0524 68.3783 26.6136 68.3783 25.9664L68.5044 25.396C68.5428 24.9298 68.4331 24.5843 68.1754 24.3649C67.8189 24.1071 66.8481 23.9974 65.2685 24.0358L65.274 24.0249ZM81.8759 24.2826C81.47 24.4417 81.1848 24.4691 81.0093 24.3539C80.7735 24.2059 80.6802 24.0249 80.7131 23.8C80.7625 23.5532 80.8777 23.4161 81.0641 23.3777C81.2726 23.3283 81.6839 23.1254 82.2982 22.7689C82.6656 22.5111 82.907 22.3027 83.0167 22.1436C83.1647 21.6775 83.3403 21.4581 83.5487 21.48C83.7571 21.48 83.9545 21.7049 84.1355 22.1601C84.2233 22.3685 84.4317 22.5276 84.7608 22.6373C85.7809 22.9554 86.5597 23.1473 87.0972 23.2077C87.5415 23.246 87.6511 23.4599 87.4263 23.8494C87.2672 24.1291 87.0424 24.321 86.7462 24.4198C86.3513 24.5404 86.0496 24.5404 85.8248 24.4198C85.556 24.3101 85.2708 24.1181 84.9801 23.8494C84.7224 23.6519 84.4317 23.4764 84.1136 23.3173C83.8942 23.087 83.6419 23.0925 83.3567 23.3338C82.7699 23.789 82.2708 24.1016 81.8649 24.2717L81.8759 24.2826ZM83.1812 24.0962C83.1099 24.2936 83.1318 24.4691 83.2525 24.6282L83.5487 25.237C83.6584 25.5057 83.8064 25.6209 83.9929 25.588C84.1026 25.566 84.1849 25.3686 84.2342 25.0011L84.3604 24.502C84.4317 24.343 84.4262 24.2004 84.3439 24.0797C84.1739 23.8219 83.9655 23.7068 83.7187 23.7287C83.439 23.7397 83.258 23.8658 83.1867 24.0962H83.1812ZM77.033 24.0084C77.0823 23.7781 77.2469 23.6409 77.5321 23.6025C77.7679 23.5422 77.9873 23.6245 78.1957 23.8603C78.2835 24.0084 78.3054 24.1729 78.267 24.3594C78.1793 24.5459 78.1573 24.7269 78.1957 24.9134C78.1847 25.2699 78.1299 25.4783 78.0312 25.5386C77.8228 25.588 77.6637 25.4838 77.554 25.226L77.1701 24.5843C77.011 24.4362 76.9672 24.2442 77.0439 24.0139L77.033 24.0084ZM75.4699 24.4088C75.9361 24.1126 76.4571 23.7013 77.033 23.1747C77.2798 22.9279 78.0586 23.0157 79.3694 23.4325C79.7972 23.5696 80.0769 23.5038 80.1976 23.246C80.2689 23.0596 80.1976 22.8786 79.9782 22.6921C79.7588 22.5221 79.4023 22.3795 78.9087 22.2698C78.4809 22.1711 78.1025 22.023 77.7844 21.8255C77.5979 21.6555 77.4553 21.5678 77.3401 21.5678C77.1701 21.5458 77.0165 21.6665 76.8794 21.9352C76.6216 22.2643 76.2377 22.5605 75.7222 22.8183C75.256 23.0267 74.9379 23.1364 74.7678 23.1473C74.373 23.1857 74.1042 23.3064 73.9561 23.5148C73.808 23.7013 73.8355 23.9261 74.0274 24.1949C74.2358 24.4527 74.4388 24.6117 74.6362 24.672C74.7843 24.7104 75.0585 24.6172 75.4644 24.3978L75.4699 24.4088ZM78.3219 29.3614C78.2999 29.5808 78.3219 29.7124 78.3932 29.7453C78.4809 29.833 79.2762 29.8879 80.7844 29.9098C82.0623 29.9318 82.7918 29.8714 82.9728 29.7234L83.0441 29.3723C83.0551 29.153 83.0441 29.0268 83.0057 29.0049C82.8357 28.8348 82.1227 28.7416 80.8722 28.7306C79.4023 28.7087 78.5741 28.78 78.3877 28.95C78.3383 28.9884 78.3164 29.12 78.3164 29.3559L78.3219 29.3614ZM80.6254 32.5644C79.3365 32.6028 78.618 32.685 78.4699 32.8221C78.3986 32.8441 78.3602 32.9812 78.3602 33.228C78.3493 33.4967 78.3767 33.6558 78.4535 33.7052C78.6235 33.8532 79.0129 33.9081 79.6107 33.8697C80.6638 33.7984 81.5578 33.771 82.2817 33.7984C82.8466 33.8203 83.1648 33.7984 83.236 33.7271C83.2854 33.6668 83.3073 33.4693 83.3073 33.1403C83.2964 32.9318 83.2525 32.8002 83.1812 32.7563C82.9838 32.6082 82.1336 32.5479 80.6254 32.5699V32.5644ZM78.4315 35.1202C77.8776 35.2189 77.5101 35.1586 77.3291 34.9337C77.1317 34.6759 77.0878 34.0726 77.203 33.1293L77.1098 28.95C77.0878 28.5551 77.1591 28.2699 77.3291 28.0835C77.4388 27.9463 77.6253 27.8805 77.8831 27.8805L79.8685 27.9189C82.5066 27.9189 83.9655 28.0615 84.2507 28.3412C84.4207 28.5387 84.4701 28.7581 84.3988 29.0049L84.3055 29.7234C84.2342 30.4967 83.8229 30.8751 83.0715 30.8641C80.2853 30.7051 78.7003 30.7709 78.3054 31.0671L78.267 31.3084C78.278 31.5662 78.7332 31.6923 79.6272 31.6923C82.353 31.643 83.8887 31.7252 84.2452 31.9336C84.492 32.0927 84.5962 32.3998 84.5578 32.8551C84.4701 33.8094 84.3439 34.3907 84.1739 34.5827C83.8558 34.8405 83.3512 34.9282 82.6656 34.8405C81.0367 34.654 79.6217 34.7472 78.4315 35.1147V35.1202ZM79.6107 25.8457C79.4736 25.566 79.4736 25.3412 79.6107 25.1821C79.7479 25.0231 79.9398 24.9408 80.1976 24.9408C80.4663 24.9518 80.6747 25.034 80.8228 25.1821C80.8941 25.2808 80.8941 25.5057 80.8228 25.8622V25.9335C82.4298 25.9116 83.7735 25.9225 84.854 25.9719C85.567 25.9609 86.1703 26.0926 86.6749 26.3778C87.0424 26.5862 87.2946 26.811 87.4318 27.0578C87.5195 27.2772 87.5579 27.5295 87.5579 27.8147L87.6292 28.4235C87.8267 28.9994 87.7937 29.4765 87.536 29.8605C87.3879 30.0305 87.2672 30.1292 87.1685 30.1566C86.7626 30.195 86.4939 29.6191 86.3568 28.429C86.2581 27.8037 86.1155 27.4363 85.9345 27.3266C85.6767 27.1401 85.0076 27.0249 83.9271 26.9756C82.9563 26.9043 81.6071 26.8768 79.8795 26.9043C77.2798 26.9646 75.7276 27.1017 75.2231 27.3101C74.8282 27.4308 74.6362 27.9957 74.6362 29.0049C74.6472 29.5314 74.5649 29.8879 74.3784 30.0744C74.2194 30.2115 74.0494 30.2718 73.8629 30.2608C73.6545 30.2224 73.5009 30.1128 73.4022 29.9318C73.3035 29.7617 73.276 29.4162 73.3089 28.9007L73.5667 27.908C73.6764 27.1456 73.8245 26.6739 74.011 26.4929C74.2687 26.2132 74.8611 26.0487 75.7935 26.0158C76.9233 25.9664 78.2067 25.95 79.6382 25.9609L79.5998 25.8677L79.6107 25.8457ZM100.589 24.9079L102.745 24.8366L102.838 24.1346C102.887 23.9152 102.827 23.7506 102.652 23.6355C102.333 23.4654 101.686 23.4161 100.721 23.4874V23.6519L100.595 24.9024L100.589 24.9079ZM99.3004 23.6903V23.5038C98.0225 23.5258 97.3479 23.619 97.2766 23.7781C97.1559 23.8987 97.1285 24.2442 97.2053 24.8092H97.4247C97.7702 24.8695 98.4229 24.9024 99.3937 24.9024L99.3223 23.6903H99.3059H99.3004ZM100.518 27.2992H101.385C101.851 27.3101 102.13 27.2937 102.229 27.2443C102.328 27.1346 102.449 26.7178 102.597 25.9938C102.279 25.9225 101.598 25.8951 100.556 25.9225L100.518 27.3046V27.2992ZM99.432 27.2992V25.939C98.1925 25.939 97.485 25.9719 97.315 26.0322C97.4137 26.7781 97.5453 27.2114 97.7208 27.3211C97.7921 27.3595 98.0115 27.3705 98.3625 27.3595L99.4485 27.3046H99.432V27.2992ZM100.611 32.8551L105.893 33.0031C106.271 32.9922 106.37 33.1512 106.189 33.4803C105.893 33.9081 105.58 34.2591 105.251 34.5279C104.944 34.7747 104.593 34.8021 104.204 34.6211C103.518 34.3414 102.849 34.1714 102.196 34.122C99.6185 33.8752 97.2931 33.9794 95.2199 34.4346C94.6166 34.5553 94.2436 34.4949 94.0955 34.2481C93.9091 33.952 94.0023 33.6613 94.3698 33.3651C94.7647 33.058 95.4777 32.888 96.5252 32.8496H99.1743L99.2127 32.7015L99.3772 30.8587C98.6039 30.8587 97.9457 30.908 97.4082 31.0067C96.7446 31.1274 96.3387 31.0397 96.1961 30.7325C96.059 30.4857 96.1139 30.2554 96.3607 30.0305C96.6294 29.7837 97.6441 29.7014 99.3991 29.7727L99.4375 28.2644C98.6532 28.2864 98.0938 28.3741 97.7647 28.5222C97.496 28.6703 97.2656 28.6648 97.0846 28.5058C96.8762 28.3357 96.7062 28.0067 96.5691 27.5295C96.251 25.4344 96.0206 24.1949 95.889 23.811C95.7025 23.4435 95.6861 23.1583 95.8341 22.9663C96.1139 22.5605 98.017 22.3959 101.538 22.4672C103.085 22.4892 104.006 22.7579 104.297 23.257C104.407 23.4545 104.368 23.7232 104.187 24.0687C103.842 24.9024 103.6 25.9829 103.452 27.3101C103.282 27.897 103.035 28.259 102.717 28.3961C102.449 28.5332 102.136 28.5551 101.779 28.4674C101.434 28.3467 101.012 28.2754 100.507 28.2644V29.7727C102.333 29.7727 103.343 29.855 103.524 30.014C103.644 30.1347 103.677 30.3157 103.617 30.546C103.518 30.7654 103.238 30.8751 102.772 30.8751L100.529 30.8367L100.622 32.8441L100.611 32.8551ZM94.5343 30.8532H93.4319C93.3606 30.5076 93.3332 29.7069 93.3606 28.44H94.2052C94.6714 28.44 94.9511 28.3357 95.0499 28.1273C95.1212 27.8805 95.0937 27.6995 94.9566 27.5734C94.7701 27.4143 94.2327 27.3321 93.3387 27.3321C93.3387 26.3284 93.3771 25.6264 93.4484 25.2315H94.293C94.7208 25.2808 95.0279 25.1986 95.2144 24.9901C95.3515 24.7817 95.357 24.5788 95.2309 24.3814C95.1321 24.2113 94.4849 24.1236 93.2783 24.1236C92.3843 24.0852 91.6823 24.0194 91.1832 23.9207C90.7883 23.8603 90.4263 24.0249 90.0973 24.4198C89.8505 24.7159 89.7956 24.9792 89.9327 25.2095C90.0808 25.4289 90.4373 25.4783 91.0022 25.3576C91.5781 25.2479 91.9401 25.2095 92.0882 25.2479V25.3028C92.1485 25.6099 92.1869 26.2845 92.1979 27.3266C91.1942 27.2169 90.5415 27.3046 90.2454 27.5844C89.9876 27.8037 89.9327 28.0396 90.0808 28.2809C90.2289 28.588 90.6348 28.6813 91.2929 28.5551L92.2143 28.4838C92.2143 29.7947 92.1704 30.6064 92.0882 30.9135C91.2161 30.9135 90.536 31.1164 90.0479 31.5223C89.5817 31.9172 89.4446 32.2408 89.642 32.4986C89.8121 32.7344 90.1192 32.7892 90.5635 32.6631C92.0333 32.2079 93.1138 31.9556 93.8049 31.9062C94.3423 31.8678 94.7811 31.7417 95.1102 31.5223C95.2802 31.3632 95.3186 31.1932 95.2199 31.0067C95.1486 30.8971 94.9182 30.8422 94.5398 30.8422L94.5343 30.8532ZM116.895 30.3541C116.857 29.7892 116.928 29.4436 117.098 29.323C117.235 29.1639 117.498 29.1694 117.888 29.3394C118.107 29.4601 118.414 29.4711 118.809 29.3559C119.028 29.2188 119.242 29.2188 119.451 29.3559C119.637 29.4765 119.763 29.6575 119.835 29.8879C119.922 30.1457 119.89 30.4254 119.741 30.7325L119.687 31.0287C119.637 31.4455 119.67 31.7033 119.78 31.802C120.158 32.1585 120.965 32.1585 122.193 31.802C122.363 31.7033 122.489 31.6923 122.561 31.7636C122.621 31.813 122.599 31.972 122.489 32.2408C122.33 32.5863 122.105 32.8551 121.809 33.0525L121.551 33.1786C120.57 33.409 119.774 33.1677 119.16 32.4437C118.941 32.2463 118.793 31.5771 118.716 30.4363C118.694 30.2992 118.661 30.2279 118.623 30.217C118.573 30.1566 118.458 30.1347 118.272 30.1621C117.904 30.1841 117.74 30.3376 117.773 30.6228C117.794 31.3962 117.679 31.9227 117.421 32.2079C117.114 32.6028 116.851 32.7947 116.632 32.7947C116.385 32.7947 116.209 32.7125 116.1 32.5534C115.979 32.356 115.974 32.175 116.083 31.9995L116.341 31.813L116.692 31.5717C116.829 31.3852 116.895 30.9793 116.895 30.3376V30.3541ZM113.511 31.8459C113.78 31.4894 114.021 31.0835 114.229 30.6338C114.317 30.4034 114.323 30.2389 114.246 30.1566C114.175 30.036 114.016 29.9702 113.769 29.9702C113.303 30.0305 112.782 30.4583 112.206 31.259L113.511 31.8459ZM114.027 32.9702C114.284 32.9702 116.297 33.8313 120.065 35.548C120.888 36.0142 121.897 35.6632 123.104 34.5004L123.175 34.4072C123.493 33.941 123.279 33.7545 122.533 33.8532C120.597 34.0013 117.937 33.4693 114.564 32.2517C114.921 31.6375 115.162 31.1603 115.283 30.8148L115.431 30.3157C115.601 30.0963 115.628 29.8714 115.502 29.6521C115.315 29.3943 114.849 29.2462 114.103 29.2078L113.111 28.9336C112.814 28.7965 112.595 28.8732 112.447 29.153C112.052 29.9482 111.246 30.8038 110.017 31.7088C109.721 31.9062 109.661 32.1311 109.831 32.3889C109.941 32.5753 110.149 32.6686 110.456 32.685C110.714 32.685 110.983 32.5644 111.268 32.3176C111.772 32.3176 112.293 32.3998 112.831 32.5589C112.178 33.1128 111.399 33.6119 110.494 34.0671C110.138 34.2262 110.039 34.4511 110.198 34.7472C110.308 35.016 110.505 35.1805 110.785 35.2463C111.142 35.356 111.52 35.2628 111.926 34.9721C112.82 34.2262 113.522 33.5571 114.021 32.9647L114.027 32.9702ZM113.067 27.003C112.48 27.1237 112.112 27.0414 111.964 26.7452C111.844 26.5258 111.893 26.3174 112.112 26.12C112.409 25.8512 113.039 25.7635 114.01 25.8622C113.988 25.385 114.076 25.0889 114.284 24.9792C114.515 24.8311 114.756 24.8256 115.003 24.9627C115.25 25.1108 115.315 25.3631 115.206 25.7196L115.167 25.8293C116.911 25.7086 117.904 25.747 118.151 25.9554C118.272 26.0926 118.299 26.2626 118.222 26.471C118.151 26.6575 117.899 26.7452 117.465 26.7452L115.052 26.8001L115.145 27.2059C115.304 27.4747 115.738 27.6502 116.451 27.7215C116.895 27.7324 117.422 27.6995 118.036 27.6118C118.573 27.524 118.919 27.6447 119.067 27.9628C119.166 28.2425 119.028 28.4893 118.661 28.6977C118.502 28.7855 117.751 28.8074 116.418 28.769C115.546 28.7306 114.931 28.5387 114.575 28.1822C114.367 27.9628 114.208 27.5185 114.098 26.8549L113.067 27.003ZM114.191 23.7835H111.339C110.615 23.7122 110.138 23.7506 109.902 23.9097C109.573 24.0962 109.458 24.8037 109.573 26.0432C109.683 27.3046 109.694 28.1493 109.611 28.5661C109.502 29.0104 109.282 29.4875 108.948 30.0031C108.63 30.3705 108.07 30.8477 107.275 31.44C106.809 31.7856 106.595 32.1366 106.633 32.5095C106.633 32.8057 106.792 32.9702 107.11 33.0086C107.478 33.047 107.878 32.8989 108.306 32.5644C109.853 31.3852 110.675 29.6959 110.774 27.4856C110.703 26.0158 110.818 25.2479 111.125 25.1876C111.701 24.9079 113.264 24.7379 115.82 24.6885C117.833 24.6282 119.116 24.6995 119.665 24.9079C120.06 25.0285 120.257 25.2808 120.273 25.6648C120.175 26.3503 120.18 26.7507 120.29 26.8604C120.476 26.9811 120.668 26.9701 120.877 26.822C121.124 26.6246 121.299 26.3503 121.409 25.9938L121.65 25.385C121.859 25.0066 121.787 24.6501 121.431 24.3155C120.778 23.811 118.738 23.6245 115.304 23.7451V23.2296C116.127 23.0815 116.95 23.0925 117.773 23.268C118.052 23.3393 118.305 23.3064 118.529 23.1583C118.667 23.0212 118.771 22.8621 118.842 22.6811C118.88 22.5111 118.837 22.385 118.716 22.3137L115.496 22.2424L115.387 22.2808L115.315 22.0778C115.167 21.9297 114.964 21.8584 114.707 21.8584C114.449 21.8365 114.257 21.9078 114.136 22.0778C113.999 22.2259 113.994 22.4343 114.12 22.7031C114.191 23.0596 114.224 23.4216 114.213 23.789L114.191 23.7835Z" fill="black"/>
<defs>
<linearGradient id="paint0_linear_143_4131" x1="21.0134" y1="7.7961" x2="19.4009" y2="33.9796" gradientUnits="userSpaceOnUse">
<stop stop-color="#F5A200"/>
<stop offset="0.07" stop-color="#F5A200"/>
<stop offset="0.54" stop-color="#00AA3A"/>
<stop offset="1" stop-color="#00683B"/>
</linearGradient>
<linearGradient id="paint1_linear_143_4131" x1="20.1412" y1="7.74147" x2="18.5342" y2="33.9304" gradientUnits="userSpaceOnUse">
<stop stop-color="#F5A200"/>
<stop offset="0.07" stop-color="#F5A200"/>
<stop offset="0.54" stop-color="#00AA3A"/>
<stop offset="1" stop-color="#00683B"/>
</linearGradient>
<linearGradient id="paint2_linear_143_4131" x1="23.3226" y1="7.93913" x2="21.7101" y2="34.1226" gradientUnits="userSpaceOnUse">
<stop stop-color="#F5A200"/>
<stop offset="0.07" stop-color="#F5A200"/>
<stop offset="0.54" stop-color="#00AA3A"/>
<stop offset="1" stop-color="#00683B"/>
</linearGradient>
<linearGradient id="paint3_linear_143_4131" x1="20.5473" y1="7.76865" x2="18.9349" y2="33.9521" gradientUnits="userSpaceOnUse">
<stop stop-color="#F5A200"/>
<stop offset="0.07" stop-color="#F5A200"/>
<stop offset="0.54" stop-color="#00AA3A"/>
<stop offset="1" stop-color="#00683B"/>
</linearGradient>
</defs>
</svg>
