<svg width="1440" height="900" viewBox="0 0 1440 900" fill="none" xmlns="http://www.w3.org/2000/svg">
<g clip-path="url(#clip0_119_5305)">
<rect width="1440" height="900" fill="#F8FBFC"/>
<g filter="url(#filter0_f_119_5305)">
<circle cx="225.5" cy="636.5" r="280.5" fill="url(#paint0_linear_119_5305)" fill-opacity="0.19"/>
</g>
<g filter="url(#filter1_f_119_5305)">
<circle cx="439" cy="430" r="182" fill="url(#paint1_linear_119_5305)" fill-opacity="0.3"/>
</g>
<g filter="url(#filter2_f_119_5305)">
<circle cx="390" cy="632" r="143" fill="url(#paint2_radial_119_5305)" fill-opacity="0.28"/>
</g>
<g filter="url(#filter3_f_119_5305)">
<circle cx="1071" cy="157" r="107" fill="url(#paint3_linear_119_5305)" fill-opacity="0.25"/>
</g>
<g style="mix-blend-mode:multiply" opacity="0.44">
<path d="M-347.036 626.072C-276.767 957.093 243.113 724.271 486.854 864.12C732.618 1005.13 718.342 841.794 965.04 814.531C1280.45 779.664 1323.99 910.573 1403.27 1058.16" stroke="#BDD3EE" stroke-width="0.19" stroke-miterlimit="10"/>
<path d="M-347.036 628.562C-274.165 958.249 241.134 724.604 484.208 863.097C728.459 1002.61 714.428 843.951 959.591 817.778C1274.33 784.978 1321.32 903.702 1403.71 1053.09" stroke="#BBD2ED" stroke-width="0.19" stroke-miterlimit="10"/>
<path d="M-347.036 631.076C-271.586 959.429 239.133 724.983 481.561 862.119C724.323 1000.14 710.47 845.508 954.121 821.047C1268.09 789.515 1318.65 896.854 1404.15 1048.04" stroke="#B8D0ED" stroke-width="0.19" stroke-miterlimit="10"/>
<path d="M-347.036 633.566C-268.984 960.585 237.132 725.339 478.937 861.118C720.187 997.632 706.556 847.376 948.695 824.316C1261.95 794.474 1316.01 890.004 1404.64 1043" stroke="#B6CFEC" stroke-width="0.19" stroke-miterlimit="10"/>
<path d="M-347.036 636.079C-266.405 961.763 235.441 725.183 476.291 860.14C716.34 994.652 702.642 849.288 943.247 827.585C1255.79 799.41 1313.36 883.177 1405.11 1037.95" stroke="#B4CEEB" stroke-width="0.19" stroke-miterlimit="10"/>
<path d="M-347.036 638.569C-263.803 962.919 233.507 725.405 473.645 859.139C712.249 992.027 698.706 851.156 937.777 830.853C1249.61 804.369 1310.67 876.328 1405.53 1032.9" stroke="#B1CDEB" stroke-width="0.19" stroke-miterlimit="10"/>
<path d="M-347.036 641.082C-261.223 964.098 231.572 725.65 470.999 858.16C708.179 989.426 694.793 853.068 932.329 834.122C1243.47 809.328 1308.02 869.479 1406 1027.85" stroke="#AFCBEA" stroke-width="0.19" stroke-miterlimit="10"/>
<path d="M-347.036 643.573C-258.622 965.255 229.66 725.873 468.375 857.138C704.11 986.78 690.901 854.937 926.881 837.369C1237.33 814.265 1305.36 862.608 1406.47 1022.78" stroke="#ADCAE9" stroke-width="0.19" stroke-miterlimit="10"/>
<path d="M-347.036 646.086C-256.042 966.433 227.725 726.117 465.728 856.159C703.732 986.202 686.987 856.849 921.433 840.66C1231.19 819.246 1302.71 855.804 1406.93 1017.76" stroke="#AAC9E8" stroke-width="0.19" stroke-miterlimit="10"/>
<path d="M-347.036 648.576C-253.44 967.589 225.791 726.339 463.082 855.158C695.949 981.576 683.074 858.761 915.984 843.907C1225.06 824.205 1300.04 848.932 1407.38 1012.69" stroke="#A8C7E8" stroke-width="0.19" stroke-miterlimit="10"/>
<path d="M-347.036 651.066C-250.861 968.745 223.856 726.561 460.436 854.158C691.857 978.952 679.182 860.673 910.514 847.175C1218.9 829.185 1297.37 842.083 1407.82 1007.64" stroke="#A6C6E7" stroke-width="0.19" stroke-miterlimit="10"/>
<path d="M-347.036 653.579C-248.259 969.924 221.921 726.828 457.812 853.179C687.788 976.372 675.291 862.608 905.089 850.444C1212.81 834.166 1294.73 835.234 1408.31 1002.59" stroke="#A3C5E6" stroke-width="0.19" stroke-miterlimit="10"/>
<path d="M-347.036 656.07C-245.657 971.081 219.987 727.051 455.166 852.179C683.696 973.749 671.399 864.521 899.64 853.713C1206.67 839.17 1292.08 828.385 1408.78 997.543" stroke="#A1C4E6" stroke-width="0.19" stroke-miterlimit="10"/>
<path d="M-347.036 658.583C-243.078 972.259 218.052 727.296 452.52 851.178C679.605 971.147 667.485 866.455 894.17 856.96C1200.53 844.129 1289.39 821.536 1409.2 992.472" stroke="#9FC2E5" stroke-width="0.19" stroke-miterlimit="10"/>
<path d="M-347.036 661.073C-240.476 973.415 216.095 727.54 449.874 850.177C675.513 968.545 663.594 868.389 888.722 860.228C1194.41 849.132 1286.74 814.687 1409.67 987.424" stroke="#9CC1E4" stroke-width="0.19" stroke-miterlimit="10"/>
<path d="M-347.036 663.586C-237.897 974.594 214.161 727.807 447.25 849.199C671.444 965.966 659.725 870.368 883.274 863.519C1188.32 854.158 1284.07 807.86 1410.14 982.399" stroke="#9AC0E4" stroke-width="0.19" stroke-miterlimit="10"/>
<path d="M-347.036 666.077C-235.295 975.75 212.204 728.03 444.603 848.199C667.33 963.364 655.833 872.326 877.826 866.767C1182.21 859.162 1281.43 800.989 1410.6 977.329" stroke="#98BEE3" stroke-width="0.19" stroke-miterlimit="10"/>
<path d="M-347.036 668.567C-232.715 976.929 210.269 728.274 441.957 847.198C663.238 960.762 651.964 865.477 872.378 870.035C1176.11 876.306 1278.76 794.14 1411.05 972.259" stroke="#95BDE2" stroke-width="0.19" stroke-miterlimit="10"/>
<path d="M-347.036 671.08C-230.114 978.107 208.312 728.541 439.333 846.219C659.146 958.205 648.161 867.078 866.93 873.304C1169.93 881.932 1276.11 787.313 1411.52 967.211" stroke="#93BCE2" stroke-width="0.19" stroke-miterlimit="10"/>
<path d="M-347.036 673.57C-227.534 979.263 206.378 728.763 436.687 845.196C655.033 955.581 644.337 868.656 861.481 876.55C1163.75 887.535 1273.45 780.442 1411.98 962.141" stroke="#91BBE1" stroke-width="0.19" stroke-miterlimit="10"/>
<path d="M-347.036 676.083C-224.932 980.442 204.421 729.029 434.041 844.217C650.941 953.023 640.534 870.302 856.033 879.819C1157.55 893.161 1270.8 773.593 1412.45 957.093" stroke="#8EB9E0" stroke-width="0.19" stroke-miterlimit="10"/>
<path d="M-347.036 678.574C-222.331 981.599 202.464 729.275 431.394 843.217C646.827 950.422 636.731 871.948 850.563 883.089C1151.34 898.766 1268.11 766.744 1412.87 952.046" stroke="#8CB8DF" stroke-width="0.19" stroke-miterlimit="10"/>
<path d="M-347.036 681.087C-219.751 982.777 200.507 729.564 428.77 842.239C642.735 947.865 632.973 873.638 845.137 886.357C1145.16 904.369 1265.48 759.917 1413.36 946.998" stroke="#8AB7DF" stroke-width="0.19" stroke-miterlimit="10"/>
<path d="M-347.036 683.577C-217.149 983.933 198.55 729.808 426.124 841.238C638.622 945.285 629.171 875.327 839.667 889.626C1138.93 909.973 1262.79 753.068 1413.81 941.95" stroke="#87B5DE" stroke-width="0.19" stroke-miterlimit="10"/>
<path d="M-347.036 686.09C-214.57 985.112 196.593 730.075 423.478 840.237C634.508 942.706 625.391 877.039 834.219 892.895C1132.73 915.554 1260.15 746.219 1414.27 936.902" stroke="#85B4DD" stroke-width="0.19" stroke-miterlimit="10"/>
<path d="M-347.036 688.581C-211.968 986.269 194.637 730.32 420.832 839.237C630.372 940.127 620.988 890.271 828.771 896.142C1127.44 904.592 1257.48 739.348 1414.72 931.832" stroke="#83B3DD" stroke-width="0.19" stroke-miterlimit="10"/>
<path d="M-347.036 691.071C-209.389 987.425 192.657 730.587 418.208 838.236C626.28 937.547 617.141 892.294 823.323 899.41C1121.39 909.684 1254.83 732.499 1415.18 926.784" stroke="#80B2DC" stroke-width="0.19" stroke-miterlimit="10"/>
<path d="M-347.036 693.584C-206.787 988.603 190.701 730.876 415.562 837.258C622.166 935.012 613.271 894.362 817.875 902.679C1115.32 914.776 1252.16 725.672 1415.65 921.736" stroke="#7EB0DB" stroke-width="0.19" stroke-miterlimit="10"/>
<path d="M-347.036 696.074C-204.207 989.759 188.744 731.12 412.915 836.257C618.03 932.432 609.402 896.408 812.426 905.948C1109.25 919.89 1249.52 718.823 1416.12 916.688" stroke="#7CAFDB" stroke-width="0.19" stroke-miterlimit="10"/>
<path d="M-347.036 698.588C-201.606 990.939 186.765 731.41 410.269 835.279C613.916 929.898 605.555 898.477 806.956 909.217C1103.18 925.006 1246.83 711.975 1416.54 911.641" stroke="#79AEDA" stroke-width="0.19" stroke-miterlimit="10"/>
<path d="M-347.036 701.078C-199.004 992.095 184.785 731.676 407.645 834.256C609.802 927.318 601.708 900.522 801.531 912.464C1097.15 930.12 1244.2 705.103 1417.03 906.571" stroke="#77ACD9" stroke-width="0.19" stroke-miterlimit="10"/>
<path d="M-347.036 703.591C-196.424 993.273 182.829 731.965 404.999 833.277C605.666 924.783 597.839 902.613 796.06 915.755C1091.08 935.279 1241.51 698.276 1417.47 901.545" stroke="#75ABD9" stroke-width="0.19" stroke-miterlimit="10"/>
<path d="M-347.036 706.081C-193.823 994.429 180.85 732.232 402.353 832.276C601.53 922.225 593.992 904.702 790.612 919.001C1085.03 940.415 1238.87 691.427 1417.94 896.475" stroke="#72AAD8" stroke-width="0.19" stroke-miterlimit="10"/>
<path d="M-347.036 708.572C-191.243 995.586 178.87 732.522 399.707 831.276C597.394 919.669 590.123 906.793 785.164 922.27C1078.98 945.575 1236.2 684.578 1418.39 891.428" stroke="#70A9D7" stroke-width="0.19" stroke-miterlimit="10"/>
<path d="M-347.036 711.085C-188.642 996.765 176.891 732.811 397.083 830.298C593.28 917.156 586.298 908.906 779.716 925.539C1072.93 950.756 1233.55 677.729 1418.85 886.38" stroke="#6EA7D6" stroke-width="0.19" stroke-miterlimit="10"/>
<path d="M-347.036 713.575C-186.062 997.921 174.912 733.099 394.437 829.297C589.144 914.598 582.451 911.018 774.268 928.808C1066.89 955.937 1230.88 670.88 1419.32 881.332" stroke="#6BA6D6" stroke-width="0.19" stroke-miterlimit="10"/>
<path d="M-347.036 716.088C-183.46 999.099 172.911 733.411 391.79 828.296C584.986 912.063 578.582 913.13 768.82 932.054C1060.84 961.118 1228.24 664.031 1419.79 876.261" stroke="#69A5D5" stroke-width="0.19" stroke-miterlimit="10"/>
<path d="M-347.036 718.578C-180.881 1000.25 170.932 733.699 389.144 827.295C580.85 909.528 574.735 915.265 763.349 935.323C1054.77 966.321 1225.55 657.182 1420.21 871.213" stroke="#67A3D4" stroke-width="0.19" stroke-miterlimit="10"/>
<path d="M-347.036 721.092C-178.279 1001.43 168.953 734.012 386.52 826.318C576.736 907.016 570.887 917.423 757.923 938.615C1048.76 971.57 1222.92 650.356 1420.7 866.189" stroke="#64A2D4" stroke-width="0.19" stroke-miterlimit="10"/>
<path d="M-347.036 723.582C-175.7 1002.59 166.951 734.3 383.874 825.317C572.578 904.503 567.041 919.557 752.453 941.861C1042.69 976.773 1220.23 643.484 1421.14 861.118" stroke="#62A1D3" stroke-width="0.19" stroke-miterlimit="10"/>
<path d="M-347.036 726.072C-173.098 1003.77 164.95 734.589 381.228 824.316C568.419 901.967 563.194 921.714 747.005 945.13C1036.64 982.021 1217.59 636.635 1421.61 856.07" stroke="#60A0D2" stroke-width="0.19" stroke-miterlimit="10"/>
<path d="M-347.036 728.585C-170.496 1004.95 162.971 734.923 378.581 823.337C564.283 899.477 559.324 923.893 741.557 948.398C1030.62 987.291 1214.92 629.808 1422.06 851.022" stroke="#5D9ED2" stroke-width="0.19" stroke-miterlimit="10"/>
<path d="M-347.036 731.076C-167.917 1006.1 160.97 735.235 375.957 822.315C560.147 896.92 555.5 926.051 736.109 951.646C1024.57 992.54 1212.27 622.937 1422.52 845.953" stroke="#5B9DD1" stroke-width="0.19" stroke-miterlimit="10"/>
<path d="M-347.036 733.589C-165.315 1007.28 158.968 735.568 373.311 821.336C555.989 894.43 551.653 928.252 730.661 954.914C1018.52 997.81 1209.6 616.088 1422.99 840.905" stroke="#599CD0" stroke-width="0.19" stroke-miterlimit="10"/>
<path d="M-347.036 736.079C-162.735 1008.44 156.967 735.879 370.665 820.335C551.83 891.939 547.783 930.431 725.213 958.183C1012.47 1003.12 1206.96 609.239 1423.46 835.857" stroke="#569BD0" stroke-width="0.19" stroke-miterlimit="10"/>
<path d="M-347.036 738.592C-160.134 1009.62 154.966 736.212 368.019 819.357C547.65 889.448 543.936 932.655 719.742 961.452C1006.4 1008.44 1204.27 602.39 1423.88 830.809" stroke="#5499CF" stroke-width="0.19" stroke-miterlimit="10"/>
<path d="M-347.036 741.083C-157.554 1010.77 152.942 736.547 365.395 818.357C543.514 886.958 540.089 934.857 714.317 964.721C1000.4 1013.75 1201.64 595.564 1424.37 825.762" stroke="#5298CE" stroke-width="0.19" stroke-miterlimit="10"/>
<path d="M-347.036 743.596C-154.952 1011.95 150.941 736.902 362.749 817.378C539.355 884.467 536.242 937.103 708.846 968.012C994.303 1019.11 1198.95 588.737 1424.81 820.736" stroke="#4F97CE" stroke-width="0.19" stroke-miterlimit="10"/>
<path d="M-347.036 746.086C-152.373 1013.11 148.939 737.236 360.103 816.355C535.175 881.954 532.373 939.304 703.398 971.236C988.255 1024.43 1196.31 581.843 1425.28 815.643" stroke="#4D95CD" stroke-width="0.19" stroke-miterlimit="10"/>
<path d="M-347.036 748.576C-149.771 1014.26 146.916 737.569 357.456 815.354C531.017 879.486 528.504 941.527 697.95 974.505C982.207 1029.81 1193.64 574.994 1425.72 810.573" stroke="#4B94CC" stroke-width="0.19" stroke-miterlimit="10"/>
<path d="M-347.036 751.089C-147.169 1015.44 144.892 737.947 354.832 814.376C526.858 877.018 524.657 943.796 692.502 977.774C976.158 1035.19 1190.99 568.167 1426.19 805.526" stroke="#4893CB" stroke-width="0.19" stroke-miterlimit="10"/>
<path d="M-347.036 753.579C-144.59 1016.6 142.891 738.28 352.186 813.375C522.7 874.549 520.788 946.041 687.054 981.042C970.087 1040.62 1188.32 561.318 1426.66 800.477" stroke="#4692CB" stroke-width="0.19" stroke-miterlimit="10"/>
<path d="M-347.036 756.092C-141.988 1017.78 140.867 738.658 349.54 812.397C518.519 872.081 516.918 948.332 681.606 984.311C964.017 1046.02 1185.68 554.469 1427.13 795.43" stroke="#4490CA" stroke-width="0.19" stroke-miterlimit="10"/>
<path d="M-347.036 758.583C-139.409 1018.93 138.844 739.036 346.916 811.373C514.361 869.59 513.071 950.577 676.158 987.558C957.946 1051.44 1183.01 547.597 1427.57 790.359" stroke="#418FC9" stroke-width="0.19" stroke-miterlimit="10"/>
<path d="M-347.036 761.096C-136.807 1020.11 136.82 739.414 344.27 810.395C510.18 867.166 509.202 952.89 670.71 990.849C951.875 1056.92 1180.36 540.771 1428.04 785.334" stroke="#3F8EC9" stroke-width="0.19" stroke-miterlimit="10"/>
<path d="M-347.036 763.586C-134.227 1021.27 134.797 739.792 341.623 809.394C506 864.698 505.31 955.18 665.262 994.095C945.782 1062.36 1177.69 533.922 1428.5 780.264" stroke="#3D8CC8" stroke-width="0.19" stroke-miterlimit="10"/>
<path d="M-347.036 766.077C-131.626 1022.43 132.751 740.193 338.977 808.394C501.819 862.252 501.441 957.471 659.791 997.364C939.689 1067.86 1175.02 527.073 1428.95 775.216" stroke="#3A8BC7" stroke-width="0.19" stroke-miterlimit="10"/>
<path d="M-347.036 768.589C-129.046 1023.6 130.727 740.593 336.353 807.415C497.661 859.828 497.572 959.806 654.366 1000.63C933.596 1073.37 1172.38 520.224 1429.42 770.168" stroke="#388AC7" stroke-width="0.19" stroke-miterlimit="10"/>
<path d="M-347.036 771.08C-126.444 1024.76 128.704 740.994 333.707 806.415C493.48 857.382 493.68 962.119 648.895 1003.9C927.481 1078.89 1169.71 513.375 1429.86 765.121" stroke="#3689C6" stroke-width="0.19" stroke-miterlimit="10"/>
<path d="M-347.036 773.593C-123.865 1025.94 126.658 741.416 331.061 805.415C489.278 854.959 489.789 964.432 643.447 1007.15C921.366 1084.4 1167.04 506.504 1430.33 760.051" stroke="#3387C5" stroke-width="0.19" stroke-miterlimit="10"/>
<path d="M-347.036 776.083C-121.263 1027.1 124.634 741.838 328.415 804.413C485.097 852.534 485.898 966.766 637.999 1010.42C915.251 1089.98 1164.39 499.677 1430.79 755.002" stroke="#3186C5" stroke-width="0.19" stroke-miterlimit="10"/>
<path d="M-347.036 778.596C-118.661 1028.27 122.588 742.283 325.791 803.435C480.939 850.133 482.006 969.123 632.551 1013.69C909.113 1095.56 1161.73 492.827 1431.24 749.955" stroke="#2F85C4" stroke-width="0.19" stroke-miterlimit="10"/>
<path d="M-347.036 781.087C-116.082 1029.43 120.543 742.706 323.144 802.434C476.736 847.709 478.092 971.481 627.103 1016.96C902.976 1101.14 1159.08 485.979 1431.71 744.907" stroke="#2C83C3" stroke-width="0.19" stroke-miterlimit="10"/>
<path d="M-347.036 783.6C-113.48 1030.63 118.497 743.173 320.498 801.456C472.555 845.33 474.179 973.86 621.655 1020.25C896.838 1106.79 1156.41 479.152 1432.17 739.882" stroke="#2A82C2" stroke-width="0.19" stroke-miterlimit="10"/>
<path d="M-347.036 786.09C-110.901 1031.79 116.451 743.617 317.852 800.455C468.352 842.906 470.265 976.217 616.184 1023.49C890.656 1112.42 1153.74 472.303 1432.62 734.811" stroke="#2881C2" stroke-width="0.19" stroke-miterlimit="10"/>
<path d="M-347.036 788.581C-108.299 1032.94 114.405 744.085 315.228 799.433C464.194 840.505 466.373 978.575 610.759 1026.74C884.497 1118.05 1151.1 465.432 1433.09 729.742" stroke="#2580C1" stroke-width="0.19" stroke-miterlimit="10"/>
<path d="M-347.036 791.093C-105.72 1034.12 112.359 744.573 312.582 798.454C459.991 838.125 462.437 980.976 605.288 1030.01C878.293 1123.72 1148.43 458.583 1433.53 724.694" stroke="#237EC0" stroke-width="0.19" stroke-miterlimit="10"/>
<path d="M-347.036 793.584C-103.118 1035.28 110.314 745.063 309.936 797.453C455.789 835.746 458.501 983.355 599.84 1033.28C872.111 1129.41 1145.76 451.734 1434 719.646" stroke="#217DC0" stroke-width="0.19" stroke-miterlimit="10"/>
<path d="M-347.036 796.097C-100.538 1036.46 108.268 745.574 307.289 796.475C451.608 833.388 454.565 985.779 594.392 1036.55C865.884 1135.12 1143.11 444.884 1434.46 714.598" stroke="#1E7CBF" stroke-width="0.19" stroke-miterlimit="10"/>
<path d="M-347.036 798.588C-97.9365 1037.61 106.222 746.064 304.665 795.475C447.427 831.01 450.63 988.181 588.944 1039.82C859.68 1140.86 1140.45 438.058 1434.91 709.551" stroke="#1C7ABE" stroke-width="0.19" stroke-miterlimit="10"/>
<path d="M-347.036 801.1C-95.3348 1038.79 104.154 746.619 302.019 794.496C443.225 828.674 446.671 990.605 583.496 1043.11C853.432 1146.64 1137.8 431.231 1435.38 704.525" stroke="#1A79BE" stroke-width="0.19" stroke-miterlimit="10"/>
<path d="M-347.036 803.591C-92.7553 1039.95 102.108 747.131 299.373 793.473C439.044 826.295 442.713 993.006 578.048 1046.33C847.183 1152.38 1135.13 424.338 1435.84 699.433" stroke="#1778BD" stroke-width="0.19" stroke-miterlimit="10"/>
<path d="M-347.036 806.081C-90.1536 1041.1 100.062 747.664 296.727 792.472C434.841 823.937 438.733 995.43 572.578 1049.6C840.89 1158.18 1132.46 417.488 1436.29 694.384" stroke="#1577BC" stroke-width="0.19" stroke-miterlimit="10"/>
<path d="M-347.036 808.594C-87.5741 1042.28 97.9941 748.243 294.103 791.494C430.661 821.603 434.774 997.876 567.152 1052.87C834.619 1163.99 1129.82 410.64 1436.75 689.337" stroke="#1375BC" stroke-width="0.19" stroke-miterlimit="10"/>
<path d="M-347.036 811.084C-84.9723 1043.44 95.9484 748.821 291.457 790.493C426.48 819.268 430.794 1000.3 561.682 1056.14C828.282 1169.84 1127.15 403.813 1437.2 684.289" stroke="#1074BB" stroke-width="0.19" stroke-miterlimit="10"/>
<path d="M-347.036 813.598C-82.3928 1044.62 93.9026 749.422 288.811 789.515C422.277 816.978 426.791 1002.77 556.233 1059.41C821.966 1175.68 1124.48 396.964 1437.67 679.242" stroke="#0E73BA" stroke-width="0.19" stroke-miterlimit="10"/>
<path d="M-347.036 816.088C-79.7911 1045.77 91.8346 750.022 286.164 788.492C418.097 814.62 422.789 1005.19 550.785 1062.65C815.629 1181.55 1121.83 390.093 1438.13 674.171" stroke="#0C71B9" stroke-width="0.19" stroke-miterlimit="10"/>
<path d="M-347.036 818.601C-77.2116 1046.95 89.7887 750.644 283.54 787.513C413.916 812.33 418.786 1007.66 545.337 1065.94C809.247 1187.47 1119.16 383.266 1438.58 669.145" stroke="#0970B9" stroke-width="0.19" stroke-miterlimit="10"/>
<path d="M-347.036 821.091C-74.6099 1048.11 87.7429 751.267 280.894 786.513C409.736 810.017 414.783 1010.11 539.889 1069.19C802.865 1193.36 1116.52 376.417 1439.04 664.075" stroke="#076FB8" stroke-width="0.19" stroke-miterlimit="10"/>
<path d="M-347.036 823.604C-72.0081 1049.29 85.6749 751.934 278.248 785.534C405.555 807.749 410.736 1012.6 534.441 1072.48C796.46 1199.32 1113.85 369.59 1439.51 659.049" stroke="#056EB7" stroke-width="0.19" stroke-miterlimit="10"/>
<path d="M-347.036 826.095C-69.4286 1050.44 83.5846 752.935 275.602 784.534C401.33 805.659 406.689 1015.07 528.971 1075.73C790.012 1205.26 1111.18 362.719 1439.96 653.98" stroke="#026CB7" stroke-width="0.19" stroke-miterlimit="10"/>
<path d="M-347.036 828.585C-66.8269 1051.6 81.5832 753.268 272.978 783.533C397.194 803.168 402.664 1017.53 523.545 1079C783.585 1211.24 1108.54 355.87 1440.42 648.91" stroke="#33A9FB" stroke-width="0.19" stroke-miterlimit="10"/>
</g>
<path d="M-347.036 626.072C-276.767 957.093 243.113 724.271 486.854 864.12C732.618 1005.13 718.342 841.794 965.04 814.531C1280.45 779.664 1323.99 910.573 1403.27 1058.16" stroke="#BCECFF" stroke-width="0.19" stroke-miterlimit="10"/>
<path d="M-347.036 628.562C-274.165 958.249 241.134 724.604 484.208 863.097C728.459 1002.61 714.428 843.951 959.591 817.778C1274.33 784.978 1321.32 903.702 1403.71 1053.09" stroke="#BCECFF" stroke-width="0.19" stroke-miterlimit="10"/>
<path d="M-347.036 631.076C-271.586 959.429 239.133 724.983 481.561 862.119C724.323 1000.14 710.47 845.508 954.121 821.047C1268.09 789.515 1318.65 896.854 1404.15 1048.04" stroke="#BCECFF" stroke-width="0.19" stroke-miterlimit="10"/>
<path d="M-347.036 633.566C-268.984 960.585 237.132 725.339 478.937 861.118C720.187 997.632 706.556 847.376 948.695 824.316C1261.95 794.474 1316.01 890.004 1404.64 1043" stroke="#BCECFF" stroke-width="0.19" stroke-miterlimit="10"/>
<path d="M-347.036 636.079C-266.405 961.763 235.441 725.183 476.291 860.14C716.34 994.652 702.642 849.288 943.247 827.585C1255.79 799.41 1313.36 883.177 1405.11 1037.95" stroke="#BCECFF" stroke-width="0.19" stroke-miterlimit="10"/>
<path d="M-347.036 638.569C-263.803 962.919 233.507 725.405 473.645 859.139C712.249 992.027 698.706 851.156 937.777 830.853C1249.61 804.369 1310.67 876.328 1405.53 1032.9" stroke="#BCECFF" stroke-width="0.19" stroke-miterlimit="10"/>
<path d="M-347.036 641.082C-261.223 964.098 231.572 725.65 470.999 858.16C708.179 989.426 694.793 853.068 932.329 834.122C1243.47 809.328 1308.02 869.479 1406 1027.85" stroke="#BCECFF" stroke-width="0.19" stroke-miterlimit="10"/>
<path d="M-347.036 643.573C-258.622 965.255 229.66 725.873 468.375 857.138C704.11 986.78 690.901 854.937 926.881 837.369C1237.33 814.265 1305.36 862.608 1406.47 1022.78" stroke="#BCECFF" stroke-width="0.19" stroke-miterlimit="10"/>
<path d="M-347.036 646.086C-256.042 966.433 227.725 726.117 465.728 856.159C703.732 986.202 686.987 856.849 921.433 840.66C1231.19 819.246 1302.71 855.804 1406.93 1017.76" stroke="#BCECFF" stroke-width="0.19" stroke-miterlimit="10"/>
<path d="M-347.036 648.576C-253.44 967.589 225.791 726.339 463.082 855.158C695.949 981.576 683.074 858.761 915.984 843.907C1225.06 824.205 1300.04 848.932 1407.38 1012.69" stroke="#BCECFF" stroke-width="0.19" stroke-miterlimit="10"/>
<path d="M-347.036 651.066C-250.861 968.745 223.856 726.561 460.436 854.158C691.857 978.952 679.182 860.673 910.514 847.175C1218.9 829.185 1297.37 842.083 1407.82 1007.64" stroke="#BCECFF" stroke-width="0.19" stroke-miterlimit="10"/>
<path d="M-347.036 653.579C-248.259 969.924 221.921 726.828 457.812 853.179C687.788 976.372 675.291 862.608 905.089 850.444C1212.81 834.166 1294.73 835.234 1408.31 1002.59" stroke="#BCECFF" stroke-width="0.19" stroke-miterlimit="10"/>
<path d="M-347.036 656.07C-245.657 971.081 219.987 727.051 455.166 852.179C683.696 973.749 671.399 864.521 899.64 853.713C1206.67 839.17 1292.08 828.385 1408.78 997.543" stroke="#BCECFF" stroke-width="0.19" stroke-miterlimit="10"/>
<path d="M-347.036 658.583C-243.078 972.259 218.052 727.296 452.52 851.178C679.605 971.147 667.485 866.455 894.17 856.96C1200.53 844.129 1289.39 821.536 1409.2 992.472" stroke="#BCECFF" stroke-width="0.19" stroke-miterlimit="10"/>
<path d="M-347.036 661.073C-240.476 973.415 216.095 727.54 449.874 850.177C675.513 968.545 663.594 868.389 888.722 860.228C1194.41 849.132 1286.74 814.687 1409.67 987.424" stroke="#BCECFF" stroke-width="0.19" stroke-miterlimit="10"/>
<path d="M-347.036 663.586C-237.897 974.594 214.161 727.807 447.25 849.199C671.444 965.966 659.725 870.368 883.274 863.519C1188.32 854.158 1284.07 807.86 1410.14 982.399" stroke="#BCECFF" stroke-width="0.19" stroke-miterlimit="10"/>
<path d="M-347.036 666.077C-235.295 975.75 212.204 728.03 444.603 848.199C667.33 963.364 655.833 872.326 877.826 866.767C1182.21 859.162 1281.43 800.989 1410.6 977.329" stroke="#BCECFF" stroke-width="0.19" stroke-miterlimit="10"/>
<path d="M-347.036 668.567C-232.715 976.929 210.269 728.274 441.957 847.198C663.238 960.762 651.964 865.477 872.378 870.035C1176.11 876.306 1278.76 794.14 1411.05 972.259" stroke="#BCECFF" stroke-width="0.19" stroke-miterlimit="10"/>
<path d="M-347.036 671.08C-230.114 978.107 208.312 728.541 439.333 846.219C659.146 958.205 648.161 867.078 866.93 873.304C1169.93 881.932 1276.11 787.313 1411.52 967.211" stroke="#BCECFF" stroke-width="0.19" stroke-miterlimit="10"/>
<path d="M-347.036 673.57C-227.534 979.263 206.378 728.763 436.687 845.196C655.033 955.581 644.337 868.656 861.481 876.55C1163.75 887.535 1273.45 780.442 1411.98 962.141" stroke="#BCECFF" stroke-width="0.19" stroke-miterlimit="10"/>
<path d="M-347.036 676.083C-224.932 980.442 204.421 729.029 434.041 844.217C650.941 953.023 640.534 870.302 856.033 879.819C1157.55 893.161 1270.8 773.593 1412.45 957.093" stroke="#BCECFF" stroke-width="0.19" stroke-miterlimit="10"/>
<path d="M-347.036 678.574C-222.331 981.599 202.464 729.275 431.394 843.217C646.827 950.422 636.731 871.948 850.563 883.089C1151.34 898.766 1268.11 766.744 1412.87 952.046" stroke="#BCECFF" stroke-width="0.19" stroke-miterlimit="10"/>
<path d="M-347.036 681.087C-219.751 982.777 200.507 729.564 428.77 842.239C642.735 947.865 632.973 873.638 845.137 886.357C1145.16 904.369 1265.48 759.917 1413.36 946.998" stroke="#BCECFF" stroke-width="0.19" stroke-miterlimit="10"/>
<path d="M-347.036 683.577C-217.149 983.933 198.55 729.808 426.124 841.238C638.622 945.285 629.171 875.327 839.667 889.626C1138.93 909.973 1262.79 753.068 1413.81 941.95" stroke="#BCECFF" stroke-width="0.19" stroke-miterlimit="10"/>
<path d="M-347.036 686.09C-214.57 985.112 196.593 730.075 423.478 840.237C634.508 942.706 625.391 877.039 834.219 892.895C1132.73 915.554 1260.15 746.219 1414.27 936.902" stroke="#BCECFF" stroke-width="0.19" stroke-miterlimit="10"/>
<path d="M-347.036 688.581C-211.968 986.269 194.637 730.32 420.832 839.237C630.372 940.127 620.988 890.271 828.771 896.142C1127.44 904.592 1257.48 739.348 1414.72 931.832" stroke="#BCECFF" stroke-width="0.19" stroke-miterlimit="10"/>
<path d="M-347.036 691.071C-209.389 987.425 192.657 730.587 418.208 838.236C626.28 937.547 617.141 892.294 823.323 899.41C1121.39 909.684 1254.83 732.499 1415.18 926.784" stroke="#BCECFF" stroke-width="0.19" stroke-miterlimit="10"/>
<path d="M-347.036 693.584C-206.787 988.603 190.701 730.876 415.562 837.258C622.166 935.012 613.271 894.362 817.875 902.679C1115.32 914.776 1252.16 725.672 1415.65 921.736" stroke="#BCECFF" stroke-width="0.19" stroke-miterlimit="10"/>
<path d="M-347.036 696.074C-204.207 989.759 188.744 731.12 412.915 836.257C618.03 932.432 609.402 896.408 812.426 905.948C1109.25 919.89 1249.52 718.823 1416.12 916.688" stroke="#BCECFF" stroke-width="0.19" stroke-miterlimit="10"/>
<path d="M-347.036 698.588C-201.606 990.939 186.765 731.41 410.269 835.279C613.916 929.898 605.555 898.477 806.956 909.217C1103.18 925.006 1246.83 711.975 1416.54 911.641" stroke="#BCECFF" stroke-width="0.19" stroke-miterlimit="10"/>
<path d="M-347.036 701.078C-199.004 992.095 184.785 731.676 407.645 834.256C609.802 927.318 601.708 900.522 801.531 912.464C1097.15 930.12 1244.2 705.103 1417.03 906.571" stroke="#BCECFF" stroke-width="0.19" stroke-miterlimit="10"/>
<path d="M-347.036 703.591C-196.424 993.273 182.829 731.965 404.999 833.277C605.666 924.783 597.839 902.613 796.06 915.755C1091.08 935.279 1241.51 698.276 1417.47 901.545" stroke="#BCECFF" stroke-width="0.19" stroke-miterlimit="10"/>
<path d="M-347.036 706.081C-193.823 994.429 180.85 732.232 402.353 832.276C601.53 922.225 593.992 904.702 790.612 919.001C1085.03 940.415 1238.87 691.427 1417.94 896.475" stroke="#BCECFF" stroke-width="0.19" stroke-miterlimit="10"/>
<path d="M-347.036 708.572C-191.243 995.586 178.87 732.522 399.707 831.276C597.394 919.669 590.123 906.793 785.164 922.27C1078.98 945.575 1236.2 684.578 1418.39 891.428" stroke="#BCECFF" stroke-width="0.19" stroke-miterlimit="10"/>
<path d="M-347.036 711.085C-188.642 996.765 176.891 732.811 397.083 830.298C593.28 917.156 586.298 908.906 779.716 925.539C1072.93 950.756 1233.55 677.729 1418.85 886.38" stroke="#BCECFF" stroke-width="0.19" stroke-miterlimit="10"/>
<path d="M-347.036 713.575C-186.062 997.921 174.912 733.099 394.437 829.297C589.144 914.598 582.451 911.018 774.268 928.808C1066.89 955.937 1230.88 670.88 1419.32 881.332" stroke="#BCECFF" stroke-width="0.19" stroke-miterlimit="10"/>
<path d="M-347.036 716.088C-183.46 999.099 172.911 733.411 391.79 828.296C584.986 912.063 578.582 913.13 768.82 932.054C1060.84 961.118 1228.24 664.031 1419.79 876.261" stroke="#BCECFF" stroke-width="0.19" stroke-miterlimit="10"/>
<path d="M-347.036 718.578C-180.881 1000.25 170.932 733.699 389.144 827.295C580.85 909.528 574.735 915.265 763.349 935.323C1054.77 966.321 1225.55 657.182 1420.21 871.213" stroke="#BCECFF" stroke-width="0.19" stroke-miterlimit="10"/>
<path d="M-347.036 721.092C-178.279 1001.43 168.953 734.012 386.52 826.318C576.736 907.016 570.887 917.423 757.923 938.615C1048.76 971.57 1222.92 650.356 1420.7 866.189" stroke="#BCECFF" stroke-width="0.19" stroke-miterlimit="10"/>
<path d="M-347.036 723.582C-175.7 1002.59 166.951 734.3 383.874 825.317C572.578 904.503 567.041 919.557 752.453 941.861C1042.69 976.773 1220.23 643.484 1421.14 861.118" stroke="#BCECFF" stroke-width="0.19" stroke-miterlimit="10"/>
<path d="M-347.036 726.072C-173.098 1003.77 164.95 734.589 381.228 824.316C568.419 901.967 563.194 921.714 747.005 945.13C1036.64 982.021 1217.59 636.635 1421.61 856.07" stroke="#BCECFF" stroke-width="0.19" stroke-miterlimit="10"/>
<path d="M-347.036 728.585C-170.496 1004.95 162.971 734.923 378.581 823.337C564.283 899.477 559.324 923.893 741.557 948.398C1030.62 987.291 1214.92 629.808 1422.06 851.022" stroke="#BCECFF" stroke-width="0.19" stroke-miterlimit="10"/>
<path d="M-347.036 731.076C-167.917 1006.1 160.97 735.235 375.957 822.315C560.147 896.92 555.5 926.051 736.109 951.646C1024.57 992.54 1212.27 622.937 1422.52 845.953" stroke="#BCECFF" stroke-width="0.19" stroke-miterlimit="10"/>
<path d="M-347.036 733.589C-165.315 1007.28 158.968 735.568 373.311 821.336C555.989 894.43 551.653 928.252 730.661 954.914C1018.52 997.81 1209.6 616.088 1422.99 840.905" stroke="#BCECFF" stroke-width="0.19" stroke-miterlimit="10"/>
<path d="M-347.036 736.079C-162.735 1008.44 156.967 735.879 370.665 820.335C551.83 891.939 547.783 930.431 725.213 958.183C1012.47 1003.12 1206.96 609.239 1423.46 835.857" stroke="#BCECFF" stroke-width="0.19" stroke-miterlimit="10"/>
<path d="M-347.036 738.592C-160.134 1009.62 154.966 736.212 368.019 819.357C547.65 889.448 543.936 932.655 719.742 961.452C1006.4 1008.44 1204.27 602.39 1423.88 830.809" stroke="#BCECFF" stroke-width="0.19" stroke-miterlimit="10"/>
<path d="M-347.036 741.083C-157.554 1010.77 152.942 736.547 365.395 818.357C543.514 886.958 540.089 934.857 714.317 964.721C1000.4 1013.75 1201.64 595.564 1424.37 825.762" stroke="#BCECFF" stroke-width="0.19" stroke-miterlimit="10"/>
<path d="M-347.036 743.596C-154.952 1011.95 150.941 736.902 362.749 817.378C539.355 884.467 536.242 937.103 708.846 968.012C994.303 1019.11 1198.95 588.737 1424.81 820.736" stroke="#BCECFF" stroke-width="0.19" stroke-miterlimit="10"/>
<path d="M-347.036 746.086C-152.373 1013.11 148.939 737.236 360.103 816.355C535.175 881.954 532.373 939.304 703.398 971.236C988.255 1024.43 1196.31 581.843 1425.28 815.643" stroke="#BCECFF" stroke-width="0.19" stroke-miterlimit="10"/>
<path d="M-347.036 748.576C-149.771 1014.26 146.916 737.569 357.456 815.354C531.017 879.486 528.504 941.527 697.95 974.505C982.207 1029.81 1193.64 574.994 1425.72 810.573" stroke="#BCECFF" stroke-width="0.19" stroke-miterlimit="10"/>
<path d="M-347.036 751.089C-147.169 1015.44 144.892 737.947 354.832 814.376C526.858 877.018 524.657 943.796 692.502 977.774C976.158 1035.19 1190.99 568.167 1426.19 805.526" stroke="#BCECFF" stroke-width="0.19" stroke-miterlimit="10"/>
<path d="M-347.036 753.579C-144.59 1016.6 142.891 738.28 352.186 813.375C522.7 874.549 520.788 946.041 687.054 981.042C970.087 1040.62 1188.32 561.318 1426.66 800.477" stroke="#BCECFF" stroke-width="0.19" stroke-miterlimit="10"/>
<path d="M-347.036 756.092C-141.988 1017.78 140.867 738.658 349.54 812.397C518.519 872.081 516.918 948.332 681.606 984.311C964.017 1046.02 1185.68 554.469 1427.13 795.43" stroke="#BCECFF" stroke-width="0.19" stroke-miterlimit="10"/>
<path d="M-347.036 758.583C-139.409 1018.93 138.844 739.036 346.916 811.373C514.361 869.59 513.071 950.577 676.158 987.558C957.946 1051.44 1183.01 547.597 1427.57 790.359" stroke="#BCECFF" stroke-width="0.19" stroke-miterlimit="10"/>
<path d="M-347.036 761.096C-136.807 1020.11 136.82 739.414 344.27 810.395C510.18 867.166 509.202 952.89 670.71 990.849C951.875 1056.92 1180.36 540.771 1428.04 785.334" stroke="#BCECFF" stroke-width="0.19" stroke-miterlimit="10"/>
<path d="M-347.036 763.586C-134.227 1021.27 134.797 739.792 341.623 809.394C506 864.698 505.31 955.18 665.262 994.095C945.782 1062.36 1177.69 533.922 1428.5 780.264" stroke="#BCECFF" stroke-width="0.19" stroke-miterlimit="10"/>
<path d="M-347.036 766.077C-131.626 1022.43 132.751 740.193 338.977 808.394C501.819 862.252 501.441 957.471 659.791 997.364C939.689 1067.86 1175.02 527.073 1428.95 775.216" stroke="#BCECFF" stroke-width="0.19" stroke-miterlimit="10"/>
<path d="M-347.036 768.589C-129.046 1023.6 130.727 740.593 336.353 807.415C497.661 859.828 497.572 959.806 654.366 1000.63C933.596 1073.37 1172.38 520.224 1429.42 770.168" stroke="#BCECFF" stroke-width="0.19" stroke-miterlimit="10"/>
<path d="M-347.036 771.08C-126.444 1024.76 128.704 740.994 333.707 806.415C493.48 857.382 493.68 962.119 648.895 1003.9C927.481 1078.89 1169.71 513.375 1429.86 765.121" stroke="#BCECFF" stroke-width="0.19" stroke-miterlimit="10"/>
<path d="M-347.036 773.593C-123.865 1025.94 126.658 741.416 331.061 805.415C489.278 854.959 489.789 964.432 643.447 1007.15C921.366 1084.4 1167.04 506.504 1430.33 760.051" stroke="#BCECFF" stroke-width="0.19" stroke-miterlimit="10"/>
<path d="M-347.036 776.083C-121.263 1027.1 124.634 741.838 328.415 804.413C485.097 852.534 485.898 966.766 637.999 1010.42C915.251 1089.98 1164.39 499.677 1430.79 755.002" stroke="#BCECFF" stroke-width="0.19" stroke-miterlimit="10"/>
<path d="M-347.036 778.596C-118.661 1028.27 122.588 742.283 325.791 803.435C480.939 850.133 482.006 969.123 632.551 1013.69C909.113 1095.56 1161.73 492.827 1431.24 749.955" stroke="#BCECFF" stroke-width="0.19" stroke-miterlimit="10"/>
<path d="M-347.036 781.087C-116.082 1029.43 120.543 742.706 323.144 802.434C476.736 847.709 478.092 971.481 627.103 1016.96C902.976 1101.14 1159.08 485.979 1431.71 744.907" stroke="#BCECFF" stroke-width="0.19" stroke-miterlimit="10"/>
<path d="M-347.036 783.6C-113.48 1030.63 118.497 743.173 320.498 801.456C472.555 845.33 474.179 973.86 621.655 1020.25C896.838 1106.79 1156.41 479.152 1432.17 739.882" stroke="#BCECFF" stroke-width="0.19" stroke-miterlimit="10"/>
<path d="M-347.036 786.09C-110.901 1031.79 116.451 743.617 317.852 800.455C468.352 842.906 470.265 976.217 616.184 1023.49C890.656 1112.42 1153.74 472.303 1432.62 734.811" stroke="#BCECFF" stroke-width="0.19" stroke-miterlimit="10"/>
<path d="M-347.036 788.581C-108.299 1032.94 114.405 744.085 315.228 799.433C464.194 840.505 466.373 978.575 610.759 1026.74C884.497 1118.05 1151.1 465.432 1433.09 729.742" stroke="#BCECFF" stroke-width="0.19" stroke-miterlimit="10"/>
<path d="M-347.036 791.093C-105.72 1034.12 112.359 744.573 312.582 798.454C459.991 838.125 462.437 980.976 605.288 1030.01C878.293 1123.72 1148.43 458.583 1433.53 724.694" stroke="#BCECFF" stroke-width="0.19" stroke-miterlimit="10"/>
<path d="M-347.036 793.584C-103.118 1035.28 110.314 745.063 309.936 797.453C455.789 835.746 458.501 983.355 599.84 1033.28C872.111 1129.41 1145.76 451.734 1434 719.646" stroke="#BCECFF" stroke-width="0.19" stroke-miterlimit="10"/>
<path d="M-347.036 796.097C-100.538 1036.46 108.268 745.574 307.289 796.475C451.608 833.388 454.565 985.779 594.392 1036.55C865.884 1135.12 1143.11 444.884 1434.46 714.598" stroke="#BCECFF" stroke-width="0.19" stroke-miterlimit="10"/>
<path d="M-347.036 798.588C-97.9365 1037.61 106.222 746.064 304.665 795.475C447.427 831.01 450.63 988.181 588.944 1039.82C859.68 1140.86 1140.45 438.058 1434.91 709.551" stroke="#BCECFF" stroke-width="0.19" stroke-miterlimit="10"/>
<path d="M-347.036 801.1C-95.3348 1038.79 104.154 746.619 302.019 794.496C443.225 828.674 446.671 990.605 583.496 1043.11C853.432 1146.64 1137.8 431.231 1435.38 704.525" stroke="#BCECFF" stroke-width="0.19" stroke-miterlimit="10"/>
<path d="M-347.036 803.591C-92.7553 1039.95 102.108 747.131 299.373 793.473C439.044 826.295 442.713 993.006 578.048 1046.33C847.183 1152.38 1135.13 424.338 1435.84 699.433" stroke="#BCECFF" stroke-width="0.19" stroke-miterlimit="10"/>
<path d="M-347.036 806.081C-90.1536 1041.1 100.062 747.664 296.727 792.472C434.841 823.937 438.733 995.43 572.578 1049.6C840.89 1158.18 1132.46 417.488 1436.29 694.384" stroke="#BCECFF" stroke-width="0.19" stroke-miterlimit="10"/>
<path d="M-347.036 808.594C-87.5741 1042.28 97.9941 748.243 294.103 791.494C430.661 821.603 434.774 997.876 567.152 1052.87C834.619 1163.99 1129.82 410.64 1436.75 689.337" stroke="#BCECFF" stroke-width="0.19" stroke-miterlimit="10"/>
<path d="M-347.036 811.084C-84.9723 1043.44 95.9484 748.821 291.457 790.493C426.48 819.268 430.794 1000.3 561.682 1056.14C828.282 1169.84 1127.15 403.813 1437.2 684.289" stroke="#BCECFF" stroke-width="0.19" stroke-miterlimit="10"/>
<path d="M-347.036 813.598C-82.3928 1044.62 93.9026 749.422 288.811 789.515C422.277 816.978 426.791 1002.77 556.233 1059.41C821.966 1175.68 1124.48 396.964 1437.67 679.242" stroke="#BCECFF" stroke-width="0.19" stroke-miterlimit="10"/>
<path d="M-347.036 816.088C-79.7911 1045.77 91.8346 750.022 286.164 788.492C418.097 814.62 422.789 1005.19 550.785 1062.65C815.629 1181.55 1121.83 390.093 1438.13 674.171" stroke="#BCECFF" stroke-width="0.19" stroke-miterlimit="10"/>
<path d="M-347.036 818.601C-77.2116 1046.95 89.7887 750.644 283.54 787.513C413.916 812.33 418.786 1007.66 545.337 1065.94C809.247 1187.47 1119.16 383.266 1438.58 669.145" stroke="#BCECFF" stroke-width="0.19" stroke-miterlimit="10"/>
<path d="M-347.036 821.091C-74.6099 1048.11 87.7429 751.267 280.894 786.513C409.736 810.017 414.783 1010.11 539.889 1069.19C802.865 1193.36 1116.52 376.417 1439.04 664.075" stroke="#BCECFF" stroke-width="0.19" stroke-miterlimit="10"/>
<path d="M-347.036 823.604C-72.0081 1049.29 85.6749 751.934 278.248 785.534C405.555 807.749 410.736 1012.6 534.441 1072.48C796.46 1199.32 1113.85 369.59 1439.51 659.049" stroke="#BCECFF" stroke-width="0.19" stroke-miterlimit="10"/>
<path d="M-347.036 826.095C-69.4286 1050.44 83.5846 752.935 275.602 784.534C401.33 805.659 406.689 1015.07 528.971 1075.73C790.012 1205.26 1111.18 362.719 1439.96 653.98" stroke="#BCECFF" stroke-width="0.19" stroke-miterlimit="10"/>
<path d="M-347.036 828.585C-66.8269 1051.6 81.5832 753.268 272.978 783.533C397.194 803.168 402.664 1017.53 523.545 1079C783.585 1211.24 1108.54 355.87 1440.42 648.91" stroke="#BCECFF" stroke-width="0.19" stroke-miterlimit="10"/>
<path opacity="0.46" d="M1565.08 878.752C1457.03 953.624 1292.5 1084.58 1010.09 934.856C727.681 785.134 254.944 589.403 53.5647 747.709C-147.814 905.992 -316.949 905.214 -385.239 887.313" stroke="#52D9F7" stroke-width="0.19" stroke-miterlimit="10"/>
<path opacity="0.47" d="M1563.37 877.485C1495.15 923.916 1404.35 991.071 1275.25 998.654C1200.35 1002.99 1112.74 987.402 1009.05 934.033C928.082 892.472 831.395 846.953 729.616 805.948C522.211 722.225 295.459 658.961 140.022 703.524C107.601 712.908 78.4257 726.917 53.3645 746.33C-148.37 902.857 -318.106 903.769 -385.439 884.689" stroke="#52D9F7" stroke-width="0.19" stroke-miterlimit="10"/>
<path opacity="0.48" d="M1561.66 876.216C1493.5 921.736 1402.75 986.334 1273.45 994.406C1198.73 998.943 1111.43 984.845 1007.98 933.188C927.081 893.05 830.505 848.754 728.437 807.837C521.899 724.715 296.66 658.315 139.956 702.634C107.512 711.818 78.3145 725.738 53.1644 744.951C-148.948 899.721 -319.24 902.323 -385.64 882.065" stroke="#52D9F7" stroke-width="0.19" stroke-miterlimit="10"/>
<path opacity="0.48" d="M1559.95 874.927C1491.84 919.557 1401.15 981.576 1271.67 990.159C1197.13 994.896 1110.16 982.31 1006.93 932.365C926.125 893.65 829.616 850.599 727.259 809.772C521.61 727.25 297.928 657.893 139.889 701.789C107.445 710.795 78.2032 724.604 52.9419 743.595C-149.504 896.586 -320.396 900.855 -385.84 879.441" stroke="#52D9F7" stroke-width="0.19" stroke-miterlimit="10"/>
<path opacity="0.49" d="M1558.24 873.659C1490.19 917.399 1399.55 976.861 1269.87 985.912C1195.5 990.848 1108.98 979.485 1005.89 931.542C925.28 894.028 828.726 852.423 726.102 811.707C521.343 729.808 299.217 657.448 139.844 700.944C107.4 709.794 78.1142 723.492 52.764 742.26C-150.06 893.472 -321.53 899.41 -386.04 876.817" stroke="#52D9F7" stroke-width="0.19" stroke-miterlimit="10"/>
<path opacity="0.5" d="M1556.52 872.392C1488.54 915.242 1397.97 972.414 1268.06 981.665C1193.88 986.957 1107.71 976.884 1004.82 930.697C924.301 894.562 827.814 854.246 724.901 813.619C521.032 732.32 300.485 657.026 139.755 700.054C107.311 708.749 77.9584 722.247 52.5415 740.882C-150.928 889.914 -322.687 897.964 -386.24 874.193" stroke="#52D9F7" stroke-width="0.19" stroke-miterlimit="10"/>
<path opacity="0.51" d="M1554.81 871.103C1486.9 913.064 1396.37 967.7 1266.28 977.396C1192.28 982.91 1106.47 974.238 1003.8 929.853C923.389 895.074 826.88 856.27 723.767 815.51C520.609 735.234 301.797 656.559 139.733 699.166C107.289 707.705 77.8917 721.069 52.3635 739.481C-151.55 886.691 -323.821 896.519 -386.44 871.57" stroke="#52D9F7" stroke-width="0.19" stroke-miterlimit="10"/>
<path opacity="0.51" d="M1553.1 869.835C1485.25 910.907 1394.77 963.03 1264.48 973.148C1190.66 978.885 1105.18 971.636 1002.73 929.03C922.433 895.63 825.946 858.138 722.588 817.444C520.298 737.836 303.064 656.137 139.666 698.32C107.2 706.704 77.7582 719.935 52.1633 738.147C-152.173 883.488 -324.977 895.052 -386.641 868.945" stroke="#52D9F7" stroke-width="0.19" stroke-miterlimit="10"/>
<path opacity="0.52" d="M1551.41 868.545C1483.61 908.728 1393.19 958.316 1262.7 968.879C1189.06 974.838 1103.93 968.99 1001.71 928.163C921.499 896.119 825.079 859.962 721.432 819.335C519.987 740.371 304.376 655.692 139.622 697.431C107.156 705.659 77.6692 718.734 51.9631 736.768C-152.773 880.286 -326.111 893.606 -386.841 866.322" stroke="#52D9F7" stroke-width="0.19" stroke-miterlimit="10"/>
<path opacity="0.53" d="M1549.7 867.277C1481.96 906.57 1391.61 953.646 1260.9 964.631C1187.43 970.813 1102.64 966.388 1000.64 927.34C920.544 896.675 824.168 861.829 720.254 821.247C519.676 742.95 305.644 655.269 139.556 696.541C107.09 704.613 77.5587 717.555 51.7637 735.367C-153.395 877.084 -327.267 892.161 -387.062 863.697" stroke="#52D9F7" stroke-width="0.19" stroke-miterlimit="10"/>
<path opacity="0.54" d="M1547.98 866.01C1480.32 904.391 1390.01 948.954 1259.12 960.406C1185.83 966.811 1101.4 963.786 999.618 926.539C919.609 897.253 823.301 863.697 719.12 823.204C519.409 745.574 306.978 654.891 139.533 695.719C107.067 703.635 77.4919 716.444 51.608 734.055C-153.996 873.882 -328.401 890.715 -387.263 861.073" stroke="#52D9F7" stroke-width="0.19" stroke-miterlimit="10"/>
<path opacity="0.54" d="M1546.27 864.72C1478.67 902.212 1388.41 944.24 1257.32 956.137C1184.21 962.764 1100.11 961.162 998.551 925.672C918.631 897.742 822.367 865.521 717.919 825.094C519.075 748.109 308.246 654.469 139.444 694.829C106.978 702.59 77.3584 715.243 51.3633 732.677C-154.596 870.68 -329.558 889.27 -387.463 858.449" stroke="#52D9F7" stroke-width="0.19" stroke-miterlimit="10"/>
<path opacity="0.55" d="M1544.56 863.452C1477.03 900.055 1386.81 939.57 1255.52 951.889C1182.59 958.738 1098.82 958.56 997.506 924.849C917.697 898.298 821.477 867.388 716.763 827.028C518.786 750.71 309.558 654.068 139.4 693.984C106.934 701.589 77.2695 714.108 51.1854 731.32C-155.197 867.477 -330.692 887.802 -387.663 855.825" stroke="#52D9F7" stroke-width="0.19" stroke-miterlimit="10"/>
<path opacity="0.56" d="M1542.85 862.186C1475.38 897.898 1385.23 934.879 1253.74 947.643C1180.98 954.714 1097.55 955.937 996.46 924.027C916.741 898.855 820.588 869.257 715.584 828.941C518.475 753.268 310.847 653.669 139.333 693.095C106.867 700.567 77.1582 712.93 50.9629 729.942C-155.797 864.276 -331.848 886.357 -387.863 853.202" stroke="#52D9F7" stroke-width="0.19" stroke-miterlimit="10"/>
<path opacity="0.57" d="M1541.14 860.896C1473.71 895.719 1383.63 930.165 1251.94 943.373C1179.36 950.645 1096.26 953.313 995.393 923.16C915.762 899.344 819.676 871.081 714.406 830.832C518.164 755.804 312.137 653.246 139.266 692.206C106.8 699.522 77.0247 711.752 50.7628 728.541C-156.376 861.074 -332.982 884.912 -388.063 850.578" stroke="#52D9F7" stroke-width="0.19" stroke-miterlimit="10"/>
<path opacity="0.57" d="M1539.42 859.629C1472.07 893.562 1382.03 925.472 1250.14 939.126C1177.74 946.62 1094.97 950.712 994.348 922.337C914.806 899.9 818.764 872.926 713.249 832.766C517.874 758.405 313.471 652.868 139.222 691.361C106.756 698.521 76.9357 710.596 50.5847 727.207C-156.976 857.894 -334.139 883.467 -388.264 847.954" stroke="#52D9F7" stroke-width="0.19" stroke-miterlimit="10"/>
<path opacity="0.58" d="M1537.71 858.338C1470.42 891.382 1380.45 920.757 1248.34 934.856C1176.11 942.572 1093.68 948.087 993.28 921.491C913.827 900.433 817.852 874.771 712.048 834.678C517.541 760.962 314.739 652.489 139.133 690.47C106.667 697.497 76.8022 709.416 50.3401 725.827C-157.576 854.691 -335.273 881.998 -388.464 845.329" stroke="#52D9F7" stroke-width="0.19" stroke-miterlimit="10"/>
<path opacity="0.59" d="M1536 857.071C1468.78 889.226 1378.85 916.066 1246.56 930.631C1174.51 938.547 1092.39 945.508 992.258 920.669C912.871 900.989 816.985 876.639 710.914 836.59C517.274 763.519 316.073 652.089 139.11 689.603C106.644 696.475 76.7354 708.26 50.1844 724.449C-158.155 851.511 -336.429 880.553 -388.664 842.706" stroke="#52D9F7" stroke-width="0.19" stroke-miterlimit="10"/>
<path opacity="0.6" d="M1534.29 855.803C1467.13 887.046 1377.25 911.374 1244.76 926.384C1172.89 934.523 1091.1 942.906 991.19 919.846C911.893 901.545 816.073 878.485 709.736 838.525C516.962 766.077 317.385 651.734 139.044 688.759C106.577 695.496 76.6242 707.126 49.9619 723.115C-158.733 848.309 -337.563 879.108 -388.864 840.082" stroke="#52D9F7" stroke-width="0.19" stroke-miterlimit="10"/>
<path opacity="0.6" d="M1532.57 854.513C1465.46 884.867 1375.65 906.659 1242.96 922.114C1171.27 930.475 1089.79 940.282 990.145 918.979C910.937 902.056 815.184 880.308 708.557 840.415C516.673 768.612 318.697 651.333 138.977 687.869C106.533 694.473 76.513 705.948 49.7618 721.736C-159.333 845.129 -338.72 877.662 -389.064 837.458" stroke="#52D9F7" stroke-width="0.19" stroke-miterlimit="10"/>
<path opacity="0.61" d="M1530.86 853.246C1463.82 882.71 1374.07 901.945 1241.18 917.867C1169.66 926.428 1088.5 937.68 989.1 918.156C909.958 902.612 814.294 882.154 707.401 842.328C516.384 771.169 320.009 650.978 138.932 686.98C106.488 693.428 76.4239 704.747 49.5838 720.335C-159.912 841.95 -339.854 876.195 -389.265 834.834" stroke="#52D9F7" stroke-width="0.19" stroke-miterlimit="10"/>
<path opacity="0.62" d="M1529.15 851.978C1462.17 880.553 1372.47 897.253 1239.38 913.62C1168.04 922.403 1087.21 935.101 988.056 917.333C909.003 903.168 813.406 884.022 706.223 844.262C516.074 773.726 321.322 650.622 138.867 686.134C106.423 692.45 76.3137 703.613 49.3624 719.001C-160.489 838.77 -341.009 874.749 -389.464 832.21" stroke="#52D9F7" stroke-width="0.19" stroke-miterlimit="10"/>
<path opacity="0.63" d="M1527.44 850.689C1460.53 878.374 1370.87 892.516 1237.58 909.35C1166.42 918.334 1085.9 932.476 986.987 916.466C908.001 903.679 812.493 885.823 705.043 846.152C515.761 776.261 322.633 650.244 138.799 685.245C106.355 691.427 76.2014 702.434 49.1611 717.622C-161.046 835.59 -342.144 873.304 -389.665 829.586" stroke="#52D9F7" stroke-width="0.19" stroke-miterlimit="10"/>
<path opacity="0.63" d="M1525.73 849.421C1458.88 876.217 1369.29 887.825 1235.78 905.103C1164.8 914.287 1084.59 929.897 985.921 915.643C907.023 904.258 811.582 887.669 703.866 848.087C515.473 778.819 323.945 649.91 138.733 684.4C106.289 690.448 76.0912 701.3 48.9397 716.266C-161.623 832.41 -343.3 871.858 -389.864 826.962" stroke="#52D9F7" stroke-width="0.19" stroke-miterlimit="10"/>
<path opacity="0.64" d="M1524.01 848.131C1457.21 874.038 1367.69 883.088 1234 900.856C1163.19 910.262 1083.3 927.295 984.898 914.82C906.067 904.814 810.715 889.537 702.709 849.999C515.184 781.376 325.28 649.554 138.688 683.51C106.245 689.403 76.0022 700.122 48.7618 714.887C-162.201 829.252 -344.434 870.391 -390.064 824.338" stroke="#52D9F7" stroke-width="0.19" stroke-miterlimit="10"/>
<path opacity="0.65" d="M1522.32 846.864C1455.59 871.881 1366.11 878.396 1232.22 896.609C1161.59 906.215 1082.01 924.716 983.852 913.976C905.088 905.37 809.824 891.361 701.552 851.912C514.916 783.911 326.613 649.221 138.643 682.644C106.199 688.403 75.9122 698.966 48.5829 713.531C-162.758 826.073 -345.591 868.946 -390.266 821.714" stroke="#52D9F7" stroke-width="0.19" stroke-miterlimit="10"/>
<path opacity="0.66" d="M1520.61 845.596C1453.94 869.701 1364.51 873.682 1230.42 892.361C1159.97 902.167 1080.69 922.136 982.807 913.153C904.11 905.926 808.936 893.206 700.374 853.846C514.606 786.468 327.926 648.91 138.577 681.798C106.155 687.424 75.8019 697.831 48.3613 712.174C-163.335 822.915 -346.725 867.5 -390.465 819.09" stroke="#52D9F7" stroke-width="0.19" stroke-miterlimit="10"/>
<path opacity="0.67" d="M1518.9 844.306C1452.3 867.522 1362.93 868.945 1228.64 888.091C1158.37 898.098 1079.38 919.534 981.762 912.307C903.132 906.481 808.046 895.029 699.218 855.736C514.339 788.981 329.26 648.554 138.533 680.908C106.111 686.401 75.7129 696.63 48.1834 710.795C-163.891 819.757 -347.881 866.054 -390.665 816.466" stroke="#52D9F7" stroke-width="0.19" stroke-miterlimit="10"/>
<path opacity="0.67" d="M1517.19 843.039C1450.65 865.365 1361.33 864.231 1226.84 883.844C1156.74 894.073 1078.07 916.955 980.716 911.462C902.152 907.037 807.156 896.875 698.061 857.649C514.049 791.516 330.593 648.22 138.487 680.019C106.065 685.378 75.6452 695.452 47.9822 709.394C-164.471 816.577 -349.016 864.609 -390.866 813.842" stroke="#52D9F7" stroke-width="0.19" stroke-miterlimit="10"/>
<path opacity="0.68" d="M1515.47 841.772C1449.01 863.209 1359.72 859.517 1225.04 879.597C1155.12 890.027 1076.76 914.398 979.649 910.64C901.152 907.616 806.244 898.721 696.86 859.584C513.738 794.074 331.883 647.909 138.399 679.175C105.977 684.4 75.5124 694.318 47.7606 708.061C-165.026 813.42 -350.172 863.142 -391.088 811.218" stroke="#52D9F7" stroke-width="0.19" stroke-miterlimit="10"/>
<path opacity="0.69" d="M1513.76 840.482C1447.34 861.029 1358.15 854.78 1223.23 875.327C1153.5 885.957 1075.42 911.796 978.604 909.795C900.174 908.171 805.355 900.544 695.704 861.496C513.471 796.586 333.24 647.597 138.354 678.307C105.955 683.421 75.4234 693.161 47.5826 706.704C-165.582 810.262 -351.306 861.696 -391.288 808.594" stroke="#52D9F7" stroke-width="0.19" stroke-miterlimit="10"/>
<path opacity="0.7" d="M1512.05 839.215C1445.69 858.872 1356.54 850.066 1221.45 871.103C1151.9 881.932 1074.13 909.262 977.559 908.972C899.195 908.75 804.465 902.39 694.548 863.409C513.182 799.121 334.574 647.287 138.31 677.418C105.91 682.399 75.3344 691.983 47.3824 705.303C-166.138 807.127 -352.462 860.251 -391.488 805.97" stroke="#52D9F7" stroke-width="0.19" stroke-miterlimit="10"/>
<path opacity="0.7" d="M1510.34 837.947C1444.05 856.715 1354.94 845.352 1219.65 866.855C1150.27 877.884 1072.82 906.704 976.514 908.149C898.217 909.328 803.576 904.235 693.369 865.343C512.893 801.656 335.886 646.997 138.243 676.572C105.844 681.42 75.2231 690.848 47.1822 703.968C-166.694 803.968 -353.596 858.805 -391.688 803.346" stroke="#52D9F7" stroke-width="0.19" stroke-miterlimit="10"/>
<path opacity="0.71" d="M1508.62 836.657C1442.4 854.514 1353.34 840.593 1217.85 862.586C1148.65 873.816 1071.49 904.125 975.446 907.305C897.216 909.906 802.664 906.059 692.19 867.256C512.604 804.191 337.22 646.709 138.176 675.706C105.777 680.42 75.1119 689.693 46.9598 702.612C-167.25 800.834 -354.753 857.338 -391.889 800.722" stroke="#52D9F7" stroke-width="0.19" stroke-miterlimit="10"/>
<path opacity="0.72" d="M1506.91 835.39C1440.76 852.357 1351.74 835.879 1216.07 858.338C1147.05 869.768 1070.2 901.567 974.401 906.459C896.238 910.462 801.797 907.86 691.012 869.146C512.315 806.682 338.532 646.397 138.109 674.816C105.732 679.419 75.0006 688.514 46.7595 701.211C-167.806 797.676 -355.887 855.892 -392.089 798.098" stroke="#52D9F7" stroke-width="0.19" stroke-miterlimit="10"/>
<path opacity="0.73" d="M1505.2 834.1C1439.09 850.177 1350.16 831.142 1214.27 854.069C1145.43 865.699 1068.86 898.987 973.356 905.614C895.259 911.04 800.907 909.684 689.855 871.058C512.026 809.194 339.866 646.085 138.065 673.926C105.688 678.396 74.9339 687.335 46.5817 699.832C-168.34 794.54 -357.043 854.447 -392.289 795.474" stroke="#52D9F7" stroke-width="0.19" stroke-miterlimit="10"/>
<path opacity="0.73" d="M1503.49 832.832C1437.44 848.02 1348.56 826.406 1212.47 849.821C1143.8 861.629 1067.55 896.43 972.288 904.791C894.258 911.64 799.995 911.529 688.677 872.992C511.736 811.752 341.2 645.841 137.998 673.081C105.621 677.417 74.8226 686.201 46.3592 698.498C-168.896 791.405 -358.177 853.001 -392.489 792.85" stroke="#52D9F7" stroke-width="0.19" stroke-miterlimit="10"/>
<path opacity="0.74" d="M1501.78 831.565C1435.8 845.863 1346.96 821.691 1210.67 845.574C1142.18 857.582 1066.22 893.895 971.244 903.946C893.281 912.196 799.107 913.353 687.499 874.905C511.448 814.264 342.513 645.552 137.932 672.214C105.555 676.439 74.7124 685.045 46.16 697.119C-169.451 788.269 -359.333 851.533 -392.688 790.226" stroke="#52D9F7" stroke-width="0.19" stroke-miterlimit="10"/>
<path opacity="0.75" d="M1500.06 830.275C1434.15 843.684 1345.36 816.933 1208.89 841.327C1140.58 853.535 1064.93 891.36 970.199 903.124C892.302 912.797 798.24 915.176 686.343 876.817C511.181 816.777 343.87 645.285 137.888 671.347C105.533 675.438 74.6234 683.911 45.9598 695.763C-169.984 785.134 -360.467 850.088 -392.889 787.602" stroke="#52D9F7" stroke-width="0.19" stroke-miterlimit="10"/>
<path opacity="0.76" d="M1498.35 829.008C1432.51 841.527 1343.76 812.196 1207.09 837.08C1138.95 849.488 1063.59 888.803 969.153 902.301C891.323 913.42 797.349 917.022 685.185 878.752C510.914 819.29 345.225 645.04 137.842 670.48C105.487 674.46 74.5333 682.754 45.7808 694.407C-170.541 782.021 -361.602 848.643 -393.09 784.978" stroke="#52D9F7" stroke-width="0.19" stroke-miterlimit="10"/>
<path opacity="0.76" d="M1496.64 827.74C1430.84 839.37 1342.16 807.46 1205.29 832.832C1137.33 845.418 1062.28 886.268 968.086 901.456C890.323 913.997 796.438 918.823 683.986 880.664C510.603 821.803 346.516 644.773 137.754 669.612C105.399 673.459 74.4009 681.598 45.5594 693.028C-171.074 778.885 -362.758 847.197 -393.289 782.354" stroke="#52D9F7" stroke-width="0.19" stroke-miterlimit="10"/>
<path opacity="0.77" d="M1494.93 826.451C1429.19 837.169 1340.58 802.702 1203.51 828.563C1135.73 841.35 1060.99 883.733 967.063 900.611C889.367 914.576 795.571 920.647 682.851 882.555C510.358 824.294 347.894 644.485 137.732 668.723C105.399 672.459 74.3562 680.42 45.3814 691.65C-171.63 775.772 -363.892 845.73 -393.489 779.731" stroke="#52D9F7" stroke-width="0.19" stroke-miterlimit="10"/>
<path opacity="0.78" d="M1493.24 825.183C1427.57 835.012 1339 797.965 1201.73 824.316C1134.13 837.302 1059.68 881.198 966.018 899.788C888.388 915.198 794.704 922.47 681.673 884.489C510.069 826.828 349.206 644.262 137.665 667.878C105.332 671.48 74.2451 679.285 45.1812 690.293C-172.164 772.659 -365.048 844.284 -393.689 777.106" stroke="#52D9F7" stroke-width="0.19" stroke-miterlimit="10"/>
<path opacity="0.79" d="M1491.52 823.894C1425.93 832.833 1337.4 793.206 1199.93 820.047C1132.51 833.211 1058.37 878.641 964.973 898.921C887.41 915.755 793.814 924.249 680.516 886.38C509.802 829.297 350.563 643.996 137.621 666.967C105.288 670.458 74.1561 678.085 44.9811 688.892C-172.698 769.546 -366.182 842.839 -393.89 774.483" stroke="#52D9F7" stroke-width="0.19" stroke-miterlimit="10"/>
<path opacity="0.79" d="M1489.81 822.626C1424.28 830.676 1335.8 788.47 1198.13 815.799C1130.86 829.163 1057.06 876.128 963.905 898.098C886.432 916.377 792.925 926.095 679.338 888.314C509.513 831.832 351.875 643.773 137.554 666.121C105.221 669.501 74.0448 676.973 44.7809 687.558C-173.254 766.433 -367.339 841.394 -394.09 771.858" stroke="#52D9F7" stroke-width="0.19" stroke-miterlimit="10"/>
<path opacity="0.8" d="M1488.1 821.359C1422.63 828.519 1334.2 783.733 1196.35 811.574C1129.26 825.117 1055.77 873.616 962.86 897.298C885.453 917.022 792.035 927.941 678.159 890.249C509.224 834.345 353.209 643.573 137.487 665.277C105.177 668.523 73.9558 675.839 44.5806 686.202C-173.787 763.32 -368.473 839.949 -394.29 769.235" stroke="#52D9F7" stroke-width="0.19" stroke-miterlimit="10"/>
<path opacity="0.81" d="M1486.39 820.068C1420.97 826.339 1332.6 778.974 1194.55 807.304C1127.64 821.046 1054.45 871.08 961.815 896.43C884.475 917.6 791.146 929.719 677.003 892.138C508.979 836.812 354.565 643.306 137.443 664.364C105.132 667.499 73.8668 674.638 44.3805 684.8C-174.321 760.206 -369.629 838.48 -394.49 766.61" stroke="#52D9F7" stroke-width="0.19" stroke-miterlimit="10"/>
<path opacity="0.82" d="M1484.67 818.801C1419.32 824.182 1330.99 774.216 1192.75 803.057C1126.01 816.978 1053.14 868.568 960.747 895.608C883.496 918.223 790.256 931.543 675.802 894.074C508.668 839.326 355.855 643.106 137.354 663.52C105.043 666.544 73.7333 673.504 44.158 683.466C-174.855 757.115 -370.763 837.035 -394.69 763.987" stroke="#52D9F7" stroke-width="0.19" stroke-miterlimit="10"/>
<path opacity="0.83" d="M1482.96 817.533C1417.67 822.025 1329.39 769.479 1190.97 798.81C1124.41 812.908 1051.85 866.055 959.725 894.785C882.54 918.845 789.389 933.366 674.668 895.986C508.423 841.816 357.234 642.906 137.331 662.652C105.043 665.543 73.6666 672.37 43.9801 682.087C-175.411 754.024 -371.92 835.59 -394.891 761.363" stroke="#52D9F7" stroke-width="0.19" stroke-miterlimit="10"/>
<path opacity="0.83" d="M1481.25 816.244C1416.03 819.824 1327.79 764.698 1189.17 794.54C1122.79 808.839 1050.56 863.52 958.658 893.918C881.562 919.424 788.5 935.145 673.49 897.876C508.135 844.284 358.568 642.661 137.265 661.763C104.977 664.542 73.556 671.191 43.7806 680.709C-175.944 750.911 -373.053 834.144 -395.112 758.738" stroke="#52D9F7" stroke-width="0.19" stroke-miterlimit="10"/>
<path opacity="0.84" d="M1479.54 814.976C1414.38 817.666 1326.19 759.939 1187.37 790.293C1121.14 804.769 1049.25 861.006 957.612 893.094C880.583 920.046 787.609 936.968 672.31 899.81C507.845 846.797 359.879 642.483 137.175 660.895C104.887 663.564 73.4439 670.034 43.5572 679.352C-176.479 747.82 -374.211 832.676 -395.313 756.114" stroke="#52D9F7" stroke-width="0.19" stroke-miterlimit="10"/>
<path opacity="0.85" d="M1477.83 813.686C1412.72 815.487 1324.57 755.18 1185.56 786.045C1119.52 800.699 1047.96 858.516 956.545 892.272C879.605 920.691 786.721 938.792 671.133 901.745C507.579 849.31 361.215 642.305 137.109 660.05C104.821 662.607 73.3336 668.923 43.3358 677.995C-177.011 744.751 -375.344 831.231 -395.513 753.49" stroke="#52D9F7" stroke-width="0.19" stroke-miterlimit="10"/>
<path opacity="0.86" d="M1476.11 812.419C1411.07 813.331 1322.97 750.422 1183.79 781.798C1117.92 796.653 1046.67 856.003 955.522 891.427C878.671 921.291 785.854 940.571 669.998 903.635C507.334 851.778 362.571 642.083 137.087 659.161C104.821 661.607 73.2668 667.744 43.18 676.617C-177.545 741.66 -376.5 829.786 -395.713 750.867" stroke="#52D9F7" stroke-width="0.19" stroke-miterlimit="10"/>
<path opacity="0.86" d="M1474.4 811.151C1409.43 811.151 1321.37 745.663 1181.98 777.551C1116.3 792.583 1045.38 853.49 954.455 890.604C877.692 921.936 784.964 942.394 668.797 905.569C507.023 854.291 363.883 641.927 136.998 658.315C104.732 660.65 73.1333 666.632 42.9354 675.282C-178.079 738.569 -377.634 828.34 -395.913 748.242" stroke="#52D9F7" stroke-width="0.19" stroke-miterlimit="10"/>
<path opacity="0.87" d="M1472.69 809.862C1407.78 808.995 1319.77 740.883 1180.18 773.282C1114.67 788.492 1044.09 850.978 953.41 889.76C876.736 922.537 784.074 944.196 667.641 907.483C506.778 856.76 365.239 641.727 136.954 657.427C104.688 659.651 73.0666 665.454 42.7574 673.882C-178.613 735.501 -378.791 826.873 -396.113 745.619" stroke="#52D9F7" stroke-width="0.19" stroke-miterlimit="10"/>
<path opacity="0.88" d="M1470.98 808.594C1406.13 806.837 1318.16 736.123 1178.4 769.034C1113.05 784.422 1042.82 848.487 952.364 888.914C875.78 923.159 783.207 945.975 666.462 909.372C506.489 859.228 366.551 641.527 136.887 656.537C104.621 658.65 72.9553 664.276 42.5572 672.503C-179.146 732.432 -379.925 825.427 -396.313 742.995" stroke="#52D9F7" stroke-width="0.19" stroke-miterlimit="10"/>
<path opacity="0.89" d="M1469.26 807.326C1404.47 804.68 1316.54 731.365 1176.6 764.787C1111.43 780.353 1041.54 845.974 951.297 888.091C874.802 923.804 782.318 947.798 665.284 911.307C506.2 861.718 367.885 641.393 136.82 655.692C104.576 657.693 72.8441 663.164 42.3348 671.169C-179.702 729.363 -381.081 823.982 -396.514 740.371" stroke="#52D9F7" stroke-width="0.19" stroke-miterlimit="10"/>
<path opacity="0.89" d="M1467.55 806.037C1402.82 802.479 1314.94 726.562 1174.8 760.518C1109.8 776.261 1040.25 843.462 950.252 887.247C873.845 924.405 781.428 949.577 664.128 913.219C505.955 864.209 369.22 641.216 136.776 654.825C104.532 656.715 72.755 662.007 42.1568 669.79C-180.236 726.295 -382.215 822.537 -396.714 737.747" stroke="#52D9F7" stroke-width="0.19" stroke-miterlimit="10"/>
<path opacity="0.9" d="M1465.84 804.769C1401.17 800.322 1313.34 721.803 1173 756.292C1108.18 772.214 1038.96 840.993 949.184 886.424C872.889 925.05 780.538 951.378 662.927 915.154C505.644 866.7 370.531 641.082 136.686 653.958C104.443 655.736 72.6437 660.873 41.9343 668.434C-180.77 723.226 -383.372 821.069 -396.914 735.123" stroke="#52D9F7" stroke-width="0.19" stroke-miterlimit="10"/>
<path opacity="0.91" d="M1464.13 803.501C1399.53 798.164 1311.74 717.044 1171.22 752.045C1106.56 768.144 1037.69 838.48 948.161 885.6C871.955 925.694 779.693 953.179 661.792 917.066C505.421 869.167 371.888 640.926 136.664 653.09C104.42 654.758 72.577 659.739 41.7564 667.055C-181.304 720.157 -384.506 819.623 -397.114 732.498" stroke="#52D9F7" stroke-width="0.19" stroke-miterlimit="10"/>
<path opacity="0.92" d="M1462.44 802.212C1397.91 795.986 1310.14 712.241 1169.44 747.776C1104.95 764.053 1036.44 835.968 947.116 884.756C871.021 926.317 778.804 954.959 660.636 918.979C505.155 871.636 373.244 640.771 136.62 652.223C104.398 653.78 72.488 658.583 41.5785 665.699C-181.837 717.111 -385.662 818.178 -397.314 729.875" stroke="#52D9F7" stroke-width="0.19" stroke-miterlimit="10"/>
<path opacity="0.92" d="M1460.73 800.945C1396.26 793.829 1308.54 707.482 1167.64 743.528C1103.33 759.984 1035.18 833.477 946.071 883.911C870.065 926.94 777.937 956.737 659.458 920.891C504.888 874.105 374.556 640.638 136.553 651.334C104.331 652.779 72.3768 657.427 41.3561 664.32C-182.371 714.042 -386.796 816.733 -397.515 727.251" stroke="#52D9F7" stroke-width="0.19" stroke-miterlimit="10"/>
<path opacity="0.93" d="M1459.01 799.655C1394.59 791.649 1306.91 702.679 1165.86 739.259C1101.71 755.892 1033.91 830.964 945.026 883.066C869.131 927.562 777.069 958.516 658.301 922.781C504.621 876.55 375.913 640.482 136.508 650.444C104.287 651.778 72.3099 656.248 41.178 662.919C-182.927 710.995 -387.953 815.287 -397.715 724.627" stroke="#52D9F7" stroke-width="0.19" stroke-miterlimit="10"/>
<path opacity="0.94" d="M1457.3 798.388C1392.95 789.493 1305.31 697.898 1164.06 735.012C1100.09 751.823 1032.64 828.474 943.982 882.244C868.198 928.208 776.203 960.318 657.123 924.716C504.355 879.041 377.226 640.371 136.443 649.599C104.221 650.845 72.1997 655.136 40.9789 661.585C-183.46 707.949 -389.086 813.82 -397.914 722.003" stroke="#52D9F7" stroke-width="0.19" stroke-miterlimit="10"/>
<path opacity="0.95" d="M1455.59 797.12C1391.3 787.313 1303.69 693.117 1162.26 730.764C1098.46 747.753 1031.37 825.961 942.913 881.398C867.24 928.83 775.29 962.096 655.944 926.628C504.065 881.509 378.536 640.237 136.375 648.732C104.176 649.866 72.0875 654.002 40.7555 660.228C-183.995 704.902 -390.243 812.374 -398.115 719.379" stroke="#52D9F7" stroke-width="0.19" stroke-miterlimit="10"/>
<path opacity="0.95" d="M1453.88 795.83C1389.66 785.134 1302.09 688.314 1160.46 726.517C1096.82 743.684 1030.11 823.471 941.847 880.576C866.285 929.475 774.401 963.876 654.766 928.563C503.799 883.978 379.872 640.148 136.309 647.865C104.11 648.888 71.9772 652.846 40.5562 658.85C-184.527 701.856 -391.376 810.929 -398.314 716.755" stroke="#52D9F7" stroke-width="0.19" stroke-miterlimit="10"/>
<path opacity="0.96" d="M1452.16 794.562C1388.01 782.977 1300.46 683.533 1158.68 722.27C1095.22 739.592 1028.86 820.98 940.824 879.752C865.373 930.097 773.556 965.676 653.61 930.475C503.532 886.446 381.206 640.037 136.264 646.997C104.065 647.909 71.9104 651.711 40.356 657.493C-185.083 698.809 -392.533 809.483 -398.515 714.131" stroke="#52D9F7" stroke-width="0.19" stroke-miterlimit="10"/>
<path opacity="0.97" d="M1450.45 793.295C1386.34 780.82 1298.77 678.507 1156.88 718.022C1093.55 735.412 1027.59 818.489 939.756 878.907C864.417 930.72 772.734 967.233 652.431 932.387C503.332 888.647 382.518 639.926 136.198 646.13C103.998 646.93 71.7992 650.622 40.1558 656.136C-185.55 696.185 -393.667 808.016 -398.715 711.507" stroke="#52D9F7" stroke-width="0.19" stroke-miterlimit="10"/>
<path opacity="0.98" d="M1448.74 792.005C1384.7 778.641 1297.17 673.771 1155.08 713.753C1091.92 731.343 1026.46 816.133 938.711 878.063C863.594 931.499 771.844 969.035 651.252 934.3C503.042 891.16 383.829 639.815 136.131 645.263C103.931 645.975 71.6877 649.466 39.9554 654.758C-186.107 693.05 -394.824 806.571 -398.938 708.883" stroke="#52D9F7" stroke-width="0.19" stroke-miterlimit="10"/>
<path opacity="0.98" d="M1447.03 790.738C1383.05 776.484 1295.57 669.035 1153.28 709.506C1090.3 727.296 1025.17 813.598 937.643 877.24C862.616 932.099 770.932 970.88 650.074 936.213C502.753 893.673 385.164 640.104 136.064 644.374C103.887 645.018 71.5987 648.287 39.733 653.38C-186.685 689.937 -395.958 805.125 -399.138 706.259" stroke="#52D9F7" stroke-width="0.19" stroke-miterlimit="10"/>
<path opacity="0.99" d="M1445.32 789.448C1381.41 774.304 1293.99 664.298 1151.5 705.236C1088.7 723.226 1023.9 811.018 936.62 876.373C861.682 932.632 770.065 972.659 648.939 938.103C502.486 896.164 386.52 639.792 136.042 643.484C103.865 644.017 71.5319 647.131 39.5773 652.001C-187.241 686.802 -397.114 803.68 -399.338 703.613" stroke="#52D9F7" stroke-width="0.19" stroke-miterlimit="10"/>
<path d="M1443.6 788.18C1379.76 772.147 1292.39 659.561 1149.7 700.989C1033.22 734.811 910.381 1014.6 647.761 940.037C502.197 898.721 387.81 639.548 135.975 642.639C-124.243 645.841 -398.07 816.51 -399.538 700.989" stroke="#52D9F7" stroke-width="0.19" stroke-miterlimit="10"/>
<g style="mix-blend-mode:multiply">
<path opacity="0.46" d="M1544.87 881.408C1436.82 956.28 1272.29 1087.23 989.878 937.512C707.467 787.79 234.73 592.059 33.3509 750.365C-168.028 908.649 -337.163 907.87 -405.453 889.969" stroke="#7BEFDA" stroke-width="0.19" stroke-miterlimit="10"/>
<path opacity="0.47" d="M1543.16 880.14C1464.51 933.776 1355.83 1020.21 1193.24 1004.51C1132.86 998.753 1065.19 978.962 988.699 938.735C914.628 899.731 827.414 857.481 735.108 819.166C541.29 738.535 325.902 678.851 166.351 702.022C114.249 709.649 68.3297 726.371 31.3939 754.634C-169.74 909.716 -338.319 906.291 -405.653 887.345" stroke="#7BEFDA" stroke-width="0.19" stroke-miterlimit="10"/>
<path opacity="0.48" d="M1541.45 878.873C1463.02 931.53 1354.59 1019.86 1192.28 1004.98C1131.86 999.554 1064.22 979.941 987.521 939.958C913.471 901.244 826.235 859.193 733.574 820.946C540.445 740.87 325.457 684.588 164.594 707.47C112.492 714.986 66.4172 731.197 29.4592 758.949C-171.986 910.072 -339.476 904.713 -405.854 884.721" stroke="#7BEFDA" stroke-width="0.19" stroke-miterlimit="10"/>
<path opacity="0.48" d="M1539.73 877.584C1461.5 929.24 1353.34 1019.48 1191.32 1005.4C1130.84 1000.33 1063.24 980.875 986.342 941.16C912.315 902.734 825.057 860.862 732.039 822.703C539.6 743.183 325.034 690.281 162.837 712.874C110.736 720.301 64.5715 736.045 27.5023 763.196C-173.943 910.784 -340.61 903.134 -406.054 882.098" stroke="#7BEFDA" stroke-width="0.19" stroke-miterlimit="10"/>
<path opacity="0.49" d="M1538.02 876.316C1460.01 926.972 1352.14 1018.79 1190.35 1005.87C1129.82 1001.02 1062.22 981.876 985.142 942.382C911.137 904.246 823.856 862.574 730.483 824.459C538.732 745.496 324.523 695.662 161.058 718.3C108.934 725.527 62.6813 740.937 25.5232 767.488C-175.878 911.495 -341.766 901.577 -406.254 879.474" stroke="#7BEFDA" stroke-width="0.19" stroke-miterlimit="10"/>
<path opacity="0.5" d="M1536.31 875.048C1458.5 924.704 1350.9 1018.37 1189.39 1006.34C1128.79 1001.82 1061.24 982.854 983.941 943.605C909.958 905.758 822.655 864.263 728.948 826.238C537.887 747.852 324.078 701.31 159.301 723.725C107.178 730.819 60.8356 745.807 23.5885 771.78C-177.813 912.229 -342.901 899.998 -406.454 876.85" stroke="#7BEFDA" stroke-width="0.19" stroke-miterlimit="10"/>
<path opacity="0.51" d="M1534.6 873.759C1457.01 922.413 1349.65 1017.92 1188.43 1006.76C1127.77 1002.56 1060.26 983.81 982.762 944.784C908.801 907.225 821.387 866.153 727.414 827.972C536.864 750.587 323.633 706.914 157.567 729.129C105.443 736.111 58.9898 750.654 21.6538 776.049C-179.747 912.94 -344.057 898.419 -406.654 874.226" stroke="#7BEFDA" stroke-width="0.19" stroke-miterlimit="10"/>
<path opacity="0.51" d="M1532.88 872.491C1455.5 920.167 1348.41 1017.5 1187.48 1007.23C1126.77 1003.36 1059.26 984.788 981.583 946.007C907.645 908.737 820.209 867.888 725.879 829.751C535.997 752.989 323.188 712.562 155.81 734.554C103.664 741.403 57.1439 755.546 19.6967 780.318C-181.66 913.674 -345.191 896.841 -406.877 871.601" stroke="#7BEFDA" stroke-width="0.19" stroke-miterlimit="10"/>
<path opacity="0.52" d="M1531.17 871.201C1454.01 917.877 1347.18 1017.03 1186.52 1007.67C1125.75 1004.13 1058.19 985.922 980.404 947.23C906.399 910.405 819.008 869.622 724.345 831.53C535.129 755.39 322.743 718.21 154.053 740.002C101.907 746.74 55.2981 760.438 17.7619 784.632C-183.55 914.385 -346.348 895.262 -407.077 868.977" stroke="#7BEFDA" stroke-width="0.19" stroke-miterlimit="10"/>
<path opacity="0.53" d="M1529.46 869.933C1452.5 915.608 1345.94 1016.63 1185.56 1008.14C1124.72 1004.91 1057.21 986.923 979.227 948.453C905.244 911.939 817.83 871.357 722.811 833.287C534.263 757.77 322.299 723.858 152.297 745.406C100.151 752.01 53.4533 765.286 15.806 788.902C-185.417 915.119 -347.481 893.683 -407.276 866.353" stroke="#7BEFDA" stroke-width="0.19" stroke-miterlimit="10"/>
<path opacity="0.54" d="M1527.77 868.667C1451.03 913.341 1344.71 1016.21 1184.63 1008.58C1123.75 1005.69 1056.23 987.924 978.048 949.654C904.065 913.452 816.629 873.07 721.277 835.044C533.396 760.15 321.855 729.485 150.54 750.833C98.3943 757.326 51.6076 770.157 13.8491 793.194C-187.285 915.854 -348.637 892.105 -407.477 863.73" stroke="#7BEFDA" stroke-width="0.19" stroke-miterlimit="10"/>
<path opacity="0.54" d="M1526.06 867.377C1449.52 911.073 1343.47 1015.76 1183.67 1009.03C1122.72 1006.45 1055.23 988.903 976.868 950.855C902.908 914.942 815.427 874.782 719.741 836.801C532.527 762.507 321.409 735.133 148.783 756.236C96.6366 762.618 49.7609 775.026 11.9134 797.441C-189.154 916.588 -349.795 890.548 -407.678 861.106" stroke="#7BEFDA" stroke-width="0.19" stroke-miterlimit="10"/>
<path opacity="0.55" d="M1524.35 866.109C1448.03 908.804 1342.22 1015.34 1182.72 1009.49C1121.7 1007.25 1054.25 989.903 975.691 952.077C901.731 916.476 814.25 876.494 718.208 838.579C531.661 764.908 320.987 740.781 147.027 761.684C94.8809 767.955 47.9384 779.918 9.95752 801.755C-190.999 917.321 -350.928 888.969 -407.877 858.482" stroke="#7BEFDA" stroke-width="0.19" stroke-miterlimit="10"/>
<path opacity="0.56" d="M1522.63 864.841C1446.52 906.536 1340.98 1014.94 1181.76 1009.96C1120.7 1008.05 1053.25 990.903 974.512 953.323C900.574 918.032 813.071 878.25 716.673 840.381C530.794 767.332 320.542 746.473 145.27 767.132C93.1018 773.291 46.0926 784.81 8.00053 806.069C-192.822 918.077 -352.084 887.39 -408.077 855.858" stroke="#7BEFDA" stroke-width="0.19" stroke-miterlimit="10"/>
<path opacity="0.57" d="M1520.92 863.552C1445.03 904.246 1339.73 1014.52 1180.81 1010.38C1119.68 1008.8 1052.25 991.86 973.334 954.502C899.418 919.5 811.87 879.941 715.139 842.093C529.927 769.645 320.098 752.078 143.535 772.513C91.3673 778.54 44.2914 789.658 6.08811 810.316C-194.624 918.833 -353.218 885.811 -408.277 853.234" stroke="#7BEFDA" stroke-width="0.19" stroke-miterlimit="10"/>
<path opacity="0.57" d="M1519.21 862.285C1443.51 902 1338.49 1014.1 1179.85 1010.85C1118.65 1009.61 1051.27 992.861 972.133 955.725C898.217 921.035 810.669 881.675 713.582 843.872C529.059 772.025 319.631 757.748 141.756 777.962C89.5882 783.877 42.4234 794.551 4.1089 814.608C-196.425 919.59 -354.375 884.233 -408.478 850.61" stroke="#7BEFDA" stroke-width="0.19" stroke-miterlimit="10"/>
<path opacity="0.58" d="M1517.5 860.995C1442.02 899.709 1337.24 1013.67 1178.89 1011.29C1117.63 1010.36 1050.27 993.861 970.954 956.925C897.06 922.525 809.469 883.365 712.07 845.629C528.214 774.381 319.23 763.396 140.022 783.365C87.8536 789.169 40.6221 799.42 2.17425 818.878C-198.204 920.345 -355.509 882.653 -408.678 847.964" stroke="#7BEFDA" stroke-width="0.19" stroke-miterlimit="10"/>
<path opacity="0.59" d="M1515.78 859.727C1440.51 897.441 1336 1013.27 1177.94 1011.74C1116.61 1011.14 1049.29 994.84 969.775 958.149C895.903 924.059 808.289 885.1 710.535 847.408C527.346 776.761 318.785 769.089 138.264 788.813C86.0961 794.506 38.7979 804.313 0.238795 823.192C-199.961 921.168 -356.644 881.097 -408.856 845.384" stroke="#7BEFDA" stroke-width="0.19" stroke-miterlimit="10"/>
<path opacity="0.6" d="M1514.07 858.46C1439.02 895.173 1334.75 1012.87 1176.98 1012.21C1115.61 1011.94 1048.29 995.84 968.597 959.371C894.726 925.571 807.089 886.834 709.002 849.187C526.502 779.14 318.341 774.759 136.508 794.239C84.3401 799.821 36.9752 809.205 -1.71733 827.483C-201.74 921.947 -357.799 879.54 -409.078 842.76" stroke="#7BEFDA" stroke-width="0.19" stroke-miterlimit="10"/>
<path opacity="0.6" d="M1512.36 857.17C1437.51 892.883 1333.51 1012.47 1176 1012.65C1114.56 1012.72 1047.29 996.819 967.396 960.572C893.547 927.083 805.888 888.524 707.445 850.921C525.612 781.475 317.896 780.408 134.729 799.643C82.5611 805.113 35.1294 814.052 -3.67427 831.731C-203.474 922.725 -358.956 877.917 -409.278 840.114" stroke="#7BEFDA" stroke-width="0.19" stroke-miterlimit="10"/>
<path opacity="0.61" d="M1510.65 855.903C1436.02 890.637 1332.24 1012.07 1175.05 1013.12C1113.54 1013.52 1046.29 997.82 966.217 961.796C892.39 928.596 804.71 890.259 705.91 852.701C524.767 783.855 317.451 786.078 132.972 805.069C80.8042 810.45 33.3281 818.945 -5.63122 836.023C-205.209 923.526 -360.112 876.361 -409.479 837.49" stroke="#7BEFDA" stroke-width="0.19" stroke-miterlimit="10"/>
<path opacity="0.62" d="M1508.94 854.635C1434.51 888.369 1330.99 1011.67 1174.09 1013.56C1112.52 1014.3 1045.31 998.798 965.017 962.996C891.212 930.108 803.487 891.949 704.354 854.457C523.878 786.211 316.985 791.749 131.194 810.494C79.0257 815.765 31.4829 823.837 -7.60985 840.314C-206.965 924.348 -361.29 874.782 -409.723 834.866" stroke="#7BEFDA" stroke-width="0.19" stroke-miterlimit="10"/>
<path opacity="0.63" d="M1507.22 853.345C1433.02 886.078 1329.75 1011.27 1173.13 1014.01C1111.49 1015.07 1044.31 999.754 963.838 964.219C890.055 931.619 802.308 893.683 702.819 856.236C523.033 788.568 316.561 797.441 129.459 815.92C77.2906 821.079 29.7033 828.728 -9.52285 844.606C-208.634 925.193 -362.403 873.225 -409.879 832.264" stroke="#7BEFDA" stroke-width="0.19" stroke-miterlimit="10"/>
<path opacity="0.63" d="M1505.51 852.077C1431.51 883.809 1328.5 1010.89 1172.18 1014.47C1110.47 1015.9 1043.34 1000.75 962.66 965.442C888.877 933.131 801.13 895.395 701.286 858.014C522.188 790.925 316.117 803.133 127.703 821.368C75.5347 826.416 27.8807 833.62 -11.4789 848.897C-210.323 926.038 -363.558 871.646 -410.101 829.64" stroke="#7BEFDA" stroke-width="0.19" stroke-miterlimit="10"/>
<path opacity="0.64" d="M1503.8 850.788C1430.02 881.542 1327.26 1010.47 1171.22 1014.92C1109.47 1016.68 1042.34 1001.73 961.481 966.643C887.721 934.644 799.951 897.086 699.751 859.75C521.321 793.261 315.695 808.782 125.946 826.75C73.7556 831.686 26.0793 838.491 -13.4359 853.145C-212.013 926.861 -364.715 870.045 -410.301 826.972" stroke="#7BEFDA" stroke-width="0.19" stroke-miterlimit="10"/>
<path opacity="0.65" d="M1502.09 849.52C1428.5 879.274 1325.99 1010.09 1170.26 1015.36C1108.45 1017.45 1041.36 1002.71 960.302 967.844C886.564 936.134 798.75 898.798 698.216 861.506C520.475 795.596 315.249 814.453 124.189 832.176C71.9981 837.023 24.2774 843.383 -15.3713 857.437C-213.681 927.75 -365.827 868.466 -410.479 824.37" stroke="#7BEFDA" stroke-width="0.19" stroke-miterlimit="10"/>
<path opacity="0.66" d="M1500.37 848.253C1427.01 877.006 1324.75 1009.72 1169.31 1015.83C1107.42 1018.26 1040.36 1003.71 959.102 969.067C885.386 937.646 797.549 900.51 696.66 863.285C519.608 797.953 314.783 820.145 122.41 837.602C70.2196 842.338 22.4544 848.275 -17.35 861.729C-215.349 928.64 -367.006 866.91 -410.724 821.746" stroke="#7BEFDA" stroke-width="0.19" stroke-miterlimit="10"/>
<path opacity="0.67" d="M1498.66 846.963C1425.5 874.715 1323.5 1009.32 1168.35 1016.28C1106.4 1019.06 1039.38 1004.69 957.923 970.29C884.23 939.158 796.371 902.222 695.148 865.064C518.786 800.31 314.383 825.86 120.676 843.049C68.4853 847.674 20.6756 853.189 -19.2844 866.02C-216.994 929.529 -368.139 865.331 -410.901 819.122" stroke="#7BEFDA" stroke-width="0.19" stroke-miterlimit="10"/>
<path opacity="0.67" d="M1496.97 845.695C1424.03 872.469 1322.28 1008.96 1167.42 1016.72C1105.4 1019.83 1038.42 1005.65 956.766 971.49C883.095 940.67 795.214 903.912 693.635 866.821C517.962 802.644 313.959 831.53 118.94 848.453C66.75 852.989 18.8958 858.081 -21.1976 870.29C-218.596 930.441 -369.252 863.752 -411.08 816.498" stroke="#7BEFDA" stroke-width="0.19" stroke-miterlimit="10"/>
<path opacity="0.68" d="M1495.26 844.428C1422.52 870.201 1321.01 1008.58 1166.46 1017.19C1104.38 1020.63 1037.42 1006.65 955.588 972.713C881.939 942.182 794.036 905.624 692.102 868.577C517.118 804.979 313.538 837.223 117.185 853.879C64.9941 858.304 17.0955 862.973 -23.1536 874.581C-220.218 931.375 -370.408 862.173 -411.279 813.874" stroke="#7BEFDA" stroke-width="0.19" stroke-miterlimit="10"/>
<path opacity="0.69" d="M1493.55 843.138C1421.03 867.91 1319.77 1008.2 1165.51 1017.63C1103.38 1021.43 1036.44 1007.63 954.41 973.914C880.783 943.672 792.858 907.314 690.567 870.334C516.251 807.292 313.093 842.893 115.45 859.282C63.2596 863.618 15.3165 867.866 -25.0883 878.851C-221.82 932.309 -371.542 860.594 -411.479 811.25" stroke="#7BEFDA" stroke-width="0.19" stroke-miterlimit="10"/>
<path opacity="0.7" d="M1491.83 841.87C1419.52 865.642 1318.52 1007.83 1164.55 1018.1C1102.35 1022.24 1035.46 1008.6 953.231 975.137C879.604 945.184 791.679 909.026 689.032 872.113C515.405 809.649 312.67 848.608 113.693 864.73C61.5026 868.955 13.5372 872.802 -27.0232 883.142C-223.465 933.265 -372.721 859.015 -411.702 808.626" stroke="#7BEFDA" stroke-width="0.19" stroke-miterlimit="10"/>
<path opacity="0.7" d="M1490.12 840.603C1418.03 863.374 1317.27 1007.47 1163.59 1018.54C1101.33 1023.04 1034.46 1009.58 952.03 976.36C878.425 946.696 790.456 910.739 687.476 873.892C514.538 812.006 312.203 854.323 111.914 870.156C59.7235 874.292 11.7137 877.716 -29.0024 887.434C-225.044 934.243 -373.855 857.436 -411.902 806.002" stroke="#7BEFDA" stroke-width="0.19" stroke-miterlimit="10"/>
<path opacity="0.71" d="M1488.41 839.313C1416.52 861.105 1316.01 1007.09 1162.64 1018.99C1100.31 1023.84 1033.48 1010.56 950.852 977.561C877.269 948.186 789.277 912.428 685.942 875.626C513.715 814.296 311.781 859.993 110.157 875.559C57.9668 879.584 9.9347 882.609 -30.9593 891.704C-226.645 935.244 -375.011 855.857 -412.103 803.378" stroke="#7BEFDA" stroke-width="0.19" stroke-miterlimit="10"/>
<path opacity="0.72" d="M1486.7 838.046C1415.03 858.838 1314.76 1006.74 1161.66 1019.46C1099.26 1024.64 1032.48 1011.54 949.651 978.785C876.091 949.699 788.076 914.142 684.385 877.406C512.848 816.632 311.314 865.709 108.378 880.986C56.1877 884.922 8.11122 887.524 -32.9162 895.974C-228.224 936.245 -376.168 854.302 -412.303 800.755" stroke="#7BEFDA" stroke-width="0.19" stroke-miterlimit="10"/>
<path opacity="0.73" d="M1484.99 836.757C1413.52 856.548 1313.52 1006.36 1160.7 1019.88C1098.24 1025.42 1031.48 1012.5 948.472 979.963C874.934 951.166 786.898 915.809 682.85 879.14C512.003 818.945 310.891 871.402 106.621 886.39C54.431 890.215 6.3322 892.438 -34.8731 900.243C-229.803 937.268 -377.302 852.723 -412.503 798.131" stroke="#7BEFDA" stroke-width="0.19" stroke-miterlimit="10"/>
<path opacity="0.73" d="M1483.27 835.489C1412.03 854.279 1312.27 1006 1159.75 1020.35C1097.22 1026.24 1030.5 1013.47 947.293 981.209C873.778 952.701 785.719 917.544 681.316 880.942C511.158 821.302 310.446 877.139 104.865 891.838C52.6741 895.574 4.53088 897.375 -36.8301 904.557C-231.382 938.313 -378.458 851.144 -412.703 795.507" stroke="#7BEFDA" stroke-width="0.19" stroke-miterlimit="10"/>
<path opacity="0.74" d="M1481.56 834.222C1410.51 852.033 1311.03 1005.65 1158.79 1020.81C1096.22 1027.04 1029.53 1014.45 946.093 982.432C872.6 954.213 784.519 919.234 679.76 882.721C510.292 823.637 310.002 882.876 103.086 897.286C50.8961 900.933 2.7306 902.334 -38.786 908.871C-232.96 939.381 -379.591 849.565 -412.902 792.883" stroke="#7BEFDA" stroke-width="0.19" stroke-miterlimit="10"/>
<path opacity="0.75" d="M1479.85 832.932C1409.02 849.743 1309.76 1005.27 1157.83 1021.26C1095.19 1027.84 1028.55 1015.43 944.914 983.632C871.443 955.703 783.34 920.924 678.247 884.455C509.468 825.927 309.601 888.547 101.373 902.667C49.1828 906.203 0.995109 907.226 -40.6994 913.096C-234.518 940.47 -380.749 847.986 -413.104 790.259" stroke="#7BEFDA" stroke-width="0.19" stroke-miterlimit="10"/>
<path opacity="0.76" d="M1478.14 831.664C1407.51 847.475 1308.51 1004.94 1156.88 1021.7C1094.17 1028.64 1027.55 1016.39 943.735 984.833C870.286 957.192 782.161 922.592 676.713 886.212C508.645 828.217 309.156 894.261 99.6164 908.093C47.426 911.54 -0.806185 912.162 -42.6563 917.388C-236.097 941.56 -381.883 846.407 -413.304 787.635" stroke="#7BEFDA" stroke-width="0.19" stroke-miterlimit="10"/>
<path opacity="0.76" d="M1476.43 830.397C1406.02 845.206 1307.27 1004.6 1155.92 1022.17C1093.15 1029.46 1026.57 1017.39 942.558 986.056C869.131 958.704 781.006 924.304 675.179 887.991C507.801 830.552 308.735 899.999 97.8606 913.519C45.6702 916.877 -2.58419 917.099 -44.59 921.68C-237.652 942.694 -383.038 844.828 -413.503 785.011" stroke="#7BEFDA" stroke-width="0.19" stroke-miterlimit="10"/>
<path opacity="0.77" d="M1474.71 829.107C1404.51 842.938 1306.02 1004.22 1154.97 1022.61C1092.12 1030.26 1025.59 1018.34 941.379 987.279C867.974 960.194 779.827 925.994 673.645 889.769C506.956 832.887 308.29 905.736 96.1037 918.967C43.9133 922.213 -4.36332 922.08 -46.547 925.994C-239.231 943.828 -384.195 843.25 -413.703 782.387" stroke="#7BEFDA" stroke-width="0.19" stroke-miterlimit="10"/>
<path opacity="0.78" d="M1473 827.839C1403.02 840.67 1304.78 1003.89 1154.01 1023.08C1091.1 1031.09 1024.61 1019.32 940.177 988.502C866.817 961.706 778.625 927.706 672.087 891.548C506.087 835.2 307.844 911.473 94.3237 924.393C42.1334 927.55 -6.16553 927.039 -48.5271 930.263C-240.789 944.984 -385.33 841.693 -413.904 779.763" stroke="#7BEFDA" stroke-width="0.19" stroke-miterlimit="10"/>
<path opacity="0.79" d="M1471.29 826.549C1401.51 838.38 1303.53 1003.53 1153.05 1023.5C1090.1 1031.86 1023.63 1020.26 939 989.681C865.662 963.174 777.447 929.351 670.554 893.261C505.266 837.468 307.4 917.143 92.568 929.774C40.3776 932.843 -7.96577 931.953 -50.4608 934.51C-242.344 946.14 -386.485 840.114 -414.104 777.139" stroke="#7BEFDA" stroke-width="0.19" stroke-miterlimit="10"/>
<path opacity="0.79" d="M1469.58 825.282C1400.02 836.111 1302.29 1003.2 1152.1 1023.97C1089.08 1032.69 1022.66 1021.26 937.821 990.904C864.505 964.686 776.269 931.041 669.019 895.04C504.42 839.78 306.978 922.88 90.8112 935.222C38.6208 938.202 -9.74482 936.934 -52.4177 938.824C-243.923 947.341 -387.619 838.535 -414.304 774.515" stroke="#7BEFDA" stroke-width="0.19" stroke-miterlimit="10"/>
<path opacity="0.8" d="M1467.89 824.014C1398.53 833.865 1301.06 1002.87 1151.16 1024.44C1088.08 1033.51 1021.68 1022.24 936.664 992.126C863.371 966.176 775.112 932.731 667.507 896.818C503.62 842.115 306.577 928.64 89.0766 940.648C36.8862 943.539 -11.5016 941.893 -54.3524 943.116C-245.502 948.542 -388.776 836.956 -414.504 771.891" stroke="#7BEFDA" stroke-width="0.19" stroke-miterlimit="10"/>
<path opacity="0.81" d="M1466.17 822.725C1397.04 831.575 1299.8 1002.51 1150.21 1024.86C1087.05 1034.29 1020.7 1023.17 935.486 993.327C862.215 967.666 773.933 934.421 665.973 898.575C502.775 844.406 306.132 934.355 87.3419 946.073C35.1515 948.875 -13.2808 946.852 -56.2651 947.385C-247.059 949.765 -389.91 835.377 -414.727 769.267" stroke="#7BEFDA" stroke-width="0.19" stroke-miterlimit="10"/>
<path opacity="0.82" d="M1464.46 821.457C1395.53 829.307 1298.55 1002.2 1149.25 1025.33C1086.03 1035.13 1019.72 1024.15 934.307 994.55C861.058 969.178 772.777 936.111 664.438 900.354C501.952 846.718 305.71 940.114 85.5853 951.499C33.3949 954.19 -15.0597 951.833 -58.2218 951.677C-248.638 951.01 -391.044 833.799 -414.904 766.643" stroke="#7BEFDA" stroke-width="0.19" stroke-miterlimit="10"/>
<path opacity="0.83" d="M1462.75 820.189C1394.04 827.038 1297.31 1001.87 1148.3 1025.79C1085.03 1035.96 1018.74 1025.13 933.107 995.773C859.88 970.668 771.577 937.801 662.882 902.111C501.085 849.009 305.244 945.851 83.807 956.925C31.6166 959.527 -16.8602 956.814 -60.178 955.969C-250.238 952.278 -392.2 832.22 -415.126 764.019" stroke="#7BEFDA" stroke-width="0.19" stroke-miterlimit="10"/>
<path opacity="0.83" d="M1461.04 818.9C1392.52 824.748 1296.08 1001.51 1147.32 1026.24C1083.98 1036.76 1017.74 1026.08 931.905 996.974C858.701 972.157 770.375 939.447 661.325 903.867C500.239 851.299 304.798 951.588 82.027 962.329C29.8366 964.841 -18.6847 961.773 -62.1581 960.238C-251.84 953.545 -393.357 830.641 -415.327 761.395" stroke="#7BEFDA" stroke-width="0.19" stroke-miterlimit="10"/>
<path opacity="0.84" d="M1459.32 817.632C1391.03 822.502 1294.84 1001.2 1146.36 1026.68C1082.96 1037.56 1016.76 1027.04 930.727 998.197C857.545 973.647 769.197 941.137 659.813 905.646C499.417 853.612 304.398 957.347 80.2925 967.777C28.1021 970.201 -20.4414 966.776 -64.0928 964.53C-253.419 954.835 -394.513 829.084 -415.527 758.771" stroke="#7BEFDA" stroke-width="0.19" stroke-miterlimit="10"/>
<path opacity="0.85" d="M1457.61 816.342C1389.55 820.211 1293.59 1000.87 1145.4 1027.13C1081.96 1038.38 1015.78 1027.99 929.549 999.398C856.389 975.137 768.041 942.804 658.279 907.403C498.595 855.902 303.954 963.085 78.5367 973.18C26.3463 975.515 -22.2417 971.735 -66.0265 968.8C-255.042 956.124 -395.646 827.505 -415.727 756.146" stroke="#7BEFDA" stroke-width="0.19" stroke-miterlimit="10"/>
<path opacity="0.86" d="M1455.9 815.075C1388.03 817.943 1292.35 1000.55 1144.45 1027.59C1080.94 1039.2 1014.81 1028.97 928.371 1000.62C855.255 976.627 766.863 944.494 656.745 909.182C497.75 858.192 303.531 968.844 76.7799 978.628C24.5672 980.874 -24.043 976.76 -67.9834 973.113C-256.665 957.459 -396.803 825.926 -415.927 753.522" stroke="#7BEFDA" stroke-width="0.19" stroke-miterlimit="10"/>
<path opacity="0.86" d="M1454.19 813.808C1386.54 815.676 1291.1 1000.22 1143.49 1028.06C1079.91 1040.05 1013.8 1029.95 927.169 1001.84C854.075 978.14 765.661 946.163 655.187 910.94C496.904 860.484 303.063 974.582 74.9998 984.033C22.7872 986.19 -25.8675 981.72 -69.9636 977.384C-258.289 958.772 -397.938 824.348 -416.128 750.899" stroke="#7BEFDA" stroke-width="0.19" stroke-miterlimit="10"/>
<path opacity="0.87" d="M1452.48 812.517C1385.03 813.407 1289.86 999.887 1142.54 1028.48C1078.92 1040.83 1012.83 1030.89 925.991 1003.02C852.92 979.584 764.505 947.808 653.654 912.673C496.082 862.729 302.642 980.318 73.2663 989.435C21.0537 991.503 -27.6455 986.7 -71.875 981.63C-259.912 960.127 -399.093 822.769 -416.327 748.274" stroke="#7BEFDA" stroke-width="0.19" stroke-miterlimit="10"/>
<path opacity="0.88" d="M1450.76 811.251C1383.54 811.14 1288.63 999.599 1141.58 1028.95C1077.89 1041.67 1011.85 1031.86 924.812 1004.27C851.764 981.12 763.327 949.499 652.119 914.475C495.237 865.064 302.197 986.101 71.5095 994.884C19.2969 996.863 -29.4468 991.727 -73.8319 985.945C-261.557 961.484 -400.228 821.191 -416.527 745.651" stroke="#7BEFDA" stroke-width="0.19" stroke-miterlimit="10"/>
<path opacity="0.89" d="M1449.05 809.983C1382.03 808.871 1287.39 999.287 1140.62 1029.42C1076.87 1042.52 1010.87 1032.82 923.634 1005.49C850.607 982.609 762.17 951.188 650.585 916.254C494.414 867.355 301.774 991.882 69.7527 1000.33C17.5401 1002.22 -31.248 996.752 -75.7889 990.259C-263.225 962.841 -401.384 819.612 -416.728 743.027" stroke="#7BEFDA" stroke-width="0.19" stroke-miterlimit="10"/>
<path opacity="0.89" d="M1447.34 808.693C1380.54 806.581 1286.14 998.954 1139.67 1029.84C1075.87 1043.29 1009.89 1033.75 922.455 1006.67C849.451 984.055 760.992 952.812 649.05 917.989C493.591 869.601 301.352 997.619 67.9959 1005.71C15.7833 1007.54 -33.0493 1001.73 -77.7236 994.506C-264.893 964.219 -402.54 818.033 -416.928 740.403" stroke="#7BEFDA" stroke-width="0.19" stroke-miterlimit="10"/>
<path opacity="0.9" d="M1445.63 807.426C1379.03 804.335 1284.92 998.642 1138.71 1030.31C1074.85 1044.14 1008.91 1034.73 921.276 1007.89C848.294 985.567 759.813 954.479 647.516 919.745C492.746 871.891 300.907 1003.36 66.2391 1011.14C14.0265 1012.87 -34.8728 1006.74 -79.6805 998.776C-266.561 965.62 -403.675 816.476 -417.128 737.779" stroke="#7BEFDA" stroke-width="0.19" stroke-miterlimit="10"/>
<path opacity="0.91" d="M1443.91 806.158C1377.54 802.067 1283.67 998.353 1137.75 1030.77C1073.84 1044.98 1007.93 1035.69 920.076 1009.12C847.138 987.057 758.634 956.147 645.959 921.524C491.901 874.181 300.462 1009.14 64.4601 1016.57C12.2475 1018.21 -36.6963 1011.76 -81.6597 1003.07C-268.273 966.999 -404.831 814.897 -417.328 735.155" stroke="#7BEFDA" stroke-width="0.19" stroke-miterlimit="10"/>
<path opacity="0.92" d="M1442.2 804.868C1376.02 799.776 1282.45 998.02 1136.8 1031.22C1072.82 1045.78 1006.96 1036.65 918.897 1010.34C845.982 988.547 757.456 957.815 644.425 923.303C491.078 876.472 300.017 1014.94 62.7033 1022.01C10.4907 1023.57 -38.5198 1016.79 -83.5944 1007.38C-269.963 968.422 -405.965 813.319 -417.528 732.531" stroke="#7BEFDA" stroke-width="0.19" stroke-miterlimit="10"/>
<path opacity="0.92" d="M1440.49 803.601C1374.53 797.508 1281.21 997.73 1135.84 1031.66C1071.82 1046.61 1005.98 1037.6 917.718 1011.54C844.825 990.014 756.299 959.46 642.913 925.06C490.277 878.74 299.617 1020.7 60.9687 1027.42C8.75608 1028.88 -40.3211 1021.79 -85.529 1011.65C-271.698 969.823 -407.121 811.74 -417.729 729.907" stroke="#7BEFDA" stroke-width="0.19" stroke-miterlimit="10"/>
<path opacity="0.93" d="M1438.8 802.311C1373.04 795.217 1280 997.419 1134.91 1032.11C1070.82 1047.43 1005.02 1038.54 916.562 1012.74C843.691 991.504 755.143 961.106 641.4 926.816C489.455 881.008 299.194 1026.46 59.2564 1032.84C7.04378 1034.22 -42.1001 1026.82 -87.4415 1015.92C-273.41 971.246 -408.256 810.161 -417.929 727.283" stroke="#7BEFDA" stroke-width="0.19" stroke-miterlimit="10"/>
<path opacity="0.94" d="M1437.09 801.043C1371.55 792.971 1278.76 997.108 1133.95 1032.58C1069.82 1048.28 1004.04 1039.51 915.383 1013.96C842.535 992.994 753.987 962.774 639.866 928.573C488.632 883.254 298.772 1032.24 57.4996 1038.25C5.287 1039.56 -43.9236 1031.82 -89.3761 1020.19C-275.167 972.669 -409.412 808.582 -418.129 724.659" stroke="#7BEFDA" stroke-width="0.19" stroke-miterlimit="10"/>
<path opacity="0.95" d="M1435.37 799.776C1370.04 790.703 1277.54 996.819 1133 1033.04C1068.8 1049.12 1003.11 1040.29 914.182 1015.19C841.401 994.328 752.808 964.441 638.309 930.352C487.787 885.544 298.305 1038.02 55.7207 1043.69C3.50804 1044.92 -45.7693 1036.87 -91.3553 1024.5C-276.924 974.115 -410.568 807.003 -418.329 722.035" stroke="#7BEFDA" stroke-width="0.19" stroke-miterlimit="10"/>
<path opacity="0.95" d="M1433.66 798.486C1368.55 788.413 1276.31 996.507 1132.02 1033.47C1067.77 1049.92 1002.11 1041.25 912.982 1016.39C840.223 995.818 751.608 966.065 636.753 932.109C486.942 887.812 297.861 1043.81 53.9423 1049.1C1.72972 1050.23 -47.6143 1041.89 -93.3337 1028.77C-278.702 975.56 -411.702 805.446 -418.551 719.411" stroke="#7BEFDA" stroke-width="0.19" stroke-miterlimit="10"/>
<path opacity="0.96" d="M1431.95 797.219C1367.04 786.145 1275.09 996.218 1131.06 1033.93C1066.75 1050.77 1001.13 1042.23 911.804 1017.61C839.066 997.33 750.452 967.732 635.219 933.888C486.12 890.081 297.438 1050.01 52.1856 1054.55C-0.0270474 1055.68 -49.46 1046.94 -95.2684 1033.06C-280.481 976.983 -412.858 803.867 -418.751 716.787" stroke="#7BEFDA" stroke-width="0.19" stroke-miterlimit="10"/>
<path opacity="0.97" d="M1430.24 795.951C1365.55 783.899 1273.87 995.929 1130.1 1034.4C1065.75 1051.61 1000.13 1043.2 910.625 1018.83C837.91 998.842 749.34 969.178 633.685 935.644C485.364 892.082 296.993 1055.72 50.4288 1059.95C-1.78383 1060.99 -51.2836 1051.94 -97.2253 1037.33C-282.282 978.451 -413.992 802.289 -418.951 714.163" stroke="#7BEFDA" stroke-width="0.19" stroke-miterlimit="10"/>
<path opacity="0.98" d="M1428.53 794.661C1364.04 781.608 1272.69 995.84 1129.15 1034.82C1064.77 1052.52 999.151 1044.16 909.446 1020.01C836.754 1000.31 748.161 970.845 632.15 937.379C484.519 894.372 296.571 1061.39 48.672 1065.35C-3.54065 1066.29 -53.1293 1056.97 -99.1822 1041.6C-284.106 979.896 -415.149 800.71 -419.151 711.539" stroke="#7BEFDA" stroke-width="0.19" stroke-miterlimit="10"/>
<path opacity="0.98" d="M1426.81 793.394C1362.55 779.34 1271.44 995.484 1128.19 1035.29C1063.75 1053.34 998.172 1045.14 908.246 1021.26C835.575 1001.84 746.96 972.558 630.594 939.18C483.651 896.729 296.104 1067.15 46.893 1070.8C-5.31967 1071.65 -54.9973 1062.04 -101.139 1045.92C-285.929 981.341 -416.283 799.131 -419.352 708.915" stroke="#7BEFDA" stroke-width="0.19" stroke-miterlimit="10"/>
<path opacity="0.99" d="M1425.1 792.105C1361.04 777.05 1270.2 995.107 1127.24 1035.73C1062.73 1054.12 997.171 1046.12 907.067 1022.46C834.418 1003.33 745.781 974.248 629.059 940.937C482.806 899.043 295.659 1072.85 45.1584 1076.23C-7.05422 1076.96 -56.8208 1067.07 -103.074 1050.19C-287.775 982.81 -417.439 797.553 -419.552 706.27" stroke="#7BEFDA" stroke-width="0.19" stroke-miterlimit="10"/>
<path d="M1423.39 790.837C1359.55 774.804 1268.98 994.751 1126.28 1036.2C1009.8 1070.02 890.167 1017.25 627.547 942.716C481.983 901.4 295.259 1078.56 43.4239 1081.68C-216.817 1084.86 -418.284 819.167 -419.752 703.646" stroke="#7BEFDA" stroke-width="0.19" stroke-miterlimit="10"/>
</g>
<g filter="url(#filter4_f_119_5305)">
<circle cx="1140" cy="200" r="54" fill="url(#paint4_radial_119_5305)" fill-opacity="0.5"/>
</g>
</g>
<defs>
<filter id="filter0_f_119_5305" x="-309" y="102" width="1069" height="1069" filterUnits="userSpaceOnUse" color-interpolation-filters="sRGB">
<feFlood flood-opacity="0" result="BackgroundImageFix"/>
<feBlend mode="normal" in="SourceGraphic" in2="BackgroundImageFix" result="shape"/>
<feGaussianBlur stdDeviation="127" result="effect1_foregroundBlur_119_5305"/>
</filter>
<filter id="filter1_f_119_5305" x="173" y="164" width="532" height="532" filterUnits="userSpaceOnUse" color-interpolation-filters="sRGB">
<feFlood flood-opacity="0" result="BackgroundImageFix"/>
<feBlend mode="normal" in="SourceGraphic" in2="BackgroundImageFix" result="shape"/>
<feGaussianBlur stdDeviation="42" result="effect1_foregroundBlur_119_5305"/>
</filter>
<filter id="filter2_f_119_5305" x="223" y="465" width="334" height="334" filterUnits="userSpaceOnUse" color-interpolation-filters="sRGB">
<feFlood flood-opacity="0" result="BackgroundImageFix"/>
<feBlend mode="normal" in="SourceGraphic" in2="BackgroundImageFix" result="shape"/>
<feGaussianBlur stdDeviation="12" result="effect1_foregroundBlur_119_5305"/>
</filter>
<filter id="filter3_f_119_5305" x="860" y="-54" width="422" height="422" filterUnits="userSpaceOnUse" color-interpolation-filters="sRGB">
<feFlood flood-opacity="0" result="BackgroundImageFix"/>
<feBlend mode="normal" in="SourceGraphic" in2="BackgroundImageFix" result="shape"/>
<feGaussianBlur stdDeviation="52" result="effect1_foregroundBlur_119_5305"/>
</filter>
<filter id="filter4_f_119_5305" x="1068" y="128" width="144" height="144" filterUnits="userSpaceOnUse" color-interpolation-filters="sRGB">
<feFlood flood-opacity="0" result="BackgroundImageFix"/>
<feBlend mode="normal" in="SourceGraphic" in2="BackgroundImageFix" result="shape"/>
<feGaussianBlur stdDeviation="9" result="effect1_foregroundBlur_119_5305"/>
</filter>
<linearGradient id="paint0_linear_119_5305" x1="225.5" y1="356" x2="157.809" y2="772.345" gradientUnits="userSpaceOnUse">
<stop stop-color="#2388E5"/>
<stop offset="1" stop-color="#22EFEF"/>
</linearGradient>
<linearGradient id="paint1_linear_119_5305" x1="439" y1="248" x2="439" y2="612" gradientUnits="userSpaceOnUse">
<stop stop-color="#BFFFD5"/>
<stop offset="1" stop-color="#2DCFB2"/>
</linearGradient>
<radialGradient id="paint2_radial_119_5305" cx="0" cy="0" r="1" gradientUnits="userSpaceOnUse" gradientTransform="translate(390 632) rotate(139.325) scale(126.579)">
<stop stop-color="#D4F1F2" stop-opacity="0"/>
<stop offset="1" stop-color="white"/>
</radialGradient>
<linearGradient id="paint3_linear_119_5305" x1="1119.18" y1="122.982" x2="1025.24" y2="217.519" gradientUnits="userSpaceOnUse">
<stop stop-color="#62D9FF"/>
<stop offset="1" stop-color="#66DC95"/>
</linearGradient>
<radialGradient id="paint4_radial_119_5305" cx="0" cy="0" r="1" gradientUnits="userSpaceOnUse" gradientTransform="translate(1140 200) rotate(139.325) scale(47.7991)">
<stop stop-color="#D4F1F2" stop-opacity="0"/>
<stop offset="1" stop-color="white"/>
</radialGradient>
<clipPath id="clip0_119_5305">
<rect width="1440" height="900" fill="white"/>
</clipPath>
</defs>
</svg>
