<svg width="150" height="150" viewBox="0 0 150 150" fill="none" xmlns="http://www.w3.org/2000/svg">
<circle cx="80.5" cy="86.5" r="26.5" fill="#EFEFEF"/>
<path d="M134.5 41.5898V39.0002" stroke="#BCECFF" stroke-width="2.6" stroke-miterlimit="10" stroke-linecap="round" stroke-linejoin="round"/>
<path d="M134.5 54V51.4104" stroke="#BCECFF" stroke-width="2.6" stroke-miterlimit="10" stroke-linecap="round" stroke-linejoin="round"/>
<path d="M139.411 46.5005H142" stroke="#BCECFF" stroke-width="2.6" stroke-miterlimit="10" stroke-linecap="round" stroke-linejoin="round"/>
<path d="M127 46.5005H129.59" stroke="#BCECFF" stroke-width="2.6" stroke-miterlimit="10" stroke-linecap="round" stroke-linejoin="round"/>
<path d="M15.5 109.244V107" stroke="#BCECFF" stroke-width="2.6" stroke-miterlimit="10" stroke-linecap="round" stroke-linejoin="round"/>
<path d="M15.5 120V117.756" stroke="#BCECFF" stroke-width="2.6" stroke-miterlimit="10" stroke-linecap="round" stroke-linejoin="round"/>
<path d="M19.7559 113.5H22.0002" stroke="#BCECFF" stroke-width="2.6" stroke-miterlimit="10" stroke-linecap="round" stroke-linejoin="round"/>
<path d="M9 113.5H11.2443" stroke="#BCECFF" stroke-width="2.6" stroke-miterlimit="10" stroke-linecap="round" stroke-linejoin="round"/>
<path fill-rule="evenodd" clip-rule="evenodd" d="M29.6919 66.8081H118.324V70.9361H29.6919V66.8081Z" fill="url(#paint0_linear_119_21476)"/>
<path fill-rule="evenodd" clip-rule="evenodd" d="M118.324 58.6416H36.3393C34.5755 58.6416 32.8849 59.3418 31.6374 60.5893C30.3921 61.8346 29.6919 63.5252 29.6919 65.289V78.5838H118.324V58.6416Z" fill="#CDE1DE"/>
<path fill-rule="evenodd" clip-rule="evenodd" d="M118.325 56.601C118.325 54.8394 117.624 53.1488 116.377 51.9013C115.129 50.656 113.439 49.9536 111.677 49.9536C103.742 49.9536 90.6714 49.9536 83.6739 49.9536C80.8222 49.9536 78.2895 51.7728 77.3766 54.4738C76.0959 58.2695 74.4717 63.0734 74.4717 63.0734H118.325V56.601Z" fill="#CDE1DE"/>
<path fill-rule="evenodd" clip-rule="evenodd" d="M123.837 79.9496C124.236 77.3925 123.496 74.7868 121.812 72.8191C120.128 70.8515 117.669 69.7192 115.078 69.7192C95.5327 69.7192 53.4104 69.7192 33.8649 69.7192C31.2746 69.7192 28.8151 70.8515 27.1311 72.8191C25.4471 74.7868 24.707 77.3925 25.1058 79.9496C27.3615 94.3789 31.4208 120.361 33.4151 133.129C34.0909 137.445 37.8068 140.625 42.1741 140.625H106.769C111.136 140.625 114.852 137.445 115.528 133.129C117.522 120.361 121.582 94.3789 123.837 79.9496Z" fill="url(#paint1_linear_119_21476)"/>
<path fill-rule="evenodd" clip-rule="evenodd" d="M25.1058 79.9496L26.2425 87.2174C25.8415 84.6581 26.7211 82.0524 28.4051 80.0847C30.0892 78.1171 32.5487 76.9848 35.139 76.9848H113.804C116.394 76.9848 118.854 78.1171 120.538 80.0847C122.222 82.0524 123.102 84.6581 122.701 87.2174L123.837 79.9496C124.236 77.3925 123.496 74.7868 121.812 72.8191C120.128 70.8515 117.669 69.7192 115.078 69.7192C95.5327 69.7192 53.4104 69.7192 33.8649 69.7192C31.2746 69.7192 28.8151 70.8515 27.1311 72.8191C25.4471 74.7868 24.707 77.3925 25.1058 79.9496Z" fill="#E9F3FC"/>
<path fill-rule="evenodd" clip-rule="evenodd" d="M69.4099 122.56C69.4099 120.114 67.4267 118.128 64.9783 118.128C60.0614 118.128 52.171 118.128 47.2519 118.128C44.8057 118.128 42.8203 120.114 42.8203 122.56V126.992C42.8203 129.44 44.8057 131.423 47.2519 131.423H64.9783C67.4267 131.423 69.4099 129.44 69.4099 126.992C69.4099 125.567 69.4099 123.987 69.4099 122.56Z" fill="#89E1D1"/>
<path fill-rule="evenodd" clip-rule="evenodd" d="M55.764 61.3202C55.6666 60.6954 55.62 60.0794 55.6222 59.4722C55.6267 58.2513 54.6384 57.2542 53.4153 57.2476C52.1922 57.2431 51.1951 58.2314 51.1906 59.4545C51.1862 60.2921 51.2505 61.1452 51.3879 62.0093C51.5762 63.2169 52.7129 64.0434 53.9205 63.8529C55.1281 63.6645 55.9546 62.5278 55.764 61.3202Z" fill="#CCCCCC"/>
<path fill-rule="evenodd" clip-rule="evenodd" d="M58.0896 52.8264C58.5239 52.3167 59.0114 51.8381 59.552 51.3905C60.4938 50.6106 60.6267 49.2146 59.8467 48.2707C59.0668 47.329 57.6708 47.196 56.7269 47.976C55.9846 48.5898 55.3132 49.2523 54.715 49.9525C53.9217 50.8853 54.0347 52.2835 54.9653 53.0768C55.896 53.87 57.2964 53.757 58.0896 52.8264Z" fill="#CCCCCC"/>
<path fill-rule="evenodd" clip-rule="evenodd" d="M66.4417 48.1934C67.3368 47.9918 68.2808 47.8411 69.2712 47.7414C70.4877 47.6195 71.3762 46.5338 71.2544 45.3173C71.1325 44.1008 70.0468 43.2101 68.8303 43.332C67.6559 43.4494 66.5347 43.6311 65.4711 43.8704C64.2768 44.1385 63.5257 45.324 63.7938 46.5161C64.0619 47.7104 65.2473 48.4615 66.4417 48.1934Z" fill="#CCCCCC"/>
<path fill-rule="evenodd" clip-rule="evenodd" d="M77.7842 47.7321C79.1358 47.7675 80.4187 47.7564 81.6419 47.7055C82.8628 47.6545 83.8133 46.6197 83.7624 45.3988C83.7114 44.1779 82.6789 43.2274 81.4557 43.2783C80.3279 43.3249 79.1424 43.3337 77.8972 43.3027C76.674 43.2717 75.657 44.24 75.626 45.4609C75.5949 46.684 76.5632 47.7011 77.7842 47.7321Z" fill="#CCCCCC"/>
<path fill-rule="evenodd" clip-rule="evenodd" d="M90.7975 46.3178C92.2267 45.9035 93.5163 45.4094 94.6729 44.8554C95.7742 44.3258 96.2395 43.0008 95.7099 41.8973C95.1803 40.7961 93.8553 40.3308 92.754 40.8603C91.8012 41.3168 90.7399 41.7201 89.5611 42.0635C88.3867 42.4047 87.7109 43.6345 88.0521 44.8089C88.3933 45.9833 89.6231 46.6591 90.7975 46.3178Z" fill="#CCCCCC"/>
<path fill-rule="evenodd" clip-rule="evenodd" d="M101.331 39.4121C102.39 37.9009 103.082 36.29 103.463 34.6614C103.742 33.4693 103 32.2772 101.81 31.998C100.62 31.7211 99.4255 32.4611 99.1485 33.651C98.8893 34.7545 98.4195 35.8447 97.7016 36.8684C97.0014 37.8699 97.2429 39.2526 98.2445 39.955C99.246 40.6574 100.631 40.4136 101.331 39.4121Z" fill="#CCCCCC"/>
<path fill-rule="evenodd" clip-rule="evenodd" d="M102.645 25.7719C101.664 23.4829 100.126 21.5552 98.3002 20.2966C97.292 19.6009 95.9116 19.8557 95.218 20.8616C94.5222 21.8676 94.7771 23.2503 95.783 23.9438C96.9685 24.7615 97.9368 26.0355 98.5727 27.5201C99.0558 28.6457 100.361 29.1665 101.484 28.6834C102.608 28.2004 103.128 26.8975 102.645 25.7719Z" fill="#CCCCCC"/>
<path fill-rule="evenodd" clip-rule="evenodd" d="M74.2302 19.2308C76.6277 5.65465 97.4052 6.53211 85.3092 19.2308H74.2302Z" fill="#D9E3E7"/>
<path fill-rule="evenodd" clip-rule="evenodd" d="M74.2302 22.6709C76.6277 36.2449 97.4052 35.3696 85.3092 22.6709H74.2302Z" fill="#D9E3E7"/>
<path fill-rule="evenodd" clip-rule="evenodd" d="M74.0303 23.1884H88.8672C90.0904 23.1884 91.083 22.1958 91.083 20.9726C91.083 19.7495 90.0904 18.7568 88.8672 18.7568H74.0303C72.8093 18.7568 71.8145 19.7495 71.8145 20.9726C71.8145 22.1958 72.8093 23.1884 74.0303 23.1884Z" fill="#CCCCCC"/>
<defs>
<linearGradient id="paint0_linear_119_21476" x1="29.6919" y1="68.871" x2="118.324" y2="68.871" gradientUnits="userSpaceOnUse">
<stop stop-color="#A4BBDB"/>
<stop offset="1" stop-color="#8DA3BE"/>
</linearGradient>
<linearGradient id="paint1_linear_119_21476" x1="25.0017" y1="105.172" x2="123.944" y2="105.172" gradientUnits="userSpaceOnUse">
<stop stop-color="#D6F1F5"/>
<stop offset="1" stop-color="#B2F4F0"/>
</linearGradient>
</defs>
</svg>
